<?xml version="1.0" encoding="UTF-8" standalone="no"?>
<!DOCTYPE svg PUBLIC "-//W3C//DTD SVG 1.1//EN"
 "http://www.w3.org/Graphics/SVG/1.1/DTD/svg11.dtd">
<!-- Generated by graphviz version 2.43.0 (0)
 -->
<!-- Title: api.h Pages: 1 -->
<svg width="998pt" height="137pt"
 viewBox="0.00 0.00 998.00 137.00" xmlns="http://www.w3.org/2000/svg" xmlns:xlink="http://www.w3.org/1999/xlink">
<g id="graph0" class="graph" transform="scale(1 1) rotate(0) translate(4 133)">
<title>api.h</title>
<!-- Node1 -->
<g id="Node000001" class="node">
<title>Node1</title>
<g id="a_Node000001"><a xlink:title=" ">
<polygon fill="#999999" stroke="#666666" points="482.5,-129 444.5,-129 444.5,-110 482.5,-110 482.5,-129"/>
<text text-anchor="middle" x="463.5" y="-117" font-family="Helvetica,sans-Serif" font-size="10.00">api.h</text>
</a>
</g>
</g>
<!-- Node2 -->
<g id="Node000002" class="node">
<title>Node2</title>
<g id="a_Node000002"><a xlink:href="ax25__decoder_8h.html" target="_top" xlink:title=" ">
<polygon fill="white" stroke="#666666" points="121,-74 36,-74 36,-55 121,-55 121,-74"/>
<text text-anchor="middle" x="78.5" y="-62" font-family="Helvetica,sans-Serif" font-size="10.00">ax25_decoder.h</text>
</a>
</g>
</g>
<!-- Node1&#45;&gt;Node2 -->
<g id="edge1_Node000001_Node000002" class="edge">
<title>Node1&#45;&gt;Node2</title>
<g id="a_edge1_Node000001_Node000002"><a xlink:title=" ">
<path fill="none" stroke="#63b8ff" d="M434.33,-114.94C376.23,-107.77 241.96,-90.86 129.5,-74 126.75,-73.59 123.91,-73.15 121.06,-72.7"/>
<polygon fill="#63b8ff" stroke="#63b8ff" points="433.91,-118.41 444.27,-116.16 434.77,-111.47 433.91,-118.41"/>
</a>
</g>
</g>
<!-- Node4 -->
<g id="Node000004" class="node">
<title>Node4</title>
<g id="a_Node000004"><a xlink:href="packet__protocols_8h.html" target="_top" xlink:title=" ">
<polygon fill="white" stroke="#666666" points="505,-19 406,-19 406,0 505,0 505,-19"/>
<text text-anchor="middle" x="455.5" y="-7" font-family="Helvetica,sans-Serif" font-size="10.00">packet_protocols.h</text>
</a>
</g>
</g>
<!-- Node1&#45;&gt;Node4 -->
<g id="edge26_Node000001_Node000004" class="edge">
<title>Node1&#45;&gt;Node4</title>
<g id="a_edge26_Node000001_Node000004"><a xlink:title=" ">
<path fill="none" stroke="#63b8ff" d="M434.35,-112.78C413.17,-106.94 385.94,-95.54 372.5,-74 356.55,-48.45 396.19,-29.34 426.02,-19.05"/>
<polygon fill="#63b8ff" stroke="#63b8ff" points="433.63,-116.21 444.18,-115.23 435.32,-109.42 433.63,-116.21"/>
</a>
</g>
</g>
<!-- Node5 -->
<g id="Node000005" class="node">
<title>Node5</title>
<g id="a_Node000005"><a xlink:href="ax25__encoder_8h.html" target="_top" xlink:title=" ">
<polygon fill="white" stroke="#666666" points="224,-74 139,-74 139,-55 224,-55 224,-74"/>
<text text-anchor="middle" x="181.5" y="-62" font-family="Helvetica,sans-Serif" font-size="10.00">ax25_encoder.h</text>
</a>
</g>
</g>
<!-- Node1&#45;&gt;Node5 -->
<g id="edge4_Node000001_Node000005" class="edge">
<title>Node1&#45;&gt;Node5</title>
<g id="a_edge4_Node000001_Node000005"><a xlink:title=" ">
<path fill="none" stroke="#63b8ff" d="M434.27,-113.01C384.24,-103.6 282.01,-84.39 224.06,-73.5"/>
<polygon fill="#63b8ff" stroke="#63b8ff" points="433.64,-116.45 444.12,-114.86 434.94,-109.57 433.64,-116.45"/>
</a>
</g>
</g>
<!-- Node7 -->
<g id="Node000007" class="node">
<title>Node7</title>
<g id="a_Node000007"><a xlink:href="fx25__decoder_8h.html" target="_top" xlink:title=" ">
<polygon fill="white" stroke="#666666" points="325,-74 242,-74 242,-55 325,-55 325,-74"/>
<text text-anchor="middle" x="283.5" y="-62" font-family="Helvetica,sans-Serif" font-size="10.00">fx25_decoder.h</text>
</a>
</g>
</g>
<!-- Node1&#45;&gt;Node7 -->
<g id="edge7_Node000001_Node000007" class="edge">
<title>Node1&#45;&gt;Node7</title>
<g id="a_edge7_Node000001_Node000007"><a xlink:title=" ">
<path fill="none" stroke="#63b8ff" d="M434.55,-109.98C400.97,-100.09 345.93,-83.88 312.38,-74"/>
<polygon fill="#63b8ff" stroke="#63b8ff" points="433.66,-113.36 444.24,-112.83 435.63,-106.65 433.66,-113.36"/>
</a>
</g>
</g>
<!-- Node9 -->
<g id="Node000009" class="node">
<title>Node9</title>
<g id="a_Node000009"><a xlink:href="fx25__encoder_8h.html" target="_top" xlink:title=" ">
<polygon fill="white" stroke="#666666" points="669,-74 586,-74 586,-55 669,-55 669,-74"/>
<text text-anchor="middle" x="627.5" y="-62" font-family="Helvetica,sans-Serif" font-size="10.00">fx25_encoder.h</text>
</a>
</g>
</g>
<!-- Node1&#45;&gt;Node9 -->
<g id="edge10_Node000001_Node000009" class="edge">
<title>Node1&#45;&gt;Node9</title>
<g id="a_edge10_Node000001_Node000009"><a xlink:title=" ">
<path fill="none" stroke="#63b8ff" d="M492.34,-109.18C523.12,-99.23 571.44,-83.62 601.2,-74"/>
<polygon fill="#63b8ff" stroke="#63b8ff" points="491.07,-105.91 482.63,-112.32 493.23,-112.57 491.07,-105.91"/>
</a>
</g>
</g>
<!-- Node11 -->
<g id="Node000011" class="node">
<title>Node11</title>
<g id="a_Node000011"><a xlink:href="fx25__fec_8h.html" target="_top" xlink:title=" ">
<polygon fill="white" stroke="#666666" points="443.5,-74 381.5,-74 381.5,-55 443.5,-55 443.5,-74"/>
<text text-anchor="middle" x="412.5" y="-62" font-family="Helvetica,sans-Serif" font-size="10.00">fx25_fec.h</text>
</a>
</g>
</g>
<!-- Node1&#45;&gt;Node11 -->
<g id="edge13_Node000001_Node000011" class="edge">
<title>Node1&#45;&gt;Node11</title>
<g id="a_edge13_Node000001_Node000011"><a xlink:title=" ">
<path fill="none" stroke="#63b8ff" d="M448.12,-102.52C439.13,-93.18 428.14,-81.75 420.76,-74.09"/>
<polygon fill="#63b8ff" stroke="#63b8ff" points="445.62,-104.97 455.08,-109.75 450.67,-100.12 445.62,-104.97"/>
</a>
</g>
</g>
<!-- Node12 -->
<g id="Node000012" class="node">
<title>Node12</title>
<g id="a_Node000012"><a xlink:href="il2p__decoder_8h.html" target="_top" xlink:title=" ">
<polygon fill="white" stroke="#666666" points="766,-74 687,-74 687,-55 766,-55 766,-74"/>
<text text-anchor="middle" x="726.5" y="-62" font-family="Helvetica,sans-Serif" font-size="10.00">il2p_decoder.h</text>
</a>
</g>
</g>
<!-- Node1&#45;&gt;Node12 -->
<g id="edge15_Node000001_Node000012" class="edge">
<title>Node1&#45;&gt;Node12</title>
<g id="a_edge15_Node000001_Node000012"><a xlink:title=" ">
<path fill="none" stroke="#63b8ff" d="M492.74,-112.61C540,-103.08 633.26,-84.29 686.6,-73.54"/>
<polygon fill="#63b8ff" stroke="#63b8ff" points="491.95,-109.2 482.84,-114.6 493.33,-116.06 491.95,-109.2"/>
</a>
</g>
</g>
<!-- Node14 -->
<g id="Node000014" class="node">
<title>Node14</title>
<g id="a_Node000014"><a xlink:href="il2p__encoder_8h.html" target="_top" xlink:title=" ">
<polygon fill="white" stroke="#666666" points="863,-74 784,-74 784,-55 863,-55 863,-74"/>
<text text-anchor="middle" x="823.5" y="-62" font-family="Helvetica,sans-Serif" font-size="10.00">il2p_encoder.h</text>
</a>
</g>
</g>
<!-- Node1&#45;&gt;Node14 -->
<g id="edge18_Node000001_Node000014" class="edge">
<title>Node1&#45;&gt;Node14</title>
<g id="a_edge18_Node000001_Node000014"><a xlink:title=" ">
<path fill="none" stroke="#63b8ff" d="M492.64,-114.68C547.89,-107.35 671.66,-90.59 775.5,-74 778.26,-73.56 781.1,-73.09 783.97,-72.61"/>
<polygon fill="#63b8ff" stroke="#63b8ff" points="491.98,-111.23 482.53,-116.01 492.9,-118.17 491.98,-111.23"/>
</a>
</g>
</g>
<!-- Node16 -->
<g id="Node000016" class="node">
<title>Node16</title>
<g id="a_Node000016"><a xlink:href="il2p__reed__solomon_8h.html" target="_top" xlink:title=" ">
<polygon fill="white" stroke="#666666" points="567.5,-74 461.5,-74 461.5,-55 567.5,-55 567.5,-74"/>
<text text-anchor="middle" x="514.5" y="-62" font-family="Helvetica,sans-Serif" font-size="10.00">il2p_reed_solomon.h</text>
</a>
</g>
</g>
<!-- Node1&#45;&gt;Node16 -->
<g id="edge21_Node000001_Node000016" class="edge">
<title>Node1&#45;&gt;Node16</title>
<g id="a_edge21_Node000001_Node000016"><a xlink:title=" ">
<path fill="none" stroke="#63b8ff" d="M478.88,-102.52C487.87,-93.18 498.86,-81.75 506.24,-74.09"/>
<polygon fill="#63b8ff" stroke="#63b8ff" points="476.33,-100.12 471.92,-109.75 481.38,-104.97 476.33,-100.12"/>
</a>
</g>
</g>
<!-- Node17 -->
<g id="Node000017" class="node">
<title>Node17</title>
<g id="a_Node000017"><a xlink:href="kiss__tnc_8h.html" target="_top" xlink:title=" ">
<polygon fill="white" stroke="#666666" points="942.5,-74 880.5,-74 880.5,-55 942.5,-55 942.5,-74"/>
<text text-anchor="middle" x="911.5" y="-62" font-family="Helvetica,sans-Serif" font-size="10.00">kiss_tnc.h</text>
</a>
</g>
</g>
<!-- Node1&#45;&gt;Node17 -->
<g id="edge23_Node000001_Node000017" class="edge">
<title>Node1&#45;&gt;Node17</title>
<g id="a_edge23_Node000001_Node000017"><a xlink:title=" ">
<path fill="none" stroke="#63b8ff" d="M493.06,-116.37C560.59,-111.26 731.26,-97.01 872.5,-74 875.1,-73.58 877.79,-73.09 880.48,-72.57"/>
<polygon fill="#63b8ff" stroke="#63b8ff" points="492.47,-112.9 482.76,-117.14 493,-119.88 492.47,-112.9"/>
</a>
</g>
</g>
<!-- Node3 -->
<g id="Node000003" class="node">
<title>Node3</title>
<g id="a_Node000003"><a xlink:href="ax25__decoder__impl_8h.html" target="_top" xlink:title=" ">
<polygon fill="white" stroke="#666666" points="109,-19 0,-19 0,0 109,0 109,-19"/>
<text text-anchor="middle" x="54.5" y="-7" font-family="Helvetica,sans-Serif" font-size="10.00">ax25_decoder_impl.h</text>
</a>
</g>
</g>
<!-- Node2&#45;&gt;Node3 -->
<g id="edge2_Node000002_Node000003" class="edge">
<title>Node2&#45;&gt;Node3</title>
<g id="a_edge2_Node000002_Node000003"><a xlink:title=" ">
<path fill="none" stroke="#63b8ff" d="M70.36,-45.53C66.32,-36.6 61.62,-26.22 58.39,-19.09"/>
<polygon fill="#63b8ff" stroke="#63b8ff" points="67.22,-47.08 74.54,-54.75 73.6,-44.19 67.22,-47.08"/>
</a>
</g>
</g>
<!-- Node2&#45;&gt;Node4 -->
<g id="edge3_Node000002_Node000004" class="edge">
<title>Node2&#45;&gt;Node4</title>
<g id="a_edge3_Node000002_Node000004"><a xlink:title=" ">
<path fill="none" stroke="#63b8ff" d="M131.04,-54.8C234.31,-39.25 343.73,-24.82 405.73,-16.83"/>
<polygon fill="#63b8ff" stroke="#63b8ff" points="130.43,-51.35 121.06,-56.31 131.47,-58.28 130.43,-51.35"/>
</a>
</g>
</g>
<!-- Node5&#45;&gt;Node4 -->
<g id="edge6_Node000005_Node000004" class="edge">
<title>Node5&#45;&gt;Node4</title>
<g id="a_edge6_Node000005_Node000004"><a xlink:title=" ">
<path fill="none" stroke="#63b8ff" d="M233.95,-53.35C285.46,-43.39 363.15,-28.36 411.53,-19.01"/>
<polygon fill="#63b8ff" stroke="#63b8ff" points="233.17,-49.94 224.01,-55.28 234.49,-56.81 233.17,-49.94"/>
</a>
</g>
</g>
<!-- Node6 -->
<g id="Node000006" class="node">
<title>Node6</title>
<g id="a_Node000006"><a xlink:href="ax25__encoder__impl_8h.html" target="_top" xlink:title=" ">
<polygon fill="white" stroke="#666666" points="236,-19 127,-19 127,0 236,0 236,-19"/>
<text text-anchor="middle" x="181.5" y="-7" font-family="Helvetica,sans-Serif" font-size="10.00">ax25_encoder_impl.h</text>
</a>
</g>
</g>
<!-- Node5&#45;&gt;Node6 -->
<g id="edge5_Node000005_Node000006" class="edge">
<title>Node5&#45;&gt;Node6</title>
<g id="a_edge5_Node000005_Node000006"><a xlink:title=" ">
<path fill="none" stroke="#63b8ff" d="M181.5,-44.66C181.5,-35.93 181.5,-25.99 181.5,-19.09"/>
<polygon fill="#63b8ff" stroke="#63b8ff" points="178,-44.75 181.5,-54.75 185,-44.75 178,-44.75"/>
</a>
</g>
</g>
<!-- Node7&#45;&gt;Node4 -->
<g id="edge9_Node000007_Node000004" class="edge">
<title>Node7&#45;&gt;Node4</title>
<g id="a_edge9_Node000007_Node000004"><a xlink:title=" ">
<path fill="none" stroke="#63b8ff" d="M321.06,-51.93C353.18,-42.03 398.69,-28.01 427.65,-19.08"/>
<polygon fill="#63b8ff" stroke="#63b8ff" points="319.66,-48.69 311.13,-54.98 321.72,-55.38 319.66,-48.69"/>
</a>
</g>
</g>
<!-- Node8 -->
<g id="Node000008" class="node">
<title>Node8</title>
<g id="a_Node000008"><a xlink:href="fx25__decoder__impl_8h.html" target="_top" xlink:title=" ">
<polygon fill="white" stroke="#666666" points="361,-19 254,-19 254,0 361,0 361,-19"/>
<text text-anchor="middle" x="307.5" y="-7" font-family="Helvetica,sans-Serif" font-size="10.00">fx25_decoder_impl.h</text>
</a>
</g>
</g>
<!-- Node7&#45;&gt;Node8 -->
<g id="edge8_Node000007_Node000008" class="edge">
<title>Node7&#45;&gt;Node8</title>
<g id="a_edge8_Node000007_Node000008"><a xlink:title=" ">
<path fill="none" stroke="#63b8ff" d="M291.64,-45.53C295.68,-36.6 300.38,-26.22 303.61,-19.09"/>
<polygon fill="#63b8ff" stroke="#63b8ff" points="288.4,-44.19 287.46,-54.75 294.78,-47.08 288.4,-44.19"/>
</a>
</g>
</g>
<!-- Node9&#45;&gt;Node4 -->
<g id="edge12_Node000009_Node000004" class="edge">
<title>Node9&#45;&gt;Node4</title>
<g id="a_edge12_Node000009_Node000004"><a xlink:title=" ">
<path fill="none" stroke="#63b8ff" d="M589.94,-51.93C557.82,-42.03 512.31,-28.01 483.35,-19.08"/>
<polygon fill="#63b8ff" stroke="#63b8ff" points="589.28,-55.38 599.87,-54.98 591.34,-48.69 589.28,-55.38"/>
</a>
</g>
</g>
<!-- Node10 -->
<g id="Node000010" class="node">
<title>Node10</title>
<g id="a_Node000010"><a xlink:href="fx25__encoder__impl_8h.html" target="_top" xlink:title=" ">
<polygon fill="white" stroke="#666666" points="645,-19 538,-19 538,0 645,0 645,-19"/>
<text text-anchor="middle" x="591.5" y="-7" font-family="Helvetica,sans-Serif" font-size="10.00">fx25_encoder_impl.h</text>
</a>
</g>
</g>
<!-- Node9&#45;&gt;Node10 -->
<g id="edge11_Node000009_Node000010" class="edge">
<title>Node9&#45;&gt;Node10</title>
<g id="a_edge11_Node000009_Node000010"><a xlink:title=" ">
<path fill="none" stroke="#63b8ff" d="M615.88,-46.39C609.68,-37.27 602.33,-26.45 597.33,-19.09"/>
<polygon fill="#63b8ff" stroke="#63b8ff" points="613.04,-48.44 621.56,-54.75 618.83,-44.51 613.04,-48.44"/>
</a>
</g>
</g>
<!-- Node11&#45;&gt;Node4 -->
<g id="edge14_Node000011_Node000004" class="edge">
<title>Node11&#45;&gt;Node4</title>
<g id="a_edge14_Node000011_Node000004"><a xlink:title=" ">
<path fill="none" stroke="#63b8ff" d="M425.92,-46.96C433.41,-37.72 442.44,-26.6 448.53,-19.09"/>
<polygon fill="#63b8ff" stroke="#63b8ff" points="423.18,-44.78 419.6,-54.75 428.62,-49.19 423.18,-44.78"/>
</a>
</g>
</g>
<!-- Node12&#45;&gt;Node4 -->
<g id="edge17_Node000012_Node000004" class="edge">
<title>Node12&#45;&gt;Node4</title>
<g id="a_edge17_Node000012_Node000004"><a xlink:title=" ">
<path fill="none" stroke="#63b8ff" d="M676.71,-53.76C625.92,-43.83 547.88,-28.57 499.35,-19.08"/>
<polygon fill="#63b8ff" stroke="#63b8ff" points="676.32,-57.25 686.8,-55.74 677.66,-50.38 676.32,-57.25"/>
</a>
</g>
</g>
<!-- Node13 -->
<g id="Node000013" class="node">
<title>Node13</title>
<g id="a_Node000013"><a xlink:href="il2p__decoder__impl_8h.html" target="_top" xlink:title=" ">
<polygon fill="white" stroke="#666666" points="766,-19 663,-19 663,0 766,0 766,-19"/>
<text text-anchor="middle" x="714.5" y="-7" font-family="Helvetica,sans-Serif" font-size="10.00">il2p_decoder_impl.h</text>
</a>
</g>
</g>
<!-- Node12&#45;&gt;Node13 -->
<g id="edge16_Node000012_Node000013" class="edge">
<title>Node12&#45;&gt;Node13</title>
<g id="a_edge16_Node000012_Node000013"><a xlink:title=" ">
<path fill="none" stroke="#63b8ff" d="M722.3,-44.95C720.31,-36.15 718.02,-26.06 716.44,-19.09"/>
<polygon fill="#63b8ff" stroke="#63b8ff" points="718.9,-45.77 724.52,-54.75 725.72,-44.22 718.9,-45.77"/>
</a>
</g>
</g>
<!-- Node14&#45;&gt;Node4 -->
<g id="edge20_Node000014_Node000004" class="edge">
<title>Node14&#45;&gt;Node4</title>
<g id="a_edge20_Node000014_Node000004"><a xlink:title=" ">
<path fill="none" stroke="#63b8ff" d="M773.9,-54.79C672.91,-38.96 566.16,-24.72 505.2,-16.83"/>
<polygon fill="#63b8ff" stroke="#63b8ff" points="773.54,-58.28 783.97,-56.38 774.63,-51.37 773.54,-58.28"/>
</a>
</g>
</g>
<!-- Node15 -->
<g id="Node000015" class="node">
<title>Node15</title>
<g id="a_Node000015"><a xlink:href="il2p__encoder__impl_8h.html" target="_top" xlink:title=" ">
<polygon fill="white" stroke="#666666" points="887,-19 784,-19 784,0 887,0 887,-19"/>
<text text-anchor="middle" x="835.5" y="-7" font-family="Helvetica,sans-Serif" font-size="10.00">il2p_encoder_impl.h</text>
</a>
</g>
</g>
<!-- Node14&#45;&gt;Node15 -->
<g id="edge19_Node000014_Node000015" class="edge">
<title>Node14&#45;&gt;Node15</title>
<g id="a_edge19_Node000014_Node000015"><a xlink:title=" ">
<path fill="none" stroke="#63b8ff" d="M827.7,-44.95C829.69,-36.15 831.98,-26.06 833.56,-19.09"/>
<polygon fill="#63b8ff" stroke="#63b8ff" points="824.28,-44.22 825.48,-54.75 831.1,-45.77 824.28,-44.22"/>
</a>
</g>
</g>
<!-- Node16&#45;&gt;Node4 -->
<g id="edge22_Node000016_Node000004" class="edge">
<title>Node16&#45;&gt;Node4</title>
<g id="a_edge22_Node000016_Node000004"><a xlink:title=" ">
<path fill="none" stroke="#63b8ff" d="M497.3,-48.04C486.83,-38.64 473.85,-26.98 465.15,-19.17"/>
<polygon fill="#63b8ff" stroke="#63b8ff" points="495.24,-50.91 505.02,-54.98 499.92,-45.7 495.24,-50.91"/>
</a>
</g>
</g>
<!-- Node17&#45;&gt;Node4 -->
<g id="edge25_Node000017_Node000004" class="edge">
<title>Node17&#45;&gt;Node4</title>
<g id="a_edge25_Node000017_Node000004"><a xlink:title=" ">
<path fill="none" stroke="#63b8ff" d="M870.37,-54.8C719.42,-30.85 678.59,-35.39 529.5,-19 521.66,-18.14 513.35,-17.2 505.25,-16.28"/>
<polygon fill="#63b8ff" stroke="#63b8ff" points="870.05,-58.29 880.48,-56.42 871.16,-51.38 870.05,-58.29"/>
</a>
</g>
</g>
<!-- Node18 -->
<g id="Node000018" class="node">
<title>Node18</title>
<g id="a_Node000018"><a xlink:href="kiss__tnc__impl_8h.html" target="_top" xlink:title=" ">
<polygon fill="white" stroke="#666666" points="990,-19 905,-19 905,0 990,0 990,-19"/>
<text text-anchor="middle" x="947.5" y="-7" font-family="Helvetica,sans-Serif" font-size="10.00">kiss_tnc_impl.h</text>
</a>
</g>
</g>
<!-- Node17&#45;&gt;Node18 -->
<g id="edge24_Node000017_Node000018" class="edge">
<title>Node17&#45;&gt;Node18</title>
<g id="a_edge24_Node000017_Node000018"><a xlink:title=" ">
<path fill="none" stroke="#63b8ff" d="M923.12,-46.39C929.32,-37.27 936.67,-26.45 941.67,-19.09"/>
<polygon fill="#63b8ff" stroke="#63b8ff" points="920.17,-44.51 917.44,-54.75 925.96,-48.44 920.17,-44.51"/>
</a>
</g>
</g>
</g>
</svg>
