<?xml version="1.0" encoding="UTF-8" standalone="no"?>
<!DOCTYPE svg PUBLIC "-//W3C//DTD SVG 1.1//EN"
 "http://www.w3.org/Graphics/SVG/1.1/DTD/svg11.dtd">
<!-- Generated by graphviz version 2.43.0 (0)
 -->
<!-- Title: api.h Pages: 1 -->
<svg width="1526pt" height="214pt"
 viewBox="0.00 0.00 1526.00 214.00" xmlns="http://www.w3.org/2000/svg" xmlns:xlink="http://www.w3.org/1999/xlink">
<g id="graph0" class="graph" transform="scale(1 1) rotate(0) translate(4 210)">
<title>api.h</title>
<!-- Node1 -->
<g id="Node000001" class="node">
<title>Node1</title>
<g id="a_Node000001"><a xlink:title=" ">
<polygon fill="#999999" stroke="#666666" points="855.5,-206 817.5,-206 817.5,-187 855.5,-187 855.5,-206"/>
<text text-anchor="middle" x="836.5" y="-194" font-family="Helvetica,sans-Serif" font-size="10.00">api.h</text>
</a>
</g>
</g>
<!-- Node2 -->
<g id="Node000002" class="node">
<title>Node2</title>
<g id="a_Node000002"><a xlink:href="adaptive__modulator_8h.html" target="_top" xlink:title=" ">
<polygon fill="white" stroke="#666666" points="109,-90.5 0,-90.5 0,-71.5 109,-71.5 109,-90.5"/>
<text text-anchor="middle" x="54.5" y="-78.5" font-family="Helvetica,sans-Serif" font-size="10.00">adaptive_modulator.h</text>
</a>
</g>
</g>
<!-- Node1&#45;&gt;Node2 -->
<g id="edge1_Node000001_Node000002" class="edge">
<title>Node1&#45;&gt;Node2</title>
<g id="a_edge1_Node000001_Node000002"><a xlink:title=" ">
<path fill="none" stroke="#63b8ff" d="M806.94,-194.92C697.39,-192.55 314.92,-182.18 197.5,-151 146.88,-137.56 92.63,-106.06 68.02,-90.71"/>
<polygon fill="#63b8ff" stroke="#63b8ff" points="807.16,-198.43 817.23,-195.14 807.31,-191.43 807.16,-198.43"/>
</a>
</g>
</g>
<!-- Node4 -->
<g id="Node000004" class="node">
<title>Node4</title>
<g id="a_Node000004"><a xlink:href="adaptive__rate__control_8h.html" target="_top" xlink:title=" ">
<polygon fill="white" stroke="#666666" points="324.5,-151 206.5,-151 206.5,-132 324.5,-132 324.5,-151"/>
<text text-anchor="middle" x="265.5" y="-139" font-family="Helvetica,sans-Serif" font-size="10.00">adaptive_rate_control.h</text>
</a>
</g>
</g>
<!-- Node1&#45;&gt;Node4 -->
<g id="edge3_Node000001_Node000004" class="edge">
<title>Node1&#45;&gt;Node4</title>
<g id="a_edge3_Node000001_Node000004"><a xlink:title=" ">
<path fill="none" stroke="#63b8ff" d="M807.16,-192.78C717.5,-184.45 445.83,-159.24 324.79,-148"/>
<polygon fill="#63b8ff" stroke="#63b8ff" points="806.89,-196.27 817.17,-193.71 807.54,-189.3 806.89,-196.27"/>
</a>
</g>
</g>
<!-- Node6 -->
<g id="Node000006" class="node">
<title>Node6</title>
<g id="a_Node000006"><a xlink:href="modulation__negotiation_8h.html" target="_top" xlink:title=" ">
<polygon fill="white" stroke="#666666" points="419,-90.5 294,-90.5 294,-71.5 419,-71.5 419,-90.5"/>
<text text-anchor="middle" x="356.5" y="-78.5" font-family="Helvetica,sans-Serif" font-size="10.00">modulation_negotiation.h</text>
</a>
</g>
</g>
<!-- Node1&#45;&gt;Node6 -->
<g id="edge36_Node000001_Node000006" class="edge">
<title>Node1&#45;&gt;Node6</title>
<g id="a_edge36_Node000001_Node000006"><a xlink:title=" ">
<path fill="none" stroke="#63b8ff" d="M807.08,-194.8C724.84,-192.45 494.13,-183.1 426.5,-151 397.21,-137.1 372.84,-105.82 362.22,-90.62"/>
<polygon fill="#63b8ff" stroke="#63b8ff" points="807.14,-198.3 817.23,-195.07 807.33,-191.3 807.14,-198.3"/>
</a>
</g>
</g>
<!-- Node8 -->
<g id="Node000008" class="node">
<title>Node8</title>
<g id="a_Node000008"><a xlink:href="ax25__decoder_8h.html" target="_top" xlink:title=" ">
<polygon fill="white" stroke="#666666" points="521,-151 436,-151 436,-132 521,-132 521,-151"/>
<text text-anchor="middle" x="478.5" y="-139" font-family="Helvetica,sans-Serif" font-size="10.00">ax25_decoder.h</text>
</a>
</g>
</g>
<!-- Node1&#45;&gt;Node8 -->
<g id="edge9_Node000001_Node000008" class="edge">
<title>Node1&#45;&gt;Node8</title>
<g id="a_edge9_Node000001_Node000008"><a xlink:title=" ">
<path fill="none" stroke="#63b8ff" d="M807.45,-191.5C752.92,-183.94 631.52,-166.89 529.5,-151 526.75,-150.57 523.92,-150.12 521.07,-149.66"/>
<polygon fill="#63b8ff" stroke="#63b8ff" points="807.05,-194.98 817.44,-192.88 808.01,-188.04 807.05,-194.98"/>
</a>
</g>
</g>
<!-- Node10 -->
<g id="Node000010" class="node">
<title>Node10</title>
<g id="a_Node000010"><a xlink:href="packet__protocols_8h.html" target="_top" xlink:title=" ">
<polygon fill="white" stroke="#666666" points="927,-90.5 828,-90.5 828,-71.5 927,-71.5 927,-90.5"/>
<text text-anchor="middle" x="877.5" y="-78.5" font-family="Helvetica,sans-Serif" font-size="10.00">packet_protocols.h</text>
</a>
</g>
</g>
<!-- Node1&#45;&gt;Node10 -->
<g id="edge37_Node000001_Node000010" class="edge">
<title>Node1&#45;&gt;Node10</title>
<g id="a_edge37_Node000001_Node000010"><a xlink:title=" ">
<path fill="none" stroke="#63b8ff" d="M846.24,-177.77C850.38,-169.75 855.05,-160.06 858.5,-151 866.55,-129.87 872.76,-103.91 875.67,-90.67"/>
<polygon fill="#63b8ff" stroke="#63b8ff" points="843.01,-176.39 841.39,-186.86 849.18,-179.68 843.01,-176.39"/>
</a>
</g>
</g>
<!-- Node11 -->
<g id="Node000011" class="node">
<title>Node11</title>
<g id="a_Node000011"><a xlink:href="ax25__encoder_8h.html" target="_top" xlink:title=" ">
<polygon fill="white" stroke="#666666" points="624,-151 539,-151 539,-132 624,-132 624,-151"/>
<text text-anchor="middle" x="581.5" y="-139" font-family="Helvetica,sans-Serif" font-size="10.00">ax25_encoder.h</text>
</a>
</g>
</g>
<!-- Node1&#45;&gt;Node11 -->
<g id="edge12_Node000001_Node000011" class="edge">
<title>Node1&#45;&gt;Node11</title>
<g id="a_edge12_Node000001_Node000011"><a xlink:title=" ">
<path fill="none" stroke="#63b8ff" d="M807.29,-189.43C761.98,-180.01 674.59,-161.85 622.83,-151.09"/>
<polygon fill="#63b8ff" stroke="#63b8ff" points="806.83,-192.91 817.33,-191.52 808.26,-186.05 806.83,-192.91"/>
</a>
</g>
</g>
<!-- Node13 -->
<g id="Node000013" class="node">
<title>Node13</title>
<g id="a_Node000013"><a xlink:href="fx25__decoder_8h.html" target="_top" xlink:title=" ">
<polygon fill="white" stroke="#666666" points="725,-151 642,-151 642,-132 725,-132 725,-151"/>
<text text-anchor="middle" x="683.5" y="-139" font-family="Helvetica,sans-Serif" font-size="10.00">fx25_decoder.h</text>
</a>
</g>
</g>
<!-- Node1&#45;&gt;Node13 -->
<g id="edge15_Node000001_Node000013" class="edge">
<title>Node1&#45;&gt;Node13</title>
<g id="a_edge15_Node000001_Node000013"><a xlink:title=" ">
<path fill="none" stroke="#63b8ff" d="M807.95,-185.61C779.23,-175.66 735.38,-160.47 708.13,-151.03"/>
<polygon fill="#63b8ff" stroke="#63b8ff" points="806.84,-188.93 817.43,-188.89 809.13,-182.31 806.84,-188.93"/>
</a>
</g>
</g>
<!-- Node15 -->
<g id="Node000015" class="node">
<title>Node15</title>
<g id="a_Node000015"><a xlink:href="fx25__encoder_8h.html" target="_top" xlink:title=" ">
<polygon fill="white" stroke="#666666" points="1069,-151 986,-151 986,-132 1069,-132 1069,-151"/>
<text text-anchor="middle" x="1027.5" y="-139" font-family="Helvetica,sans-Serif" font-size="10.00">fx25_encoder.h</text>
</a>
</g>
</g>
<!-- Node1&#45;&gt;Node15 -->
<g id="edge18_Node000001_Node000015" class="edge">
<title>Node1&#45;&gt;Node15</title>
<g id="a_edge18_Node000001_Node000015"><a xlink:title=" ">
<path fill="none" stroke="#63b8ff" d="M865.22,-187.53C900.57,-177.72 960.36,-161.13 996.66,-151.06"/>
<polygon fill="#63b8ff" stroke="#63b8ff" points="864.21,-184.18 855.51,-190.22 866.08,-190.92 864.21,-184.18"/>
</a>
</g>
</g>
<!-- Node17 -->
<g id="Node000017" class="node">
<title>Node17</title>
<g id="a_Node000017"><a xlink:href="fx25__fec_8h.html" target="_top" xlink:title=" ">
<polygon fill="white" stroke="#666666" points="967.5,-151 905.5,-151 905.5,-132 967.5,-132 967.5,-151"/>
<text text-anchor="middle" x="936.5" y="-139" font-family="Helvetica,sans-Serif" font-size="10.00">fx25_fec.h</text>
</a>
</g>
</g>
<!-- Node1&#45;&gt;Node17 -->
<g id="edge21_Node000001_Node000017" class="edge">
<title>Node1&#45;&gt;Node17</title>
<g id="a_edge21_Node000001_Node000017"><a xlink:title=" ">
<path fill="none" stroke="#63b8ff" d="M861.53,-182.23C879.87,-172.51 904.24,-159.6 920.14,-151.17"/>
<polygon fill="#63b8ff" stroke="#63b8ff" points="859.76,-179.21 852.57,-186.98 863.04,-185.39 859.76,-179.21"/>
</a>
</g>
</g>
<!-- Node18 -->
<g id="Node000018" class="node">
<title>Node18</title>
<g id="a_Node000018"><a xlink:href="il2p__decoder_8h.html" target="_top" xlink:title=" ">
<polygon fill="white" stroke="#666666" points="1166,-151 1087,-151 1087,-132 1166,-132 1166,-151"/>
<text text-anchor="middle" x="1126.5" y="-139" font-family="Helvetica,sans-Serif" font-size="10.00">il2p_decoder.h</text>
</a>
</g>
</g>
<!-- Node1&#45;&gt;Node18 -->
<g id="edge23_Node000001_Node000018" class="edge">
<title>Node1&#45;&gt;Node18</title>
<g id="a_edge23_Node000001_Node000018"><a xlink:title=" ">
<path fill="none" stroke="#63b8ff" d="M865.46,-190.21C917.67,-180.67 1027.63,-160.57 1086.8,-149.75"/>
<polygon fill="#63b8ff" stroke="#63b8ff" points="864.74,-186.78 855.53,-192.02 865.99,-193.67 864.74,-186.78"/>
</a>
</g>
</g>
<!-- Node20 -->
<g id="Node000020" class="node">
<title>Node20</title>
<g id="a_Node000020"><a xlink:href="il2p__encoder_8h.html" target="_top" xlink:title=" ">
<polygon fill="white" stroke="#666666" points="1263,-151 1184,-151 1184,-132 1263,-132 1263,-151"/>
<text text-anchor="middle" x="1223.5" y="-139" font-family="Helvetica,sans-Serif" font-size="10.00">il2p_encoder.h</text>
</a>
</g>
</g>
<!-- Node1&#45;&gt;Node20 -->
<g id="edge26_Node000001_Node000020" class="edge">
<title>Node1&#45;&gt;Node20</title>
<g id="a_edge26_Node000001_Node000020"><a xlink:title=" ">
<path fill="none" stroke="#63b8ff" d="M865.61,-192.07C924.19,-185.09 1060.48,-168.39 1174.5,-151 1177.57,-150.53 1180.75,-150.03 1183.94,-149.5"/>
<polygon fill="#63b8ff" stroke="#63b8ff" points="865.11,-188.61 855.6,-193.26 865.94,-195.56 865.11,-188.61"/>
</a>
</g>
</g>
<!-- Node22 -->
<g id="Node000022" class="node">
<title>Node22</title>
<g id="a_Node000022"><a xlink:href="il2p__reed__solomon_8h.html" target="_top" xlink:title=" ">
<polygon fill="white" stroke="#666666" points="849.5,-151 743.5,-151 743.5,-132 849.5,-132 849.5,-151"/>
<text text-anchor="middle" x="796.5" y="-139" font-family="Helvetica,sans-Serif" font-size="10.00">il2p_reed_solomon.h</text>
</a>
</g>
</g>
<!-- Node1&#45;&gt;Node22 -->
<g id="edge29_Node000001_Node000022" class="edge">
<title>Node1&#45;&gt;Node22</title>
<g id="a_edge29_Node000001_Node000022"><a xlink:title=" ">
<path fill="none" stroke="#63b8ff" d="M823.8,-178.67C816.87,-169.5 808.59,-158.52 802.98,-151.09"/>
<polygon fill="#63b8ff" stroke="#63b8ff" points="821.08,-180.87 829.89,-186.75 826.66,-176.66 821.08,-180.87"/>
</a>
</g>
</g>
<!-- Node23 -->
<g id="Node000023" class="node">
<title>Node23</title>
<g id="a_Node000023"><a xlink:href="kiss__tnc_8h.html" target="_top" xlink:title=" ">
<polygon fill="white" stroke="#666666" points="1342.5,-151 1280.5,-151 1280.5,-132 1342.5,-132 1342.5,-151"/>
<text text-anchor="middle" x="1311.5" y="-139" font-family="Helvetica,sans-Serif" font-size="10.00">kiss_tnc.h</text>
</a>
</g>
</g>
<!-- Node1&#45;&gt;Node23 -->
<g id="edge31_Node000001_Node000023" class="edge">
<title>Node1&#45;&gt;Node23</title>
<g id="a_edge31_Node000001_Node000023"><a xlink:title=" ">
<path fill="none" stroke="#63b8ff" d="M865.99,-193.58C936.42,-188.76 1119.87,-174.8 1271.5,-151 1274.31,-150.56 1277.21,-150.05 1280.12,-149.5"/>
<polygon fill="#63b8ff" stroke="#63b8ff" points="865.42,-190.11 855.67,-194.28 865.89,-197.1 865.42,-190.11"/>
</a>
</g>
</g>
<!-- Node25 -->
<g id="Node000025" class="node">
<title>Node25</title>
<g id="a_Node000025"><a xlink:href="link__quality__monitor_8h.html" target="_top" xlink:title=" ">
<polygon fill="white" stroke="#666666" points="1495.5,-151 1385.5,-151 1385.5,-132 1495.5,-132 1495.5,-151"/>
<text text-anchor="middle" x="1440.5" y="-139" font-family="Helvetica,sans-Serif" font-size="10.00">link_quality_monitor.h</text>
</a>
</g>
</g>
<!-- Node1&#45;&gt;Node25 -->
<g id="edge34_Node000001_Node000025" class="edge">
<title>Node1&#45;&gt;Node25</title>
<g id="a_edge34_Node000001_Node000025"><a xlink:title=" ">
<path fill="none" stroke="#63b8ff" d="M865.8,-193.06C944.44,-186.5 1166.7,-167.81 1351.5,-151 1362.48,-150 1374.21,-148.9 1385.43,-147.84"/>
<polygon fill="#63b8ff" stroke="#63b8ff" points="865.35,-189.59 855.68,-193.91 865.94,-196.56 865.35,-189.59"/>
</a>
</g>
</g>
<!-- Node3 -->
<g id="Node000003" class="node">
<title>Node3</title>
<g id="a_Node000003"><a xlink:href="adaptive__modulator__impl_8h.html" target="_top" xlink:title=" ">
<polygon fill="white" stroke="#666666" points="193,-30 92,-30 92,0 193,0 193,-30"/>
<text text-anchor="start" x="100" y="-18" font-family="Helvetica,sans-Serif" font-size="10.00">adaptive_modulator</text>
<text text-anchor="middle" x="142.5" y="-7" font-family="Helvetica,sans-Serif" font-size="10.00">_impl.h</text>
</a>
</g>
</g>
<!-- Node2&#45;&gt;Node3 -->
<g id="edge2_Node000002_Node000003" class="edge">
<title>Node2&#45;&gt;Node3</title>
<g id="a_edge2_Node000002_Node000003"><a xlink:title=" ">
<path fill="none" stroke="#63b8ff" d="M74.69,-65.32C89.23,-54.74 108.73,-40.56 123.09,-30.12"/>
<polygon fill="#63b8ff" stroke="#63b8ff" points="72.4,-62.66 66.37,-71.37 76.51,-68.32 72.4,-62.66"/>
</a>
</g>
</g>
<!-- Node4&#45;&gt;Node2 -->
<g id="edge4_Node000004_Node000002" class="edge">
<title>Node4&#45;&gt;Node2</title>
<g id="a_edge4_Node000004_Node000002"><a xlink:title=" ">
<path fill="none" stroke="#63b8ff" d="M224.93,-129.25C184.12,-117.94 122.11,-100.75 85.22,-90.52"/>
<polygon fill="#63b8ff" stroke="#63b8ff" points="224.25,-132.69 234.82,-131.99 226.12,-125.95 224.25,-132.69"/>
</a>
</g>
</g>
<!-- Node4&#45;&gt;Node3 -->
<g id="edge5_Node000004_Node000003" class="edge">
<title>Node4&#45;&gt;Node3</title>
<g id="a_edge5_Node000004_Node000003"><a xlink:title=" ">
<path fill="none" stroke="#63b8ff" d="M265.03,-121.62C263.68,-105.25 259.42,-81.77 246.5,-66 232.79,-49.26 212.14,-37.75 192.84,-30.03"/>
<polygon fill="#63b8ff" stroke="#63b8ff" points="261.53,-121.83 265.56,-131.63 268.52,-121.46 261.53,-121.83"/>
</a>
</g>
</g>
<!-- Node5 -->
<g id="Node000005" class="node">
<title>Node5</title>
<g id="a_Node000005"><a xlink:href="adaptive__rate__control__impl_8h.html" target="_top" xlink:title=" ">
<polygon fill="white" stroke="#666666" points="237.5,-96 127.5,-96 127.5,-66 237.5,-66 237.5,-96"/>
<text text-anchor="start" x="135.5" y="-84" font-family="Helvetica,sans-Serif" font-size="10.00">adaptive_rate_control</text>
<text text-anchor="middle" x="182.5" y="-73" font-family="Helvetica,sans-Serif" font-size="10.00">_impl.h</text>
</a>
</g>
</g>
<!-- Node4&#45;&gt;Node5 -->
<g id="edge6_Node000004_Node000005" class="edge">
<title>Node4&#45;&gt;Node5</title>
<g id="a_edge6_Node000004_Node000005"><a xlink:title=" ">
<path fill="none" stroke="#63b8ff" d="M244.97,-126.03C232.02,-116.9 215.38,-105.17 202.53,-96.11"/>
<polygon fill="#63b8ff" stroke="#63b8ff" points="243.06,-128.97 253.25,-131.87 247.1,-123.25 243.06,-128.97"/>
</a>
</g>
</g>
<!-- Node4&#45;&gt;Node6 -->
<g id="edge7_Node000004_Node000006" class="edge">
<title>Node4&#45;&gt;Node6</title>
<g id="a_edge7_Node000004_Node000006"><a xlink:title=" ">
<path fill="none" stroke="#63b8ff" d="M287.81,-126.16C305.1,-115.05 328.48,-100.01 343.02,-90.67"/>
<polygon fill="#63b8ff" stroke="#63b8ff" points="285.45,-123.52 278.93,-131.87 289.23,-129.4 285.45,-123.52"/>
</a>
</g>
</g>
<!-- Node7 -->
<g id="Node000007" class="node">
<title>Node7</title>
<g id="a_Node000007"><a xlink:href="modulation__negotiation__impl_8h.html" target="_top" xlink:title=" ">
<polygon fill="white" stroke="#666666" points="414.5,-30 298.5,-30 298.5,0 414.5,0 414.5,-30"/>
<text text-anchor="start" x="306.5" y="-18" font-family="Helvetica,sans-Serif" font-size="10.00">modulation_negotiation</text>
<text text-anchor="middle" x="356.5" y="-7" font-family="Helvetica,sans-Serif" font-size="10.00">_impl.h</text>
</a>
</g>
</g>
<!-- Node6&#45;&gt;Node7 -->
<g id="edge8_Node000006_Node000007" class="edge">
<title>Node6&#45;&gt;Node7</title>
<g id="a_edge8_Node000006_Node000007"><a xlink:title=" ">
<path fill="none" stroke="#63b8ff" d="M356.5,-61.35C356.5,-51.47 356.5,-39.51 356.5,-30.36"/>
<polygon fill="#63b8ff" stroke="#63b8ff" points="353,-61.37 356.5,-71.37 360,-61.37 353,-61.37"/>
</a>
</g>
</g>
<!-- Node9 -->
<g id="Node000009" class="node">
<title>Node9</title>
<g id="a_Node000009"><a xlink:href="ax25__decoder__impl_8h.html" target="_top" xlink:title=" ">
<polygon fill="white" stroke="#666666" points="546,-90.5 437,-90.5 437,-71.5 546,-71.5 546,-90.5"/>
<text text-anchor="middle" x="491.5" y="-78.5" font-family="Helvetica,sans-Serif" font-size="10.00">ax25_decoder_impl.h</text>
</a>
</g>
</g>
<!-- Node8&#45;&gt;Node9 -->
<g id="edge10_Node000008_Node000009" class="edge">
<title>Node8&#45;&gt;Node9</title>
<g id="a_edge10_Node000008_Node000009"><a xlink:title=" ">
<path fill="none" stroke="#63b8ff" d="M482.61,-121.99C484.94,-111.51 487.75,-98.89 489.57,-90.67"/>
<polygon fill="#63b8ff" stroke="#63b8ff" points="479.17,-121.35 480.42,-131.87 486,-122.87 479.17,-121.35"/>
</a>
</g>
</g>
<!-- Node8&#45;&gt;Node10 -->
<g id="edge11_Node000008_Node000010" class="edge">
<title>Node8&#45;&gt;Node10</title>
<g id="a_edge11_Node000008_Node000010"><a xlink:title=" ">
<path fill="none" stroke="#63b8ff" d="M531.24,-131.79C654.04,-113.89 687.21,-115.49 806.5,-96 816.3,-94.4 826.81,-92.45 836.66,-90.53"/>
<polygon fill="#63b8ff" stroke="#63b8ff" points="530.44,-128.37 521.06,-133.29 531.46,-135.3 530.44,-128.37"/>
</a>
</g>
</g>
<!-- Node11&#45;&gt;Node10 -->
<g id="edge14_Node000011_Node000010" class="edge">
<title>Node11&#45;&gt;Node10</title>
<g id="a_edge14_Node000011_Node000010"><a xlink:title=" ">
<path fill="none" stroke="#63b8ff" d="M634.13,-130.1C691.2,-118.82 781.23,-101.03 834.31,-90.54"/>
<polygon fill="#63b8ff" stroke="#63b8ff" points="633.36,-126.68 624.22,-132.06 634.71,-133.55 633.36,-126.68"/>
</a>
</g>
</g>
<!-- Node12 -->
<g id="Node000012" class="node">
<title>Node12</title>
<g id="a_Node000012"><a xlink:href="ax25__encoder__impl_8h.html" target="_top" xlink:title=" ">
<polygon fill="white" stroke="#666666" points="673,-90.5 564,-90.5 564,-71.5 673,-71.5 673,-90.5"/>
<text text-anchor="middle" x="618.5" y="-78.5" font-family="Helvetica,sans-Serif" font-size="10.00">ax25_encoder_impl.h</text>
</a>
</g>
</g>
<!-- Node11&#45;&gt;Node12 -->
<g id="edge13_Node000011_Node000012" class="edge">
<title>Node11&#45;&gt;Node12</title>
<g id="a_edge13_Node000011_Node000012"><a xlink:title=" ">
<path fill="none" stroke="#63b8ff" d="M592.38,-123.3C599.16,-112.58 607.6,-99.23 613.02,-90.67"/>
<polygon fill="#63b8ff" stroke="#63b8ff" points="589.35,-121.55 586.96,-131.87 595.26,-125.29 589.35,-121.55"/>
</a>
</g>
</g>
<!-- Node13&#45;&gt;Node10 -->
<g id="edge17_Node000013_Node000010" class="edge">
<title>Node13&#45;&gt;Node10</title>
<g id="a_edge17_Node000013_Node000010"><a xlink:title=" ">
<path fill="none" stroke="#63b8ff" d="M721.76,-128.96C759.28,-117.65 815.62,-100.66 849.26,-90.52"/>
<polygon fill="#63b8ff" stroke="#63b8ff" points="720.27,-125.76 711.71,-131.99 722.29,-132.46 720.27,-125.76"/>
</a>
</g>
</g>
<!-- Node14 -->
<g id="Node000014" class="node">
<title>Node14</title>
<g id="a_Node000014"><a xlink:href="fx25__decoder__impl_8h.html" target="_top" xlink:title=" ">
<polygon fill="white" stroke="#666666" points="798,-90.5 691,-90.5 691,-71.5 798,-71.5 798,-90.5"/>
<text text-anchor="middle" x="744.5" y="-78.5" font-family="Helvetica,sans-Serif" font-size="10.00">fx25_decoder_impl.h</text>
</a>
</g>
</g>
<!-- Node13&#45;&gt;Node14 -->
<g id="edge16_Node000013_Node000014" class="edge">
<title>Node13&#45;&gt;Node14</title>
<g id="a_edge16_Node000013_Node000014"><a xlink:title=" ">
<path fill="none" stroke="#63b8ff" d="M699.76,-124.91C711.2,-113.94 726.08,-99.67 735.46,-90.67"/>
<polygon fill="#63b8ff" stroke="#63b8ff" points="697.3,-122.42 692.5,-131.87 702.14,-127.47 697.3,-122.42"/>
</a>
</g>
</g>
<!-- Node15&#45;&gt;Node10 -->
<g id="edge20_Node000015_Node000010" class="edge">
<title>Node15&#45;&gt;Node10</title>
<g id="a_edge20_Node000015_Node000010"><a xlink:title=" ">
<path fill="none" stroke="#63b8ff" d="M996.04,-128.23C967.05,-116.92 924.79,-100.44 899.34,-90.52"/>
<polygon fill="#63b8ff" stroke="#63b8ff" points="995.1,-131.62 1005.69,-131.99 997.64,-125.1 995.1,-131.62"/>
</a>
</g>
</g>
<!-- Node16 -->
<g id="Node000016" class="node">
<title>Node16</title>
<g id="a_Node000016"><a xlink:href="fx25__encoder__impl_8h.html" target="_top" xlink:title=" ">
<polygon fill="white" stroke="#666666" points="1052,-90.5 945,-90.5 945,-71.5 1052,-71.5 1052,-90.5"/>
<text text-anchor="middle" x="998.5" y="-78.5" font-family="Helvetica,sans-Serif" font-size="10.00">fx25_encoder_impl.h</text>
</a>
</g>
</g>
<!-- Node15&#45;&gt;Node16 -->
<g id="edge19_Node000015_Node000016" class="edge">
<title>Node15&#45;&gt;Node16</title>
<g id="a_edge19_Node000015_Node000016"><a xlink:title=" ">
<path fill="none" stroke="#63b8ff" d="M1018.65,-122.65C1013.39,-112.04 1006.96,-99.06 1002.8,-90.67"/>
<polygon fill="#63b8ff" stroke="#63b8ff" points="1015.64,-124.46 1023.22,-131.87 1021.92,-121.35 1015.64,-124.46"/>
</a>
</g>
</g>
<!-- Node17&#45;&gt;Node10 -->
<g id="edge22_Node000017_Node000010" class="edge">
<title>Node17&#45;&gt;Node10</title>
<g id="a_edge22_Node000017_Node000010"><a xlink:title=" ">
<path fill="none" stroke="#63b8ff" d="M920.45,-124.59C909.44,-113.67 895.23,-99.58 886.24,-90.67"/>
<polygon fill="#63b8ff" stroke="#63b8ff" points="918.23,-127.31 927.79,-131.87 923.16,-122.34 918.23,-127.31"/>
</a>
</g>
</g>
<!-- Node18&#45;&gt;Node10 -->
<g id="edge25_Node000018_Node000010" class="edge">
<title>Node18&#45;&gt;Node10</title>
<g id="a_edge25_Node000018_Node000010"><a xlink:title=" ">
<path fill="none" stroke="#63b8ff" d="M1079.58,-129.68C1040.9,-120.73 984.61,-107.65 935.5,-96 928.14,-94.25 920.26,-92.37 912.76,-90.56"/>
<polygon fill="#63b8ff" stroke="#63b8ff" points="1078.98,-133.13 1089.51,-131.97 1080.55,-126.31 1078.98,-133.13"/>
</a>
</g>
</g>
<!-- Node19 -->
<g id="Node000019" class="node">
<title>Node19</title>
<g id="a_Node000019"><a xlink:href="il2p__decoder__impl_8h.html" target="_top" xlink:title=" ">
<polygon fill="white" stroke="#666666" points="1173,-90.5 1070,-90.5 1070,-71.5 1173,-71.5 1173,-90.5"/>
<text text-anchor="middle" x="1121.5" y="-78.5" font-family="Helvetica,sans-Serif" font-size="10.00">il2p_decoder_impl.h</text>
</a>
</g>
</g>
<!-- Node18&#45;&gt;Node19 -->
<g id="edge24_Node000018_Node000019" class="edge">
<title>Node18&#45;&gt;Node19</title>
<g id="a_edge24_Node000018_Node000019"><a xlink:title=" ">
<path fill="none" stroke="#63b8ff" d="M1124.89,-121.66C1124,-111.24 1122.94,-98.8 1122.24,-90.67"/>
<polygon fill="#63b8ff" stroke="#63b8ff" points="1121.42,-122.2 1125.76,-131.87 1128.4,-121.61 1121.42,-122.2"/>
</a>
</g>
</g>
<!-- Node20&#45;&gt;Node10 -->
<g id="edge28_Node000020_Node000010" class="edge">
<title>Node20&#45;&gt;Node10</title>
<g id="a_edge28_Node000020_Node000010"><a xlink:title=" ">
<path fill="none" stroke="#63b8ff" d="M1174.01,-131.96C1066.78,-114.91 1037.83,-116.02 935.5,-96 927.47,-94.43 918.87,-92.49 910.82,-90.57"/>
<polygon fill="#63b8ff" stroke="#63b8ff" points="1173.5,-135.43 1183.93,-133.56 1174.61,-128.52 1173.5,-135.43"/>
</a>
</g>
</g>
<!-- Node21 -->
<g id="Node000021" class="node">
<title>Node21</title>
<g id="a_Node000021"><a xlink:href="il2p__encoder__impl_8h.html" target="_top" xlink:title=" ">
<polygon fill="white" stroke="#666666" points="1294,-90.5 1191,-90.5 1191,-71.5 1294,-71.5 1294,-90.5"/>
<text text-anchor="middle" x="1242.5" y="-78.5" font-family="Helvetica,sans-Serif" font-size="10.00">il2p_encoder_impl.h</text>
</a>
</g>
</g>
<!-- Node20&#45;&gt;Node21 -->
<g id="edge27_Node000020_Node000021" class="edge">
<title>Node20&#45;&gt;Node21</title>
<g id="a_edge27_Node000020_Node000021"><a xlink:title=" ">
<path fill="none" stroke="#63b8ff" d="M1229.4,-122.32C1232.83,-111.78 1236.99,-98.98 1239.68,-90.67"/>
<polygon fill="#63b8ff" stroke="#63b8ff" points="1226.06,-121.28 1226.3,-131.87 1232.72,-123.44 1226.06,-121.28"/>
</a>
</g>
</g>
<!-- Node22&#45;&gt;Node10 -->
<g id="edge30_Node000022_Node000010" class="edge">
<title>Node22&#45;&gt;Node10</title>
<g id="a_edge30_Node000022_Node000010"><a xlink:title=" ">
<path fill="none" stroke="#63b8ff" d="M816.79,-125.85C832.13,-114.77 852.68,-99.93 865.5,-90.67"/>
<polygon fill="#63b8ff" stroke="#63b8ff" points="814.51,-123.18 808.45,-131.87 818.61,-128.85 814.51,-123.18"/>
</a>
</g>
</g>
<!-- Node23&#45;&gt;Node10 -->
<g id="edge33_Node000023_Node000010" class="edge">
<title>Node23&#45;&gt;Node10</title>
<g id="a_edge33_Node000023_Node000010"><a xlink:title=" ">
<path fill="none" stroke="#63b8ff" d="M1270.16,-131.94C1121.43,-108.91 1080.3,-121.12 935.5,-96 927.03,-94.53 917.95,-92.54 909.56,-90.53"/>
<polygon fill="#63b8ff" stroke="#63b8ff" points="1269.69,-135.41 1280.11,-133.51 1270.78,-128.5 1269.69,-135.41"/>
</a>
</g>
</g>
<!-- Node24 -->
<g id="Node000024" class="node">
<title>Node24</title>
<g id="a_Node000024"><a xlink:href="kiss__tnc__impl_8h.html" target="_top" xlink:title=" ">
<polygon fill="white" stroke="#666666" points="1397,-90.5 1312,-90.5 1312,-71.5 1397,-71.5 1397,-90.5"/>
<text text-anchor="middle" x="1354.5" y="-78.5" font-family="Helvetica,sans-Serif" font-size="10.00">kiss_tnc_impl.h</text>
</a>
</g>
</g>
<!-- Node23&#45;&gt;Node24 -->
<g id="edge32_Node000023_Node000024" class="edge">
<title>Node23&#45;&gt;Node24</title>
<g id="a_edge32_Node000023_Node000024"><a xlink:title=" ">
<path fill="none" stroke="#63b8ff" d="M1323.9,-123.63C1331.82,-112.85 1341.77,-99.32 1348.13,-90.67"/>
<polygon fill="#63b8ff" stroke="#63b8ff" points="1320.95,-121.74 1317.84,-131.87 1326.59,-125.88 1320.95,-121.74"/>
</a>
</g>
</g>
<!-- Node26 -->
<g id="Node000026" class="node">
<title>Node26</title>
<g id="a_Node000026"><a xlink:href="link__quality__monitor__impl_8h.html" target="_top" xlink:title=" ">
<polygon fill="white" stroke="#666666" points="1518,-96 1415,-96 1415,-66 1518,-66 1518,-96"/>
<text text-anchor="start" x="1423" y="-84" font-family="Helvetica,sans-Serif" font-size="10.00">link_quality_monitor</text>
<text text-anchor="middle" x="1466.5" y="-73" font-family="Helvetica,sans-Serif" font-size="10.00">_impl.h</text>
</a>
</g>
</g>
<!-- Node25&#45;&gt;Node26 -->
<g id="edge35_Node000025_Node000026" class="edge">
<title>Node25&#45;&gt;Node26</title>
<g id="a_edge35_Node000025_Node000026"><a xlink:title=" ">
<path fill="none" stroke="#63b8ff" d="M1448.5,-122.5C1452.27,-114.01 1456.7,-104.04 1460.23,-96.11"/>
<polygon fill="#63b8ff" stroke="#63b8ff" points="1445.2,-121.31 1444.34,-131.87 1451.6,-124.15 1445.2,-121.31"/>
</a>
</g>
</g>
</g>
</svg>
