<?xml version="1.0" encoding="UTF-8" standalone="no"?>
<!DOCTYPE svg PUBLIC "-//W3C//DTD SVG 1.1//EN"
 "http://www.w3.org/Graphics/SVG/1.1/DTD/svg11.dtd">
<!-- Generated by graphviz version 2.43.0 (0)
 -->
<!-- Title: ax25_protocol.h Pages: 1 -->
<svg width="464pt" height="82pt"
 viewBox="0.00 0.00 464.00 82.00" xmlns="http://www.w3.org/2000/svg" xmlns:xlink="http://www.w3.org/1999/xlink">
<g id="graph0" class="graph" transform="scale(1 1) rotate(0) translate(4 78)">
<title>ax25_protocol.h</title>
<!-- Node1 -->
<g id="Node000001" class="node">
<title>Node1</title>
<g id="a_Node000001"><a xlink:title=" ">
<polygon fill="#999999" stroke="#666666" points="281.5,-74 195.5,-74 195.5,-55 281.5,-55 281.5,-74"/>
<text text-anchor="middle" x="238.5" y="-62" font-family="Helvetica,sans-Serif" font-size="10.00">ax25_protocol.h</text>
</a>
</g>
</g>
<!-- Node2 -->
<g id="Node000002" class="node">
<title>Node2</title>
<g id="a_Node000002"><a xlink:href="ax25__decoder__impl_8h.html" target="_top" xlink:title=" ">
<polygon fill="white" stroke="#666666" points="109,-19 0,-19 0,0 109,0 109,-19"/>
<text text-anchor="middle" x="54.5" y="-7" font-family="Helvetica,sans-Serif" font-size="10.00">ax25_decoder_impl.h</text>
</a>
</g>
</g>
<!-- Node1&#45;&gt;Node2 -->
<g id="edge1_Node000001_Node000002" class="edge">
<title>Node1&#45;&gt;Node2</title>
<g id="a_edge1_Node000001_Node000002"><a xlink:title=" ">
<path fill="none" stroke="#63b8ff" d="M199.21,-52.18C164.8,-42.27 115.54,-28.08 84.29,-19.08"/>
<polygon fill="#63b8ff" stroke="#63b8ff" points="198.36,-55.58 208.94,-54.98 200.3,-48.85 198.36,-55.58"/>
</a>
</g>
</g>
<!-- Node3 -->
<g id="Node000003" class="node">
<title>Node3</title>
<g id="a_Node000003"><a xlink:href="ax25__encoder__impl_8h.html" target="_top" xlink:title=" ">
<polygon fill="white" stroke="#666666" points="236,-19 127,-19 127,0 236,0 236,-19"/>
<text text-anchor="middle" x="181.5" y="-7" font-family="Helvetica,sans-Serif" font-size="10.00">ax25_encoder_impl.h</text>
</a>
</g>
</g>
<!-- Node1&#45;&gt;Node3 -->
<g id="edge2_Node000001_Node000003" class="edge">
<title>Node1&#45;&gt;Node3</title>
<g id="a_edge2_Node000001_Node000003"><a xlink:title=" ">
<path fill="none" stroke="#63b8ff" d="M221.88,-48.04C211.77,-38.64 199.22,-26.98 190.82,-19.17"/>
<polygon fill="#63b8ff" stroke="#63b8ff" points="219.64,-50.74 229.34,-54.98 224.4,-45.61 219.64,-50.74"/>
</a>
</g>
</g>
<!-- Node4 -->
<g id="Node000004" class="node">
<title>Node4</title>
<g id="a_Node000004"><a xlink:href="kiss__tnc__impl_8h.html" target="_top" xlink:title=" ">
<polygon fill="white" stroke="#666666" points="339,-19 254,-19 254,0 339,0 339,-19"/>
<text text-anchor="middle" x="296.5" y="-7" font-family="Helvetica,sans-Serif" font-size="10.00">kiss_tnc_impl.h</text>
</a>
</g>
</g>
<!-- Node1&#45;&gt;Node4 -->
<g id="edge3_Node000001_Node000004" class="edge">
<title>Node1&#45;&gt;Node4</title>
<g id="a_edge3_Node000001_Node000004"><a xlink:title=" ">
<path fill="none" stroke="#63b8ff" d="M255.41,-48.04C265.7,-38.64 278.47,-26.98 287.01,-19.17"/>
<polygon fill="#63b8ff" stroke="#63b8ff" points="252.84,-45.66 247.82,-54.98 257.56,-50.82 252.84,-45.66"/>
</a>
</g>
</g>
<!-- Node5 -->
<g id="Node000005" class="node">
<title>Node5</title>
<g id="a_Node000005"><a xlink:href="packet__protocols_8h.html" target="_top" xlink:title=" ">
<polygon fill="white" stroke="#666666" points="456,-19 357,-19 357,0 456,0 456,-19"/>
<text text-anchor="middle" x="406.5" y="-7" font-family="Helvetica,sans-Serif" font-size="10.00">packet_protocols.h</text>
</a>
</g>
</g>
<!-- Node1&#45;&gt;Node5 -->
<g id="edge4_Node000001_Node000005" class="edge">
<title>Node1&#45;&gt;Node5</title>
<g id="a_edge4_Node000001_Node000005"><a xlink:title=" ">
<path fill="none" stroke="#63b8ff" d="M275.18,-51.93C306.56,-42.03 351.01,-28.01 379.3,-19.08"/>
<polygon fill="#63b8ff" stroke="#63b8ff" points="273.98,-48.64 265.49,-54.98 276.08,-55.31 273.98,-48.64"/>
</a>
</g>
</g>
</g>
</svg>
