<?xml version="1.0" encoding="UTF-8" standalone="no"?>
<!DOCTYPE svg PUBLIC "-//W3C//DTD SVG 1.1//EN"
 "http://www.w3.org/Graphics/SVG/1.1/DTD/svg11.dtd">
<!-- Generated by graphviz version 2.43.0 (0)
 -->
<!-- Title: ax25_decoder_impl.h Pages: 1 -->
<svg width="505pt" height="214pt"
 viewBox="0.00 0.00 504.50 214.00" xmlns="http://www.w3.org/2000/svg" xmlns:xlink="http://www.w3.org/1999/xlink">
<g id="graph0" class="graph" transform="scale(1 1) rotate(0) translate(4 210)">
<title>ax25_decoder_impl.h</title>
<!-- Node1 -->
<g id="Node000001" class="node">
<title>Node1</title>
<g id="a_Node000001"><a xlink:title=" ">
<polygon fill="#999999" stroke="#666666" points="423,-206 314,-206 314,-187 423,-187 423,-206"/>
<text text-anchor="middle" x="368.5" y="-194" font-family="Helvetica,sans-Serif" font-size="10.00">ax25_decoder_impl.h</text>
</a>
</g>
</g>
<!-- Node2 -->
<g id="Node000002" class="node">
<title>Node2</title>
<g id="a_Node000002"><a xlink:href="ax25__decoder_8h.html" target="_top" xlink:title=" ">
<polygon fill="white" stroke="#666666" points="272,-151 141,-151 141,-121 272,-121 272,-151"/>
<text text-anchor="start" x="149" y="-139" font-family="Helvetica,sans-Serif" font-size="10.00">gnuradio/packet_protocols</text>
<text text-anchor="middle" x="206.5" y="-128" font-family="Helvetica,sans-Serif" font-size="10.00">/ax25_decoder.h</text>
</a>
</g>
</g>
<!-- Node1&#45;&gt;Node2 -->
<g id="edge1_Node000001_Node000002" class="edge">
<title>Node1&#45;&gt;Node2</title>
<g id="a_edge1_Node000001_Node000002"><a xlink:title=" ">
<path fill="none" stroke="#63b8ff" d="M344.94,-186.99C321.53,-178.54 284.92,-165.32 255.22,-154.59"/>
<polygon fill="#63b8ff" stroke="#63b8ff" points="256.04,-151.17 245.45,-151.06 253.66,-157.75 256.04,-151.17"/>
</a>
</g>
</g>
<!-- Node6 -->
<g id="Node000006" class="node">
<title>Node6</title>
<g id="a_Node000006"><a xlink:href="ax25__protocol_8h.html" target="_top" xlink:title=" ">
<polygon fill="white" stroke="#666666" points="434,-151 303,-151 303,-121 434,-121 434,-151"/>
<text text-anchor="start" x="311" y="-139" font-family="Helvetica,sans-Serif" font-size="10.00">gnuradio/packet_protocols</text>
<text text-anchor="middle" x="368.5" y="-128" font-family="Helvetica,sans-Serif" font-size="10.00">/ax25_protocol.h</text>
</a>
</g>
</g>
<!-- Node1&#45;&gt;Node6 -->
<g id="edge5_Node000001_Node000006" class="edge">
<title>Node1&#45;&gt;Node6</title>
<g id="a_edge5_Node000001_Node000006"><a xlink:title=" ">
<path fill="none" stroke="#63b8ff" d="M368.5,-186.87C368.5,-180.11 368.5,-170.35 368.5,-161.26"/>
<polygon fill="#63b8ff" stroke="#63b8ff" points="372,-161.11 368.5,-151.11 365,-161.11 372,-161.11"/>
</a>
</g>
</g>
<!-- Node10 -->
<g id="Node000010" class="node">
<title>Node10</title>
<g id="a_Node000010"><a xlink:title=" ">
<polygon fill="#e0e0e0" stroke="#999999" points="496.5,-145.5 452.5,-145.5 452.5,-126.5 496.5,-126.5 496.5,-145.5"/>
<text text-anchor="middle" x="474.5" y="-133.5" font-family="Helvetica,sans-Serif" font-size="10.00">vector</text>
</a>
</g>
</g>
<!-- Node1&#45;&gt;Node10 -->
<g id="edge9_Node000001_Node000010" class="edge">
<title>Node1&#45;&gt;Node10</title>
<g id="a_edge9_Node000001_Node000010"><a xlink:title=" ">
<path fill="none" stroke="#63b8ff" d="M384.14,-186.87C401.44,-177.32 429.55,-161.81 449.83,-150.62"/>
<polygon fill="#63b8ff" stroke="#63b8ff" points="451.73,-153.56 458.8,-145.67 448.35,-147.43 451.73,-153.56"/>
</a>
</g>
</g>
<!-- Node3 -->
<g id="Node000003" class="node">
<title>Node3</title>
<g id="a_Node000003"><a xlink:href="api_8h.html" target="_top" xlink:title=" ">
<polygon fill="white" stroke="#666666" points="131,-85 0,-85 0,-55 131,-55 131,-85"/>
<text text-anchor="start" x="8" y="-73" font-family="Helvetica,sans-Serif" font-size="10.00">gnuradio/packet_protocols</text>
<text text-anchor="middle" x="65.5" y="-62" font-family="Helvetica,sans-Serif" font-size="10.00">/api.h</text>
</a>
</g>
</g>
<!-- Node2&#45;&gt;Node3 -->
<g id="edge2_Node000002_Node000003" class="edge">
<title>Node2&#45;&gt;Node3</title>
<g id="a_edge2_Node000002_Node000003"><a xlink:title=" ">
<path fill="none" stroke="#63b8ff" d="M175.56,-120.95C154.99,-111.62 127.77,-99.27 105.55,-89.18"/>
<polygon fill="#63b8ff" stroke="#63b8ff" points="106.92,-85.96 96.37,-85.01 104.03,-92.33 106.92,-85.96"/>
</a>
</g>
</g>
<!-- Node5 -->
<g id="Node000005" class="node">
<title>Node5</title>
<g id="a_Node000005"><a xlink:title=" ">
<polygon fill="#e0e0e0" stroke="#999999" points="263.5,-79.5 149.5,-79.5 149.5,-60.5 263.5,-60.5 263.5,-79.5"/>
<text text-anchor="middle" x="206.5" y="-67.5" font-family="Helvetica,sans-Serif" font-size="10.00">gnuradio/sync_block.h</text>
</a>
</g>
</g>
<!-- Node2&#45;&gt;Node5 -->
<g id="edge4_Node000002_Node000005" class="edge">
<title>Node2&#45;&gt;Node5</title>
<g id="a_edge4_Node000002_Node000005"><a xlink:title=" ">
<path fill="none" stroke="#63b8ff" d="M206.5,-120.8C206.5,-111.7 206.5,-99.79 206.5,-89.9"/>
<polygon fill="#63b8ff" stroke="#63b8ff" points="210,-89.84 206.5,-79.84 203,-89.84 210,-89.84"/>
</a>
</g>
</g>
<!-- Node4 -->
<g id="Node000004" class="node">
<title>Node4</title>
<g id="a_Node000004"><a xlink:title=" ">
<polygon fill="#e0e0e0" stroke="#999999" points="118,-19 13,-19 13,0 118,0 118,-19"/>
<text text-anchor="middle" x="65.5" y="-7" font-family="Helvetica,sans-Serif" font-size="10.00">gnuradio/attributes.h</text>
</a>
</g>
</g>
<!-- Node3&#45;&gt;Node4 -->
<g id="edge3_Node000003_Node000004" class="edge">
<title>Node3&#45;&gt;Node4</title>
<g id="a_edge3_Node000003_Node000004"><a xlink:title=" ">
<path fill="none" stroke="#63b8ff" d="M65.5,-54.84C65.5,-47.21 65.5,-37.7 65.5,-29.45"/>
<polygon fill="#63b8ff" stroke="#63b8ff" points="69,-29.27 65.5,-19.27 62,-29.27 69,-29.27"/>
</a>
</g>
</g>
<!-- Node7 -->
<g id="Node000007" class="node">
<title>Node7</title>
<g id="a_Node000007"><a xlink:title=" ">
<polygon fill="#e0e0e0" stroke="#999999" points="337.5,-79.5 281.5,-79.5 281.5,-60.5 337.5,-60.5 337.5,-79.5"/>
<text text-anchor="middle" x="309.5" y="-67.5" font-family="Helvetica,sans-Serif" font-size="10.00">stdbool.h</text>
</a>
</g>
</g>
<!-- Node6&#45;&gt;Node7 -->
<g id="edge6_Node000006_Node000007" class="edge">
<title>Node6&#45;&gt;Node7</title>
<g id="a_edge6_Node000006_Node000007"><a xlink:title=" ">
<path fill="none" stroke="#63b8ff" d="M355.41,-120.8C346.3,-110.92 334.13,-97.72 324.61,-87.39"/>
<polygon fill="#63b8ff" stroke="#63b8ff" points="327,-84.82 317.65,-79.84 321.86,-89.57 327,-84.82"/>
</a>
</g>
</g>
<!-- Node8 -->
<g id="Node000008" class="node">
<title>Node8</title>
<g id="a_Node000008"><a xlink:title=" ">
<polygon fill="#e0e0e0" stroke="#999999" points="407.5,-79.5 355.5,-79.5 355.5,-60.5 407.5,-60.5 407.5,-79.5"/>
<text text-anchor="middle" x="381.5" y="-67.5" font-family="Helvetica,sans-Serif" font-size="10.00">stddef.h</text>
</a>
</g>
</g>
<!-- Node6&#45;&gt;Node8 -->
<g id="edge7_Node000006_Node000008" class="edge">
<title>Node6&#45;&gt;Node8</title>
<g id="a_edge7_Node000006_Node000008"><a xlink:title=" ">
<path fill="none" stroke="#63b8ff" d="M371.39,-120.8C373.23,-111.7 375.65,-99.79 377.66,-89.9"/>
<polygon fill="#63b8ff" stroke="#63b8ff" points="381.14,-90.34 379.7,-79.84 374.28,-88.95 381.14,-90.34"/>
</a>
</g>
</g>
<!-- Node9 -->
<g id="Node000009" class="node">
<title>Node9</title>
<g id="a_Node000009"><a xlink:title=" ">
<polygon fill="#e0e0e0" stroke="#999999" points="475,-79.5 426,-79.5 426,-60.5 475,-60.5 475,-79.5"/>
<text text-anchor="middle" x="450.5" y="-67.5" font-family="Helvetica,sans-Serif" font-size="10.00">stdint.h</text>
</a>
</g>
</g>
<!-- Node6&#45;&gt;Node9 -->
<g id="edge8_Node000006_Node000009" class="edge">
<title>Node6&#45;&gt;Node9</title>
<g id="a_edge8_Node000006_Node000009"><a xlink:title=" ">
<path fill="none" stroke="#63b8ff" d="M386.7,-120.8C399.86,-110.53 417.61,-96.67 431.05,-86.18"/>
<polygon fill="#63b8ff" stroke="#63b8ff" points="433.44,-88.76 439.17,-79.84 429.13,-83.24 433.44,-88.76"/>
</a>
</g>
</g>
</g>
</svg>
