<?xml version="1.0" encoding="UTF-8" standalone="no"?>
<!DOCTYPE svg PUBLIC "-//W3C//DTD SVG 1.1//EN"
 "http://www.w3.org/Graphics/SVG/1.1/DTD/svg11.dtd">
<!-- Generated by graphviz version 2.43.0 (0)
 -->
<!-- Title: gr::packet_protocols::il2p_decoder_impl Pages: 1 -->
<svg width="113pt" height="159pt"
 viewBox="0.00 0.00 113.00 159.00" xmlns="http://www.w3.org/2000/svg" xmlns:xlink="http://www.w3.org/1999/xlink">
<g id="graph0" class="graph" transform="scale(1 1) rotate(0) translate(4 155)">
<title>gr::packet_protocols::il2p_decoder_impl</title>
<!-- Node1 -->
<g id="Node000001" class="node">
<title>Node1</title>
<g id="a_Node000001"><a xlink:title=" ">
<polygon fill="#999999" stroke="#666666" points="105,-30 0,-30 0,0 105,0 105,-30"/>
<text text-anchor="start" x="8" y="-18" font-family="Helvetica,sans-Serif" font-size="10.00">gr::packet_protocols</text>
<text text-anchor="middle" x="52.5" y="-7" font-family="Helvetica,sans-Serif" font-size="10.00">::il2p_decoder_impl</text>
</a>
</g>
</g>
<!-- Node2 -->
<g id="Node000002" class="node">
<title>Node2</title>
<g id="a_Node000002"><a xlink:href="classgr_1_1packet__protocols_1_1il2p__decoder.html" target="_top" xlink:title="IL2P (Improved Layer 2 Protocol) Decoder.">
<polygon fill="white" stroke="#666666" points="105,-96 0,-96 0,-66 105,-66 105,-96"/>
<text text-anchor="start" x="8" y="-84" font-family="Helvetica,sans-Serif" font-size="10.00">gr::packet_protocols</text>
<text text-anchor="middle" x="52.5" y="-73" font-family="Helvetica,sans-Serif" font-size="10.00">::il2p_decoder</text>
</a>
</g>
</g>
<!-- Node2&#45;&gt;Node1 -->
<g id="edge1_Node000001_Node000002" class="edge">
<title>Node2&#45;&gt;Node1</title>
<g id="a_edge1_Node000001_Node000002"><a xlink:title=" ">
<path fill="none" stroke="#63b8ff" d="M52.5,-55.54C52.5,-46.96 52.5,-37.61 52.5,-30.16"/>
<polygon fill="#63b8ff" stroke="#63b8ff" points="49,-55.8 52.5,-65.8 56,-55.8 49,-55.8"/>
</a>
</g>
</g>
<!-- Node3 -->
<g id="Node000003" class="node">
<title>Node3</title>
<g id="a_Node000003"><a xlink:title=" ">
<polygon fill="white" stroke="#666666" points="92.5,-151 12.5,-151 12.5,-132 92.5,-132 92.5,-151"/>
<text text-anchor="middle" x="52.5" y="-139" font-family="Helvetica,sans-Serif" font-size="10.00">gr::sync_block</text>
</a>
</g>
</g>
<!-- Node3&#45;&gt;Node2 -->
<g id="edge2_Node000002_Node000003" class="edge">
<title>Node3&#45;&gt;Node2</title>
<g id="a_edge2_Node000002_Node000003"><a xlink:title=" ">
<path fill="none" stroke="#63b8ff" d="M52.5,-121.65C52.5,-113.36 52.5,-103.78 52.5,-96.11"/>
<polygon fill="#63b8ff" stroke="#63b8ff" points="49,-121.87 52.5,-131.87 56,-121.87 49,-121.87"/>
</a>
</g>
</g>
</g>
</svg>
