<?xml version="1.0" encoding="UTF-8" standalone="no"?>
<!DOCTYPE svg PUBLIC "-//W3C//DTD SVG 1.1//EN"
 "http://www.w3.org/Graphics/SVG/1.1/DTD/svg11.dtd">
<!-- Generated by graphviz version 2.43.0 (0)
 -->
<!-- Title: common.h Pages: 1 -->
<svg width="725pt" height="137pt"
 viewBox="0.00 0.00 725.00 137.00" xmlns="http://www.w3.org/2000/svg" xmlns:xlink="http://www.w3.org/1999/xlink">
<g id="graph0" class="graph" transform="scale(1 1) rotate(0) translate(4 133)">
<title>common.h</title>
<!-- Node1 -->
<g id="Node000001" class="node">
<title>Node1</title>
<g id="a_Node000001"><a xlink:title=" ">
<polygon fill="#999999" stroke="#666666" points="377.5,-129 315.5,-129 315.5,-110 377.5,-110 377.5,-129"/>
<text text-anchor="middle" x="346.5" y="-117" font-family="Helvetica,sans-Serif" font-size="10.00">common.h</text>
</a>
</g>
</g>
<!-- Node2 -->
<g id="Node000002" class="node">
<title>Node2</title>
<g id="a_Node000002"><a xlink:href="fx25__decoder__impl_8h.html" target="_top" xlink:title=" ">
<polygon fill="white" stroke="#666666" points="107,-74 0,-74 0,-55 107,-55 107,-74"/>
<text text-anchor="middle" x="53.5" y="-62" font-family="Helvetica,sans-Serif" font-size="10.00">fx25_decoder_impl.h</text>
</a>
</g>
</g>
<!-- Node1&#45;&gt;Node2 -->
<g id="edge1_Node000001_Node000002" class="edge">
<title>Node1&#45;&gt;Node2</title>
<g id="a_edge1_Node000001_Node000002"><a xlink:title=" ">
<path fill="none" stroke="#63b8ff" d="M305.54,-111.09C251.7,-101.35 157.34,-84.28 100.61,-74.02"/>
<polygon fill="#63b8ff" stroke="#63b8ff" points="304.96,-114.54 315.42,-112.88 306.2,-107.65 304.96,-114.54"/>
</a>
</g>
</g>
<!-- Node3 -->
<g id="Node000003" class="node">
<title>Node3</title>
<g id="a_Node000003"><a xlink:href="fx25__encoder_8h.html" target="_top" xlink:title=" ">
<polygon fill="white" stroke="#666666" points="247,-74 164,-74 164,-55 247,-55 247,-74"/>
<text text-anchor="middle" x="205.5" y="-62" font-family="Helvetica,sans-Serif" font-size="10.00">fx25_encoder.h</text>
</a>
</g>
</g>
<!-- Node1&#45;&gt;Node3 -->
<g id="edge2_Node000001_Node000003" class="edge">
<title>Node1&#45;&gt;Node3</title>
<g id="a_edge2_Node000001_Node000003"><a xlink:title=" ">
<path fill="none" stroke="#63b8ff" d="M314.36,-106.42C288.21,-96.59 251.91,-82.95 228.57,-74.17"/>
<polygon fill="#63b8ff" stroke="#63b8ff" points="313.25,-109.74 323.85,-109.98 315.72,-103.19 313.25,-109.74"/>
</a>
</g>
</g>
<!-- Node4 -->
<g id="Node000004" class="node">
<title>Node4</title>
<g id="a_Node000004"><a xlink:href="fx25__encoder__impl_8h.html" target="_top" xlink:title=" ">
<polygon fill="white" stroke="#666666" points="234,-19 127,-19 127,0 234,0 234,-19"/>
<text text-anchor="middle" x="180.5" y="-7" font-family="Helvetica,sans-Serif" font-size="10.00">fx25_encoder_impl.h</text>
</a>
</g>
</g>
<!-- Node1&#45;&gt;Node4 -->
<g id="edge5_Node000001_Node000004" class="edge">
<title>Node1&#45;&gt;Node4</title>
<g id="a_edge5_Node000001_Node000004"><a xlink:title=" ">
<path fill="none" stroke="#63b8ff" d="M305.32,-114.86C254.63,-109.42 172.97,-97.24 154.5,-74 141.01,-57.03 159.84,-32.09 171.86,-19.1"/>
<polygon fill="#63b8ff" stroke="#63b8ff" points="305.02,-118.35 315.33,-115.89 305.74,-111.38 305.02,-118.35"/>
</a>
</g>
</g>
<!-- Node6 -->
<g id="Node000006" class="node">
<title>Node6</title>
<g id="a_Node000006"><a xlink:href="fx25__fec_8h.html" target="_top" xlink:title=" ">
<polygon fill="white" stroke="#666666" points="327.5,-74 265.5,-74 265.5,-55 327.5,-55 327.5,-74"/>
<text text-anchor="middle" x="296.5" y="-62" font-family="Helvetica,sans-Serif" font-size="10.00">fx25_fec.h</text>
</a>
</g>
</g>
<!-- Node1&#45;&gt;Node6 -->
<g id="edge6_Node000001_Node000006" class="edge">
<title>Node1&#45;&gt;Node6</title>
<g id="a_edge6_Node000001_Node000006"><a xlink:title=" ">
<path fill="none" stroke="#63b8ff" d="M331.16,-102.24C322.4,-92.95 311.76,-81.68 304.6,-74.09"/>
<polygon fill="#63b8ff" stroke="#63b8ff" points="328.84,-104.88 338.24,-109.75 333.93,-100.07 328.84,-104.88"/>
</a>
</g>
</g>
<!-- Node7 -->
<g id="Node000007" class="node">
<title>Node7</title>
<g id="a_Node000007"><a xlink:href="il2p__decoder__impl_8h.html" target="_top" xlink:title=" ">
<polygon fill="white" stroke="#666666" points="449,-74 346,-74 346,-55 449,-55 449,-74"/>
<text text-anchor="middle" x="397.5" y="-62" font-family="Helvetica,sans-Serif" font-size="10.00">il2p_decoder_impl.h</text>
</a>
</g>
</g>
<!-- Node1&#45;&gt;Node7 -->
<g id="edge8_Node000001_Node000007" class="edge">
<title>Node1&#45;&gt;Node7</title>
<g id="a_edge8_Node000001_Node000007"><a xlink:title=" ">
<path fill="none" stroke="#63b8ff" d="M361.88,-102.52C370.87,-93.18 381.86,-81.75 389.24,-74.09"/>
<polygon fill="#63b8ff" stroke="#63b8ff" points="359.33,-100.12 354.92,-109.75 364.38,-104.97 359.33,-100.12"/>
</a>
</g>
</g>
<!-- Node8 -->
<g id="Node000008" class="node">
<title>Node8</title>
<g id="a_Node000008"><a xlink:href="il2p__encoder_8h.html" target="_top" xlink:title=" ">
<polygon fill="white" stroke="#666666" points="671,-74 592,-74 592,-55 671,-55 671,-74"/>
<text text-anchor="middle" x="631.5" y="-62" font-family="Helvetica,sans-Serif" font-size="10.00">il2p_encoder.h</text>
</a>
</g>
</g>
<!-- Node1&#45;&gt;Node8 -->
<g id="edge9_Node000001_Node000008" class="edge">
<title>Node1&#45;&gt;Node8</title>
<g id="a_edge9_Node000001_Node000008"><a xlink:title=" ">
<path fill="none" stroke="#63b8ff" d="M387.56,-110.86C442.15,-100.71 537.99,-82.89 591.85,-72.87"/>
<polygon fill="#63b8ff" stroke="#63b8ff" points="386.73,-107.46 377.54,-112.73 388.01,-114.34 386.73,-107.46"/>
</a>
</g>
</g>
<!-- Node9 -->
<g id="Node000009" class="node">
<title>Node9</title>
<g id="a_Node000009"><a xlink:href="il2p__encoder__impl_8h.html" target="_top" xlink:title=" ">
<polygon fill="white" stroke="#666666" points="717,-19 614,-19 614,0 717,0 717,-19"/>
<text text-anchor="middle" x="665.5" y="-7" font-family="Helvetica,sans-Serif" font-size="10.00">il2p_encoder_impl.h</text>
</a>
</g>
</g>
<!-- Node1&#45;&gt;Node9 -->
<g id="edge12_Node000001_Node000009" class="edge">
<title>Node1&#45;&gt;Node9</title>
<g id="a_edge12_Node000001_Node000009"><a xlink:title=" ">
<path fill="none" stroke="#63b8ff" d="M387.86,-116C472.99,-110.42 661.47,-95.73 680.5,-74 694.23,-58.32 680.47,-32.38 671.65,-19.02"/>
<polygon fill="#63b8ff" stroke="#63b8ff" points="387.52,-112.51 377.76,-116.65 387.97,-119.5 387.52,-112.51"/>
</a>
</g>
</g>
<!-- Node10 -->
<g id="Node000010" class="node">
<title>Node10</title>
<g id="a_Node000010"><a xlink:href="il2p__reed__solomon_8h.html" target="_top" xlink:title=" ">
<polygon fill="white" stroke="#666666" points="573.5,-74 467.5,-74 467.5,-55 573.5,-55 573.5,-74"/>
<text text-anchor="middle" x="520.5" y="-62" font-family="Helvetica,sans-Serif" font-size="10.00">il2p_reed_solomon.h</text>
</a>
</g>
</g>
<!-- Node1&#45;&gt;Node10 -->
<g id="edge13_Node000001_Node000010" class="edge">
<title>Node1&#45;&gt;Node10</title>
<g id="a_edge13_Node000001_Node000010"><a xlink:title=" ">
<path fill="none" stroke="#63b8ff" d="M384.07,-107.06C416.59,-97.15 462.9,-83.04 492.32,-74.08"/>
<polygon fill="#63b8ff" stroke="#63b8ff" points="383,-103.72 374.46,-109.98 385.04,-110.42 383,-103.72"/>
</a>
</g>
</g>
<!-- Node3&#45;&gt;Node4 -->
<g id="edge3_Node000003_Node000004" class="edge">
<title>Node3&#45;&gt;Node4</title>
<g id="a_edge3_Node000003_Node000004"><a xlink:title=" ">
<path fill="none" stroke="#63b8ff" d="M197.02,-45.53C192.81,-36.6 187.91,-26.22 184.55,-19.09"/>
<polygon fill="#63b8ff" stroke="#63b8ff" points="193.94,-47.2 201.37,-54.75 200.27,-44.21 193.94,-47.2"/>
</a>
</g>
</g>
<!-- Node5 -->
<g id="Node000005" class="node">
<title>Node5</title>
<g id="a_Node000005"><a xlink:href="packet__protocols_8h.html" target="_top" xlink:title=" ">
<polygon fill="white" stroke="#666666" points="371,-19 272,-19 272,0 371,0 371,-19"/>
<text text-anchor="middle" x="321.5" y="-7" font-family="Helvetica,sans-Serif" font-size="10.00">packet_protocols.h</text>
</a>
</g>
</g>
<!-- Node3&#45;&gt;Node5 -->
<g id="edge4_Node000003_Node000005" class="edge">
<title>Node3&#45;&gt;Node5</title>
<g id="a_edge4_Node000003_Node000005"><a xlink:title=" ">
<path fill="none" stroke="#63b8ff" d="M233.37,-50.77C254.77,-40.99 283.74,-27.75 302.52,-19.17"/>
<polygon fill="#63b8ff" stroke="#63b8ff" points="231.78,-47.65 224.14,-54.98 234.69,-54.01 231.78,-47.65"/>
</a>
</g>
</g>
<!-- Node6&#45;&gt;Node5 -->
<g id="edge7_Node000006_Node000005" class="edge">
<title>Node6&#45;&gt;Node5</title>
<g id="a_edge7_Node000006_Node000005"><a xlink:title=" ">
<path fill="none" stroke="#63b8ff" d="M304.98,-45.53C309.19,-36.6 314.09,-26.22 317.45,-19.09"/>
<polygon fill="#63b8ff" stroke="#63b8ff" points="301.73,-44.21 300.63,-54.75 308.06,-47.2 301.73,-44.21"/>
</a>
</g>
</g>
<!-- Node8&#45;&gt;Node5 -->
<g id="edge11_Node000008_Node000005" class="edge">
<title>Node8&#45;&gt;Node5</title>
<g id="a_edge11_Node000008_Node000005"><a xlink:title=" ">
<path fill="none" stroke="#63b8ff" d="M581.69,-54.87C501.94,-41.16 421.41,-27.46 371.06,-18.91"/>
<polygon fill="#63b8ff" stroke="#63b8ff" points="581.47,-58.38 591.92,-56.62 582.66,-51.48 581.47,-58.38"/>
</a>
</g>
</g>
<!-- Node8&#45;&gt;Node9 -->
<g id="edge10_Node000008_Node000009" class="edge">
<title>Node8&#45;&gt;Node9</title>
<g id="a_edge10_Node000008_Node000009"><a xlink:title=" ">
<path fill="none" stroke="#63b8ff" d="M642.66,-46.1C648.47,-37.04 655.32,-26.37 659.99,-19.09"/>
<polygon fill="#63b8ff" stroke="#63b8ff" points="639.57,-44.44 637.11,-54.75 645.46,-48.22 639.57,-44.44"/>
</a>
</g>
</g>
<!-- Node10&#45;&gt;Node5 -->
<g id="edge14_Node000010_Node000005" class="edge">
<title>Node10&#45;&gt;Node5</title>
<g id="a_edge14_Node000010_Node000005"><a xlink:title=" ">
<path fill="none" stroke="#63b8ff" d="M478.49,-52.31C441.25,-42.39 387.66,-28.12 353.72,-19.08"/>
<polygon fill="#63b8ff" stroke="#63b8ff" points="477.96,-55.79 488.53,-54.98 479.76,-49.03 477.96,-55.79"/>
</a>
</g>
</g>
</g>
</svg>
