<?xml version="1.0" encoding="UTF-8" standalone="no"?>
<!DOCTYPE svg PUBLIC "-//W3C//DTD SVG 1.1//EN"
 "http://www.w3.org/Graphics/SVG/1.1/DTD/svg11.dtd">
<!-- Generated by graphviz version 2.43.0 (0)
 -->
<!-- Title: fx25_decoder_impl.h Pages: 1 -->
<svg width="618pt" height="214pt"
 viewBox="0.00 0.00 617.50 214.00" xmlns="http://www.w3.org/2000/svg" xmlns:xlink="http://www.w3.org/1999/xlink">
<g id="graph0" class="graph" transform="scale(1 1) rotate(0) translate(4 210)">
<title>fx25_decoder_impl.h</title>
<!-- Node1 -->
<g id="Node000001" class="node">
<title>Node1</title>
<g id="a_Node000001"><a xlink:title=" ">
<polygon fill="#999999" stroke="#666666" points="228.5,-206 121.5,-206 121.5,-187 228.5,-187 228.5,-206"/>
<text text-anchor="middle" x="175" y="-194" font-family="Helvetica,sans-Serif" font-size="10.00">fx25_decoder_impl.h</text>
</a>
</g>
</g>
<!-- Node2 -->
<g id="Node000002" class="node">
<title>Node2</title>
<g id="a_Node000002"><a xlink:href="common_8h.html" target="_top" xlink:title=" ">
<polygon fill="white" stroke="#666666" points="166.5,-151 35.5,-151 35.5,-121 166.5,-121 166.5,-151"/>
<text text-anchor="start" x="43.5" y="-139" font-family="Helvetica,sans-Serif" font-size="10.00">gnuradio/packet_protocols</text>
<text text-anchor="middle" x="101" y="-128" font-family="Helvetica,sans-Serif" font-size="10.00">/common.h</text>
</a>
</g>
</g>
<!-- Node1&#45;&gt;Node2 -->
<g id="edge1_Node000001_Node000002" class="edge">
<title>Node1&#45;&gt;Node2</title>
<g id="a_edge1_Node000001_Node000002"><a xlink:title=" ">
<path fill="none" stroke="#63b8ff" d="M164.08,-186.87C154.32,-179.15 139.63,-167.54 126.88,-157.46"/>
<polygon fill="#63b8ff" stroke="#63b8ff" points="128.87,-154.57 118.85,-151.11 124.53,-160.06 128.87,-154.57"/>
</a>
</g>
</g>
<!-- Node3 -->
<g id="Node000003" class="node">
<title>Node3</title>
<g id="a_Node000003"><a xlink:title=" ">
<polygon fill="#e0e0e0" stroke="#999999" points="44,-79.5 0,-79.5 0,-60.5 44,-60.5 44,-79.5"/>
<text text-anchor="middle" x="22" y="-67.5" font-family="Helvetica,sans-Serif" font-size="10.00">vector</text>
</a>
</g>
</g>
<!-- Node1&#45;&gt;Node3 -->
<g id="edge12_Node000001_Node000003" class="edge">
<title>Node1&#45;&gt;Node3</title>
<g id="a_edge12_Node000001_Node000003"><a xlink:title=" ">
<path fill="none" stroke="#63b8ff" d="M121.32,-194.25C88.4,-190.4 48.41,-179.57 26,-151 12.42,-133.69 14.1,-107.21 17.36,-89.51"/>
<polygon fill="#63b8ff" stroke="#63b8ff" points="20.82,-90.08 19.53,-79.56 13.98,-88.58 20.82,-90.08"/>
</a>
</g>
</g>
<!-- Node5 -->
<g id="Node000005" class="node">
<title>Node5</title>
<g id="a_Node000005"><a xlink:href="fx25__decoder_8h.html" target="_top" xlink:title=" ">
<polygon fill="white" stroke="#666666" points="315.5,-151 184.5,-151 184.5,-121 315.5,-121 315.5,-151"/>
<text text-anchor="start" x="192.5" y="-139" font-family="Helvetica,sans-Serif" font-size="10.00">gnuradio/packet_protocols</text>
<text text-anchor="middle" x="250" y="-128" font-family="Helvetica,sans-Serif" font-size="10.00">/fx25_decoder.h</text>
</a>
</g>
</g>
<!-- Node1&#45;&gt;Node5 -->
<g id="edge4_Node000001_Node000005" class="edge">
<title>Node1&#45;&gt;Node5</title>
<g id="a_edge4_Node000001_Node000005"><a xlink:title=" ">
<path fill="none" stroke="#63b8ff" d="M186.07,-186.87C195.96,-179.15 210.85,-167.54 223.77,-157.46"/>
<polygon fill="#63b8ff" stroke="#63b8ff" points="226.17,-160.02 231.9,-151.11 221.87,-154.51 226.17,-160.02"/>
</a>
</g>
</g>
<!-- Node9 -->
<g id="Node000009" class="node">
<title>Node9</title>
<g id="a_Node000009"><a xlink:href="fx25__protocol_8h.html" target="_top" xlink:title=" ">
<polygon fill="white" stroke="#666666" points="545.5,-151 414.5,-151 414.5,-121 545.5,-121 545.5,-151"/>
<text text-anchor="start" x="422.5" y="-139" font-family="Helvetica,sans-Serif" font-size="10.00">gnuradio/packet_protocols</text>
<text text-anchor="middle" x="480" y="-128" font-family="Helvetica,sans-Serif" font-size="10.00">/fx25_protocol.h</text>
</a>
</g>
</g>
<!-- Node1&#45;&gt;Node9 -->
<g id="edge8_Node000001_Node000009" class="edge">
<title>Node1&#45;&gt;Node9</title>
<g id="a_edge8_Node000001_Node000009"><a xlink:title=" ">
<path fill="none" stroke="#63b8ff" d="M219.35,-186.99C267.77,-177.71 346.15,-162.67 404.33,-151.51"/>
<polygon fill="#63b8ff" stroke="#63b8ff" points="405.05,-154.94 414.22,-149.62 403.74,-148.06 405.05,-154.94"/>
</a>
</g>
</g>
<!-- Node2&#45;&gt;Node3 -->
<g id="edge2_Node000002_Node000003" class="edge">
<title>Node2&#45;&gt;Node3</title>
<g id="a_edge2_Node000002_Node000003"><a xlink:title=" ">
<path fill="none" stroke="#63b8ff" d="M83.47,-120.8C70.79,-110.53 53.68,-96.67 40.74,-86.18"/>
<polygon fill="#63b8ff" stroke="#63b8ff" points="42.89,-83.42 32.92,-79.84 38.48,-88.86 42.89,-83.42"/>
</a>
</g>
</g>
<!-- Node4 -->
<g id="Node000004" class="node">
<title>Node4</title>
<g id="a_Node000004"><a xlink:title=" ">
<polygon fill="#e0e0e0" stroke="#999999" points="116,-79.5 70,-79.5 70,-60.5 116,-60.5 116,-79.5"/>
<text text-anchor="middle" x="93" y="-67.5" font-family="Helvetica,sans-Serif" font-size="10.00">cstdint</text>
</a>
</g>
</g>
<!-- Node2&#45;&gt;Node4 -->
<g id="edge3_Node000002_Node000004" class="edge">
<title>Node2&#45;&gt;Node4</title>
<g id="a_edge3_Node000002_Node000004"><a xlink:title=" ">
<path fill="none" stroke="#63b8ff" d="M99.22,-120.8C98.09,-111.7 96.6,-99.79 95.36,-89.9"/>
<polygon fill="#63b8ff" stroke="#63b8ff" points="98.82,-89.33 94.11,-79.84 91.87,-90.2 98.82,-89.33"/>
</a>
</g>
</g>
<!-- Node6 -->
<g id="Node000006" class="node">
<title>Node6</title>
<g id="a_Node000006"><a xlink:href="api_8h.html" target="_top" xlink:title=" ">
<polygon fill="white" stroke="#666666" points="265.5,-85 134.5,-85 134.5,-55 265.5,-55 265.5,-85"/>
<text text-anchor="start" x="142.5" y="-73" font-family="Helvetica,sans-Serif" font-size="10.00">gnuradio/packet_protocols</text>
<text text-anchor="middle" x="200" y="-62" font-family="Helvetica,sans-Serif" font-size="10.00">/api.h</text>
</a>
</g>
</g>
<!-- Node5&#45;&gt;Node6 -->
<g id="edge5_Node000005_Node000006" class="edge">
<title>Node5&#45;&gt;Node6</title>
<g id="a_edge5_Node000005_Node000006"><a xlink:title=" ">
<path fill="none" stroke="#63b8ff" d="M238.9,-120.8C232.56,-112.68 224.46,-102.31 217.3,-93.15"/>
<polygon fill="#63b8ff" stroke="#63b8ff" points="219.98,-90.89 211.07,-85.16 214.46,-95.2 219.98,-90.89"/>
</a>
</g>
</g>
<!-- Node8 -->
<g id="Node000008" class="node">
<title>Node8</title>
<g id="a_Node000008"><a xlink:title=" ">
<polygon fill="#e0e0e0" stroke="#999999" points="398,-79.5 284,-79.5 284,-60.5 398,-60.5 398,-79.5"/>
<text text-anchor="middle" x="341" y="-67.5" font-family="Helvetica,sans-Serif" font-size="10.00">gnuradio/sync_block.h</text>
</a>
</g>
</g>
<!-- Node5&#45;&gt;Node8 -->
<g id="edge7_Node000005_Node000008" class="edge">
<title>Node5&#45;&gt;Node8</title>
<g id="a_edge7_Node000005_Node000008"><a xlink:title=" ">
<path fill="none" stroke="#63b8ff" d="M270.2,-120.8C285.03,-110.37 305.11,-96.24 320.11,-85.69"/>
<polygon fill="#63b8ff" stroke="#63b8ff" points="322.52,-88.27 328.69,-79.66 318.5,-82.55 322.52,-88.27"/>
</a>
</g>
</g>
<!-- Node7 -->
<g id="Node000007" class="node">
<title>Node7</title>
<g id="a_Node000007"><a xlink:title=" ">
<polygon fill="#e0e0e0" stroke="#999999" points="252.5,-19 147.5,-19 147.5,0 252.5,0 252.5,-19"/>
<text text-anchor="middle" x="200" y="-7" font-family="Helvetica,sans-Serif" font-size="10.00">gnuradio/attributes.h</text>
</a>
</g>
</g>
<!-- Node6&#45;&gt;Node7 -->
<g id="edge6_Node000006_Node000007" class="edge">
<title>Node6&#45;&gt;Node7</title>
<g id="a_edge6_Node000006_Node000007"><a xlink:title=" ">
<path fill="none" stroke="#63b8ff" d="M200,-54.84C200,-47.21 200,-37.7 200,-29.45"/>
<polygon fill="#63b8ff" stroke="#63b8ff" points="203.5,-29.27 200,-19.27 196.5,-29.27 203.5,-29.27"/>
</a>
</g>
</g>
<!-- Node10 -->
<g id="Node000010" class="node">
<title>Node10</title>
<g id="a_Node000010"><a xlink:title=" ">
<polygon fill="#e0e0e0" stroke="#999999" points="472,-79.5 416,-79.5 416,-60.5 472,-60.5 472,-79.5"/>
<text text-anchor="middle" x="444" y="-67.5" font-family="Helvetica,sans-Serif" font-size="10.00">stdbool.h</text>
</a>
</g>
</g>
<!-- Node9&#45;&gt;Node10 -->
<g id="edge9_Node000009_Node000010" class="edge">
<title>Node9&#45;&gt;Node10</title>
<g id="a_edge9_Node000009_Node000010"><a xlink:title=" ">
<path fill="none" stroke="#63b8ff" d="M472.01,-120.8C466.67,-111.31 459.61,-98.76 453.92,-88.63"/>
<polygon fill="#63b8ff" stroke="#63b8ff" points="456.93,-86.84 448.97,-79.84 450.83,-90.28 456.93,-86.84"/>
</a>
</g>
</g>
<!-- Node11 -->
<g id="Node000011" class="node">
<title>Node11</title>
<g id="a_Node000011"><a xlink:title=" ">
<polygon fill="#e0e0e0" stroke="#999999" points="542,-79.5 490,-79.5 490,-60.5 542,-60.5 542,-79.5"/>
<text text-anchor="middle" x="516" y="-67.5" font-family="Helvetica,sans-Serif" font-size="10.00">stddef.h</text>
</a>
</g>
</g>
<!-- Node9&#45;&gt;Node11 -->
<g id="edge10_Node000009_Node000011" class="edge">
<title>Node9&#45;&gt;Node11</title>
<g id="a_edge10_Node000009_Node000011"><a xlink:title=" ">
<path fill="none" stroke="#63b8ff" d="M487.99,-120.8C493.33,-111.31 500.39,-98.76 506.08,-88.63"/>
<polygon fill="#63b8ff" stroke="#63b8ff" points="509.17,-90.28 511.03,-79.84 503.07,-86.84 509.17,-90.28"/>
</a>
</g>
</g>
<!-- Node12 -->
<g id="Node000012" class="node">
<title>Node12</title>
<g id="a_Node000012"><a xlink:title=" ">
<polygon fill="#e0e0e0" stroke="#999999" points="609.5,-79.5 560.5,-79.5 560.5,-60.5 609.5,-60.5 609.5,-79.5"/>
<text text-anchor="middle" x="585" y="-67.5" font-family="Helvetica,sans-Serif" font-size="10.00">stdint.h</text>
</a>
</g>
</g>
<!-- Node9&#45;&gt;Node12 -->
<g id="edge11_Node000009_Node000012" class="edge">
<title>Node9&#45;&gt;Node12</title>
<g id="a_edge11_Node000009_Node000012"><a xlink:title=" ">
<path fill="none" stroke="#63b8ff" d="M503.04,-120.95C520.56,-110.27 544.56,-95.65 562.06,-84.98"/>
<polygon fill="#63b8ff" stroke="#63b8ff" points="564.31,-87.71 571.03,-79.52 560.67,-81.73 564.31,-87.71"/>
</a>
</g>
</g>
</g>
</svg>
