<?xml version="1.0" encoding="UTF-8" standalone="no"?>
<!DOCTYPE svg PUBLIC "-//W3C//DTD SVG 1.1//EN"
 "http://www.w3.org/Graphics/SVG/1.1/DTD/svg11.dtd">
<!-- Generated by graphviz version 2.43.0 (0)
 -->
<!-- Title: il2p_protocol.h Pages: 1 -->
<svg width="349pt" height="82pt"
 viewBox="0.00 0.00 349.00 82.00" xmlns="http://www.w3.org/2000/svg" xmlns:xlink="http://www.w3.org/1999/xlink">
<g id="graph0" class="graph" transform="scale(1 1) rotate(0) translate(4 78)">
<title>il2p_protocol.h</title>
<!-- Node1 -->
<g id="Node000001" class="node">
<title>Node1</title>
<g id="a_Node000001"><a xlink:title=" ">
<polygon fill="#999999" stroke="#666666" points="212.5,-74 132.5,-74 132.5,-55 212.5,-55 212.5,-74"/>
<text text-anchor="middle" x="172.5" y="-62" font-family="Helvetica,sans-Serif" font-size="10.00">il2p_protocol.h</text>
</a>
</g>
</g>
<!-- Node2 -->
<g id="Node000002" class="node">
<title>Node2</title>
<g id="a_Node000002"><a xlink:href="il2p__decoder__impl_8h.html" target="_top" xlink:title=" ">
<polygon fill="white" stroke="#666666" points="103,-19 0,-19 0,0 103,0 103,-19"/>
<text text-anchor="middle" x="51.5" y="-7" font-family="Helvetica,sans-Serif" font-size="10.00">il2p_decoder_impl.h</text>
</a>
</g>
</g>
<!-- Node1&#45;&gt;Node2 -->
<g id="edge1_Node000001_Node000002" class="edge">
<title>Node1&#45;&gt;Node2</title>
<g id="a_edge1_Node000001_Node000002"><a xlink:title=" ">
<path fill="none" stroke="#63b8ff" d="M143.73,-50.9C121.38,-41.11 90.98,-27.79 71.29,-19.17"/>
<polygon fill="#63b8ff" stroke="#63b8ff" points="142.5,-54.18 153.06,-54.98 145.3,-47.77 142.5,-54.18"/>
</a>
</g>
</g>
<!-- Node3 -->
<g id="Node000003" class="node">
<title>Node3</title>
<g id="a_Node000003"><a xlink:href="il2p__encoder__impl_8h.html" target="_top" xlink:title=" ">
<polygon fill="white" stroke="#666666" points="224,-19 121,-19 121,0 224,0 224,-19"/>
<text text-anchor="middle" x="172.5" y="-7" font-family="Helvetica,sans-Serif" font-size="10.00">il2p_encoder_impl.h</text>
</a>
</g>
</g>
<!-- Node1&#45;&gt;Node3 -->
<g id="edge2_Node000001_Node000003" class="edge">
<title>Node1&#45;&gt;Node3</title>
<g id="a_edge2_Node000001_Node000003"><a xlink:title=" ">
<path fill="none" stroke="#63b8ff" d="M172.5,-44.66C172.5,-35.93 172.5,-25.99 172.5,-19.09"/>
<polygon fill="#63b8ff" stroke="#63b8ff" points="169,-44.75 172.5,-54.75 176,-44.75 169,-44.75"/>
</a>
</g>
</g>
<!-- Node4 -->
<g id="Node000004" class="node">
<title>Node4</title>
<g id="a_Node000004"><a xlink:href="packet__protocols_8h.html" target="_top" xlink:title=" ">
<polygon fill="white" stroke="#666666" points="341,-19 242,-19 242,0 341,0 341,-19"/>
<text text-anchor="middle" x="291.5" y="-7" font-family="Helvetica,sans-Serif" font-size="10.00">packet_protocols.h</text>
</a>
</g>
</g>
<!-- Node1&#45;&gt;Node4 -->
<g id="edge3_Node000001_Node000004" class="edge">
<title>Node1&#45;&gt;Node4</title>
<g id="a_edge3_Node000001_Node000004"><a xlink:title=" ">
<path fill="none" stroke="#63b8ff" d="M200.8,-50.9C222.78,-41.11 252.68,-27.79 272.03,-19.17"/>
<polygon fill="#63b8ff" stroke="#63b8ff" points="199.33,-47.72 191.62,-54.98 202.18,-54.11 199.33,-47.72"/>
</a>
</g>
</g>
</g>
</svg>
