<?xml version="1.0" encoding="UTF-8" standalone="no"?>
<!DOCTYPE svg PUBLIC "-//W3C//DTD SVG 1.1//EN"
 "http://www.w3.org/Graphics/SVG/1.1/DTD/svg11.dtd">
<!-- Generated by graphviz version 2.43.0 (0)
 -->
<!-- Title: il2p_encoder_impl.h Pages: 1 -->
<svg width="667pt" height="214pt"
 viewBox="0.00 0.00 666.50 214.00" xmlns="http://www.w3.org/2000/svg" xmlns:xlink="http://www.w3.org/1999/xlink">
<g id="graph0" class="graph" transform="scale(1 1) rotate(0) translate(4 210)">
<title>il2p_encoder_impl.h</title>
<!-- Node1 -->
<g id="Node000001" class="node">
<title>Node1</title>
<g id="a_Node000001"><a xlink:title=" ">
<polygon fill="#999999" stroke="#666666" points="300.5,-206 197.5,-206 197.5,-187 300.5,-187 300.5,-206"/>
<text text-anchor="middle" x="249" y="-194" font-family="Helvetica,sans-Serif" font-size="10.00">il2p_encoder_impl.h</text>
</a>
</g>
</g>
<!-- Node2 -->
<g id="Node000002" class="node">
<title>Node2</title>
<g id="a_Node000002"><a xlink:href="common_8h.html" target="_top" xlink:title=" ">
<polygon fill="white" stroke="#666666" points="165.5,-85 34.5,-85 34.5,-55 165.5,-55 165.5,-85"/>
<text text-anchor="start" x="42.5" y="-73" font-family="Helvetica,sans-Serif" font-size="10.00">gnuradio/packet_protocols</text>
<text text-anchor="middle" x="100" y="-62" font-family="Helvetica,sans-Serif" font-size="10.00">/common.h</text>
</a>
</g>
</g>
<!-- Node1&#45;&gt;Node2 -->
<g id="edge1_Node000001_Node000002" class="edge">
<title>Node1&#45;&gt;Node2</title>
<g id="a_edge1_Node000001_Node000002"><a xlink:title=" ">
<path fill="none" stroke="#63b8ff" d="M231.4,-186.92C215.59,-178.79 192.13,-165.66 174,-151 152.51,-133.62 131.44,-110.02 117.32,-92.97"/>
<polygon fill="#63b8ff" stroke="#63b8ff" points="120,-90.72 110.97,-85.17 114.58,-95.14 120,-90.72"/>
</a>
</g>
</g>
<!-- Node3 -->
<g id="Node000003" class="node">
<title>Node3</title>
<g id="a_Node000003"><a xlink:title=" ">
<polygon fill="#e0e0e0" stroke="#999999" points="44,-19 0,-19 0,0 44,0 44,-19"/>
<text text-anchor="middle" x="22" y="-7" font-family="Helvetica,sans-Serif" font-size="10.00">vector</text>
</a>
</g>
</g>
<!-- Node1&#45;&gt;Node3 -->
<g id="edge14_Node000001_Node000003" class="edge">
<title>Node1&#45;&gt;Node3</title>
<g id="a_edge14_Node000001_Node000003"><a xlink:title=" ">
<path fill="none" stroke="#63b8ff" d="M199.25,-186.95C145.42,-174.74 62.32,-146.55 25,-85 14.85,-68.25 15.65,-45.28 18,-29.29"/>
<polygon fill="#63b8ff" stroke="#63b8ff" points="21.51,-29.54 19.85,-19.07 14.62,-28.29 21.51,-29.54"/>
</a>
</g>
</g>
<!-- Node5 -->
<g id="Node000005" class="node">
<title>Node5</title>
<g id="a_Node000005"><a xlink:href="il2p__encoder_8h.html" target="_top" xlink:title=" ">
<polygon fill="white" stroke="#666666" points="314.5,-151 183.5,-151 183.5,-121 314.5,-121 314.5,-151"/>
<text text-anchor="start" x="191.5" y="-139" font-family="Helvetica,sans-Serif" font-size="10.00">gnuradio/packet_protocols</text>
<text text-anchor="middle" x="249" y="-128" font-family="Helvetica,sans-Serif" font-size="10.00">/il2p_encoder.h</text>
</a>
</g>
</g>
<!-- Node1&#45;&gt;Node5 -->
<g id="edge4_Node000001_Node000005" class="edge">
<title>Node1&#45;&gt;Node5</title>
<g id="a_edge4_Node000001_Node000005"><a xlink:title=" ">
<path fill="none" stroke="#63b8ff" d="M249,-186.87C249,-180.11 249,-170.35 249,-161.26"/>
<polygon fill="#63b8ff" stroke="#63b8ff" points="252.5,-161.11 249,-151.11 245.5,-161.11 252.5,-161.11"/>
</a>
</g>
</g>
<!-- Node9 -->
<g id="Node000009" class="node">
<title>Node9</title>
<g id="a_Node000009"><a xlink:href="il2p__protocol_8h.html" target="_top" xlink:title=" ">
<polygon fill="white" stroke="#666666" points="558.5,-151 427.5,-151 427.5,-121 558.5,-121 558.5,-151"/>
<text text-anchor="start" x="435.5" y="-139" font-family="Helvetica,sans-Serif" font-size="10.00">gnuradio/packet_protocols</text>
<text text-anchor="middle" x="493" y="-128" font-family="Helvetica,sans-Serif" font-size="10.00">/il2p_protocol.h</text>
</a>
</g>
</g>
<!-- Node1&#45;&gt;Node9 -->
<g id="edge9_Node000001_Node000009" class="edge">
<title>Node1&#45;&gt;Node9</title>
<g id="a_edge9_Node000001_Node000009"><a xlink:title=" ">
<path fill="none" stroke="#63b8ff" d="M284.48,-186.99C321.05,-178.23 379,-164.33 424.53,-153.42"/>
<polygon fill="#63b8ff" stroke="#63b8ff" points="425.43,-156.8 434.34,-151.06 423.8,-149.99 425.43,-156.8"/>
</a>
</g>
</g>
<!-- Node13 -->
<g id="Node000013" class="node">
<title>Node13</title>
<g id="a_Node000013"><a xlink:title=" ">
<polygon fill="#e0e0e0" stroke="#999999" points="617.5,-145.5 576.5,-145.5 576.5,-126.5 617.5,-126.5 617.5,-145.5"/>
<text text-anchor="middle" x="597" y="-133.5" font-family="Helvetica,sans-Serif" font-size="10.00">string</text>
</a>
</g>
</g>
<!-- Node1&#45;&gt;Node13 -->
<g id="edge13_Node000001_Node000013" class="edge">
<title>Node1&#45;&gt;Node13</title>
<g id="a_edge13_Node000001_Node000013"><a xlink:title=" ">
<path fill="none" stroke="#63b8ff" d="M300.6,-193.23C364.57,-189.3 476.35,-178.77 568,-151 569.26,-150.62 570.54,-150.19 571.82,-149.72"/>
<polygon fill="#63b8ff" stroke="#63b8ff" points="573.58,-152.77 581.4,-145.62 570.83,-146.33 573.58,-152.77"/>
</a>
</g>
</g>
<!-- Node2&#45;&gt;Node3 -->
<g id="edge2_Node000002_Node000003" class="edge">
<title>Node2&#45;&gt;Node3</title>
<g id="a_edge2_Node000002_Node000003"><a xlink:title=" ">
<path fill="none" stroke="#63b8ff" d="M81.12,-54.84C69.22,-45.91 53.88,-34.41 41.8,-25.35"/>
<polygon fill="#63b8ff" stroke="#63b8ff" points="43.79,-22.47 33.69,-19.27 39.59,-28.07 43.79,-22.47"/>
</a>
</g>
</g>
<!-- Node4 -->
<g id="Node000004" class="node">
<title>Node4</title>
<g id="a_Node000004"><a xlink:title=" ">
<polygon fill="#e0e0e0" stroke="#999999" points="123,-19 77,-19 77,0 123,0 123,-19"/>
<text text-anchor="middle" x="100" y="-7" font-family="Helvetica,sans-Serif" font-size="10.00">cstdint</text>
</a>
</g>
</g>
<!-- Node2&#45;&gt;Node4 -->
<g id="edge3_Node000002_Node000004" class="edge">
<title>Node2&#45;&gt;Node4</title>
<g id="a_edge3_Node000002_Node000004"><a xlink:title=" ">
<path fill="none" stroke="#63b8ff" d="M100,-54.84C100,-47.21 100,-37.7 100,-29.45"/>
<polygon fill="#63b8ff" stroke="#63b8ff" points="103.5,-29.27 100,-19.27 96.5,-29.27 103.5,-29.27"/>
</a>
</g>
</g>
<!-- Node5&#45;&gt;Node2 -->
<g id="edge7_Node000005_Node000002" class="edge">
<title>Node5&#45;&gt;Node2</title>
<g id="a_edge7_Node000005_Node000002"><a xlink:title=" ">
<path fill="none" stroke="#63b8ff" d="M216.3,-120.95C194.47,-111.58 165.55,-99.16 142.01,-89.05"/>
<polygon fill="#63b8ff" stroke="#63b8ff" points="143.19,-85.74 132.62,-85.01 140.43,-92.17 143.19,-85.74"/>
</a>
</g>
</g>
<!-- Node6 -->
<g id="Node000006" class="node">
<title>Node6</title>
<g id="a_Node000006"><a xlink:href="api_8h.html" target="_top" xlink:title=" ">
<polygon fill="white" stroke="#666666" points="314.5,-85 183.5,-85 183.5,-55 314.5,-55 314.5,-85"/>
<text text-anchor="start" x="191.5" y="-73" font-family="Helvetica,sans-Serif" font-size="10.00">gnuradio/packet_protocols</text>
<text text-anchor="middle" x="249" y="-62" font-family="Helvetica,sans-Serif" font-size="10.00">/api.h</text>
</a>
</g>
</g>
<!-- Node5&#45;&gt;Node6 -->
<g id="edge5_Node000005_Node000006" class="edge">
<title>Node5&#45;&gt;Node6</title>
<g id="a_edge5_Node000005_Node000006"><a xlink:title=" ">
<path fill="none" stroke="#63b8ff" d="M249,-120.8C249,-113.34 249,-103.99 249,-95.41"/>
<polygon fill="#63b8ff" stroke="#63b8ff" points="252.5,-95.16 249,-85.16 245.5,-95.16 252.5,-95.16"/>
</a>
</g>
</g>
<!-- Node8 -->
<g id="Node000008" class="node">
<title>Node8</title>
<g id="a_Node000008"><a xlink:title=" ">
<polygon fill="#e0e0e0" stroke="#999999" points="447,-79.5 333,-79.5 333,-60.5 447,-60.5 447,-79.5"/>
<text text-anchor="middle" x="390" y="-67.5" font-family="Helvetica,sans-Serif" font-size="10.00">gnuradio/sync_block.h</text>
</a>
</g>
</g>
<!-- Node5&#45;&gt;Node8 -->
<g id="edge8_Node000005_Node000008" class="edge">
<title>Node5&#45;&gt;Node8</title>
<g id="a_edge8_Node000005_Node000008"><a xlink:title=" ">
<path fill="none" stroke="#63b8ff" d="M279.94,-120.95C304.45,-109.83 338.39,-94.42 362.08,-83.67"/>
<polygon fill="#63b8ff" stroke="#63b8ff" points="363.58,-86.84 371.24,-79.52 360.68,-80.46 363.58,-86.84"/>
</a>
</g>
</g>
<!-- Node7 -->
<g id="Node000007" class="node">
<title>Node7</title>
<g id="a_Node000007"><a xlink:title=" ">
<polygon fill="#e0e0e0" stroke="#999999" points="301.5,-19 196.5,-19 196.5,0 301.5,0 301.5,-19"/>
<text text-anchor="middle" x="249" y="-7" font-family="Helvetica,sans-Serif" font-size="10.00">gnuradio/attributes.h</text>
</a>
</g>
</g>
<!-- Node6&#45;&gt;Node7 -->
<g id="edge6_Node000006_Node000007" class="edge">
<title>Node6&#45;&gt;Node7</title>
<g id="a_edge6_Node000006_Node000007"><a xlink:title=" ">
<path fill="none" stroke="#63b8ff" d="M249,-54.84C249,-47.21 249,-37.7 249,-29.45"/>
<polygon fill="#63b8ff" stroke="#63b8ff" points="252.5,-29.27 249,-19.27 245.5,-29.27 252.5,-29.27"/>
</a>
</g>
</g>
<!-- Node10 -->
<g id="Node000010" class="node">
<title>Node10</title>
<g id="a_Node000010"><a xlink:title=" ">
<polygon fill="#e0e0e0" stroke="#999999" points="521,-79.5 465,-79.5 465,-60.5 521,-60.5 521,-79.5"/>
<text text-anchor="middle" x="493" y="-67.5" font-family="Helvetica,sans-Serif" font-size="10.00">stdbool.h</text>
</a>
</g>
</g>
<!-- Node9&#45;&gt;Node10 -->
<g id="edge10_Node000009_Node000010" class="edge">
<title>Node9&#45;&gt;Node10</title>
<g id="a_edge10_Node000009_Node000010"><a xlink:title=" ">
<path fill="none" stroke="#63b8ff" d="M493,-120.8C493,-111.7 493,-99.79 493,-89.9"/>
<polygon fill="#63b8ff" stroke="#63b8ff" points="496.5,-89.84 493,-79.84 489.5,-89.84 496.5,-89.84"/>
</a>
</g>
</g>
<!-- Node11 -->
<g id="Node000011" class="node">
<title>Node11</title>
<g id="a_Node000011"><a xlink:title=" ">
<polygon fill="#e0e0e0" stroke="#999999" points="591,-79.5 539,-79.5 539,-60.5 591,-60.5 591,-79.5"/>
<text text-anchor="middle" x="565" y="-67.5" font-family="Helvetica,sans-Serif" font-size="10.00">stddef.h</text>
</a>
</g>
</g>
<!-- Node9&#45;&gt;Node11 -->
<g id="edge11_Node000009_Node000011" class="edge">
<title>Node9&#45;&gt;Node11</title>
<g id="a_edge11_Node000009_Node000011"><a xlink:title=" ">
<path fill="none" stroke="#63b8ff" d="M508.98,-120.8C520.31,-110.72 535.53,-97.19 547.25,-86.78"/>
<polygon fill="#63b8ff" stroke="#63b8ff" points="549.9,-89.1 555.05,-79.84 545.25,-83.87 549.9,-89.1"/>
</a>
</g>
</g>
<!-- Node12 -->
<g id="Node000012" class="node">
<title>Node12</title>
<g id="a_Node000012"><a xlink:title=" ">
<polygon fill="#e0e0e0" stroke="#999999" points="658.5,-79.5 609.5,-79.5 609.5,-60.5 658.5,-60.5 658.5,-79.5"/>
<text text-anchor="middle" x="634" y="-67.5" font-family="Helvetica,sans-Serif" font-size="10.00">stdint.h</text>
</a>
</g>
</g>
<!-- Node9&#45;&gt;Node12 -->
<g id="edge12_Node000009_Node000012" class="edge">
<title>Node9&#45;&gt;Node12</title>
<g id="a_edge12_Node000009_Node000012"><a xlink:title=" ">
<path fill="none" stroke="#63b8ff" d="M523.94,-120.95C548.45,-109.83 582.39,-94.42 606.08,-83.67"/>
<polygon fill="#63b8ff" stroke="#63b8ff" points="607.58,-86.84 615.24,-79.52 604.68,-80.46 607.58,-86.84"/>
</a>
</g>
</g>
</g>
</svg>
