<?xml version="1.0" encoding="UTF-8" standalone="no"?>
<!DOCTYPE svg PUBLIC "-//W3C//DTD SVG 1.1//EN"
 "http://www.w3.org/Graphics/SVG/1.1/DTD/svg11.dtd">
<!-- Generated by graphviz version 2.43.0 (0)
 -->
<!-- Title: il2p_decoder_impl.h Pages: 1 -->
<svg width="610pt" height="214pt"
 viewBox="0.00 0.00 609.50 214.00" xmlns="http://www.w3.org/2000/svg" xmlns:xlink="http://www.w3.org/1999/xlink">
<g id="graph0" class="graph" transform="scale(1 1) rotate(0) translate(4 210)">
<title>il2p_decoder_impl.h</title>
<!-- Node1 -->
<g id="Node000001" class="node">
<title>Node1</title>
<g id="a_Node000001"><a xlink:title=" ">
<polygon fill="#999999" stroke="#666666" points="327.5,-206 224.5,-206 224.5,-187 327.5,-187 327.5,-206"/>
<text text-anchor="middle" x="276" y="-194" font-family="Helvetica,sans-Serif" font-size="10.00">il2p_decoder_impl.h</text>
</a>
</g>
</g>
<!-- Node2 -->
<g id="Node000002" class="node">
<title>Node2</title>
<g id="a_Node000002"><a xlink:href="common_8h.html" target="_top" xlink:title=" ">
<polygon fill="white" stroke="#666666" points="181.5,-151 50.5,-151 50.5,-121 181.5,-121 181.5,-151"/>
<text text-anchor="start" x="58.5" y="-139" font-family="Helvetica,sans-Serif" font-size="10.00">gnuradio/packet_protocols</text>
<text text-anchor="middle" x="116" y="-128" font-family="Helvetica,sans-Serif" font-size="10.00">/common.h</text>
</a>
</g>
</g>
<!-- Node1&#45;&gt;Node2 -->
<g id="edge1_Node000001_Node000002" class="edge">
<title>Node1&#45;&gt;Node2</title>
<g id="a_edge1_Node000001_Node000002"><a xlink:title=" ">
<path fill="none" stroke="#63b8ff" d="M252.73,-186.99C229.61,-178.54 193.45,-165.32 164.12,-154.59"/>
<polygon fill="#63b8ff" stroke="#63b8ff" points="165.06,-151.21 154.47,-151.06 162.66,-157.79 165.06,-151.21"/>
</a>
</g>
</g>
<!-- Node3 -->
<g id="Node000003" class="node">
<title>Node3</title>
<g id="a_Node000003"><a xlink:title=" ">
<polygon fill="#e0e0e0" stroke="#999999" points="44,-79.5 0,-79.5 0,-60.5 44,-60.5 44,-79.5"/>
<text text-anchor="middle" x="22" y="-67.5" font-family="Helvetica,sans-Serif" font-size="10.00">vector</text>
</a>
</g>
</g>
<!-- Node1&#45;&gt;Node3 -->
<g id="edge13_Node000001_Node000003" class="edge">
<title>Node1&#45;&gt;Node3</title>
<g id="a_edge13_Node000001_Node000003"><a xlink:title=" ">
<path fill="none" stroke="#63b8ff" d="M224.24,-192.17C163.18,-187.17 66.71,-175.56 41,-151 24.59,-135.32 21.23,-108.26 21.05,-90"/>
<polygon fill="#63b8ff" stroke="#63b8ff" points="24.55,-90.02 21.25,-79.95 17.55,-89.88 24.55,-90.02"/>
</a>
</g>
</g>
<!-- Node5 -->
<g id="Node000005" class="node">
<title>Node5</title>
<g id="a_Node000005"><a xlink:href="il2p__decoder_8h.html" target="_top" xlink:title=" ">
<polygon fill="white" stroke="#666666" points="341.5,-151 210.5,-151 210.5,-121 341.5,-121 341.5,-151"/>
<text text-anchor="start" x="218.5" y="-139" font-family="Helvetica,sans-Serif" font-size="10.00">gnuradio/packet_protocols</text>
<text text-anchor="middle" x="276" y="-128" font-family="Helvetica,sans-Serif" font-size="10.00">/il2p_decoder.h</text>
</a>
</g>
</g>
<!-- Node1&#45;&gt;Node5 -->
<g id="edge4_Node000001_Node000005" class="edge">
<title>Node1&#45;&gt;Node5</title>
<g id="a_edge4_Node000001_Node000005"><a xlink:title=" ">
<path fill="none" stroke="#63b8ff" d="M276,-186.87C276,-180.11 276,-170.35 276,-161.26"/>
<polygon fill="#63b8ff" stroke="#63b8ff" points="279.5,-161.11 276,-151.11 272.5,-161.11 279.5,-161.11"/>
</a>
</g>
</g>
<!-- Node9 -->
<g id="Node000009" class="node">
<title>Node9</title>
<g id="a_Node000009"><a xlink:href="il2p__protocol_8h.html" target="_top" xlink:title=" ">
<polygon fill="white" stroke="#666666" points="501.5,-151 370.5,-151 370.5,-121 501.5,-121 501.5,-151"/>
<text text-anchor="start" x="378.5" y="-139" font-family="Helvetica,sans-Serif" font-size="10.00">gnuradio/packet_protocols</text>
<text text-anchor="middle" x="436" y="-128" font-family="Helvetica,sans-Serif" font-size="10.00">/il2p_protocol.h</text>
</a>
</g>
</g>
<!-- Node1&#45;&gt;Node9 -->
<g id="edge8_Node000001_Node000009" class="edge">
<title>Node1&#45;&gt;Node9</title>
<g id="a_edge8_Node000001_Node000009"><a xlink:title=" ">
<path fill="none" stroke="#63b8ff" d="M299.27,-186.99C322.39,-178.54 358.55,-165.32 387.88,-154.59"/>
<polygon fill="#63b8ff" stroke="#63b8ff" points="389.34,-157.79 397.53,-151.06 386.94,-151.21 389.34,-157.79"/>
</a>
</g>
</g>
<!-- Node13 -->
<g id="Node000013" class="node">
<title>Node13</title>
<g id="a_Node000013"><a xlink:title=" ">
<polygon fill="#e0e0e0" stroke="#999999" points="560.5,-145.5 519.5,-145.5 519.5,-126.5 560.5,-126.5 560.5,-145.5"/>
<text text-anchor="middle" x="540" y="-133.5" font-family="Helvetica,sans-Serif" font-size="10.00">string</text>
</a>
</g>
</g>
<!-- Node1&#45;&gt;Node13 -->
<g id="edge12_Node000001_Node000013" class="edge">
<title>Node1&#45;&gt;Node13</title>
<g id="a_edge12_Node000001_Node000013"><a xlink:title=" ">
<path fill="none" stroke="#63b8ff" d="M327.86,-189.66C376.15,-183.29 449.68,-171.22 511,-151 512.22,-150.6 513.46,-150.15 514.71,-149.68"/>
<polygon fill="#63b8ff" stroke="#63b8ff" points="516.27,-152.81 524.05,-145.62 513.49,-146.39 516.27,-152.81"/>
</a>
</g>
</g>
<!-- Node2&#45;&gt;Node3 -->
<g id="edge2_Node000002_Node000003" class="edge">
<title>Node2&#45;&gt;Node3</title>
<g id="a_edge2_Node000002_Node000003"><a xlink:title=" ">
<path fill="none" stroke="#63b8ff" d="M95.14,-120.8C79.68,-110.27 58.68,-95.97 43.15,-85.4"/>
<polygon fill="#63b8ff" stroke="#63b8ff" points="44.95,-82.39 34.72,-79.66 41.01,-88.18 44.95,-82.39"/>
</a>
</g>
</g>
<!-- Node4 -->
<g id="Node000004" class="node">
<title>Node4</title>
<g id="a_Node000004"><a xlink:title=" ">
<polygon fill="#e0e0e0" stroke="#999999" points="108,-79.5 62,-79.5 62,-60.5 108,-60.5 108,-79.5"/>
<text text-anchor="middle" x="85" y="-67.5" font-family="Helvetica,sans-Serif" font-size="10.00">cstdint</text>
</a>
</g>
</g>
<!-- Node2&#45;&gt;Node4 -->
<g id="edge3_Node000002_Node000004" class="edge">
<title>Node2&#45;&gt;Node4</title>
<g id="a_edge3_Node000002_Node000004"><a xlink:title=" ">
<path fill="none" stroke="#63b8ff" d="M109.12,-120.8C104.57,-111.41 98.57,-99.02 93.69,-88.95"/>
<polygon fill="#63b8ff" stroke="#63b8ff" points="96.79,-87.32 89.28,-79.84 90.49,-90.37 96.79,-87.32"/>
</a>
</g>
</g>
<!-- Node6 -->
<g id="Node000006" class="node">
<title>Node6</title>
<g id="a_Node000006"><a xlink:href="api_8h.html" target="_top" xlink:title=" ">
<polygon fill="white" stroke="#666666" points="257.5,-85 126.5,-85 126.5,-55 257.5,-55 257.5,-85"/>
<text text-anchor="start" x="134.5" y="-73" font-family="Helvetica,sans-Serif" font-size="10.00">gnuradio/packet_protocols</text>
<text text-anchor="middle" x="192" y="-62" font-family="Helvetica,sans-Serif" font-size="10.00">/api.h</text>
</a>
</g>
</g>
<!-- Node5&#45;&gt;Node6 -->
<g id="edge5_Node000005_Node000006" class="edge">
<title>Node5&#45;&gt;Node6</title>
<g id="a_edge5_Node000005_Node000006"><a xlink:title=" ">
<path fill="none" stroke="#63b8ff" d="M257.36,-120.8C246.05,-112.18 231.42,-101.04 218.88,-91.48"/>
<polygon fill="#63b8ff" stroke="#63b8ff" points="220.67,-88.44 210.59,-85.16 216.42,-94.01 220.67,-88.44"/>
</a>
</g>
</g>
<!-- Node8 -->
<g id="Node000008" class="node">
<title>Node8</title>
<g id="a_Node000008"><a xlink:title=" ">
<polygon fill="#e0e0e0" stroke="#999999" points="390,-79.5 276,-79.5 276,-60.5 390,-60.5 390,-79.5"/>
<text text-anchor="middle" x="333" y="-67.5" font-family="Helvetica,sans-Serif" font-size="10.00">gnuradio/sync_block.h</text>
</a>
</g>
</g>
<!-- Node5&#45;&gt;Node8 -->
<g id="edge7_Node000005_Node000008" class="edge">
<title>Node5&#45;&gt;Node8</title>
<g id="a_edge7_Node000005_Node000008"><a xlink:title=" ">
<path fill="none" stroke="#63b8ff" d="M288.65,-120.8C297.45,-110.92 309.2,-97.72 318.4,-87.39"/>
<polygon fill="#63b8ff" stroke="#63b8ff" points="321.09,-89.64 325.12,-79.84 315.86,-84.98 321.09,-89.64"/>
</a>
</g>
</g>
<!-- Node7 -->
<g id="Node000007" class="node">
<title>Node7</title>
<g id="a_Node000007"><a xlink:title=" ">
<polygon fill="#e0e0e0" stroke="#999999" points="244.5,-19 139.5,-19 139.5,0 244.5,0 244.5,-19"/>
<text text-anchor="middle" x="192" y="-7" font-family="Helvetica,sans-Serif" font-size="10.00">gnuradio/attributes.h</text>
</a>
</g>
</g>
<!-- Node6&#45;&gt;Node7 -->
<g id="edge6_Node000006_Node000007" class="edge">
<title>Node6&#45;&gt;Node7</title>
<g id="a_edge6_Node000006_Node000007"><a xlink:title=" ">
<path fill="none" stroke="#63b8ff" d="M192,-54.84C192,-47.21 192,-37.7 192,-29.45"/>
<polygon fill="#63b8ff" stroke="#63b8ff" points="195.5,-29.27 192,-19.27 188.5,-29.27 195.5,-29.27"/>
</a>
</g>
</g>
<!-- Node10 -->
<g id="Node000010" class="node">
<title>Node10</title>
<g id="a_Node000010"><a xlink:title=" ">
<polygon fill="#e0e0e0" stroke="#999999" points="464,-79.5 408,-79.5 408,-60.5 464,-60.5 464,-79.5"/>
<text text-anchor="middle" x="436" y="-67.5" font-family="Helvetica,sans-Serif" font-size="10.00">stdbool.h</text>
</a>
</g>
</g>
<!-- Node9&#45;&gt;Node10 -->
<g id="edge9_Node000009_Node000010" class="edge">
<title>Node9&#45;&gt;Node10</title>
<g id="a_edge9_Node000009_Node000010"><a xlink:title=" ">
<path fill="none" stroke="#63b8ff" d="M436,-120.8C436,-111.7 436,-99.79 436,-89.9"/>
<polygon fill="#63b8ff" stroke="#63b8ff" points="439.5,-89.84 436,-79.84 432.5,-89.84 439.5,-89.84"/>
</a>
</g>
</g>
<!-- Node11 -->
<g id="Node000011" class="node">
<title>Node11</title>
<g id="a_Node000011"><a xlink:title=" ">
<polygon fill="#e0e0e0" stroke="#999999" points="534,-79.5 482,-79.5 482,-60.5 534,-60.5 534,-79.5"/>
<text text-anchor="middle" x="508" y="-67.5" font-family="Helvetica,sans-Serif" font-size="10.00">stddef.h</text>
</a>
</g>
</g>
<!-- Node9&#45;&gt;Node11 -->
<g id="edge10_Node000009_Node000011" class="edge">
<title>Node9&#45;&gt;Node11</title>
<g id="a_edge10_Node000009_Node000011"><a xlink:title=" ">
<path fill="none" stroke="#63b8ff" d="M451.98,-120.8C463.31,-110.72 478.53,-97.19 490.25,-86.78"/>
<polygon fill="#63b8ff" stroke="#63b8ff" points="492.9,-89.1 498.05,-79.84 488.25,-83.87 492.9,-89.1"/>
</a>
</g>
</g>
<!-- Node12 -->
<g id="Node000012" class="node">
<title>Node12</title>
<g id="a_Node000012"><a xlink:title=" ">
<polygon fill="#e0e0e0" stroke="#999999" points="601.5,-79.5 552.5,-79.5 552.5,-60.5 601.5,-60.5 601.5,-79.5"/>
<text text-anchor="middle" x="577" y="-67.5" font-family="Helvetica,sans-Serif" font-size="10.00">stdint.h</text>
</a>
</g>
</g>
<!-- Node9&#45;&gt;Node12 -->
<g id="edge11_Node000009_Node000012" class="edge">
<title>Node9&#45;&gt;Node12</title>
<g id="a_edge11_Node000009_Node000012"><a xlink:title=" ">
<path fill="none" stroke="#63b8ff" d="M466.94,-120.95C491.45,-109.83 525.39,-94.42 549.08,-83.67"/>
<polygon fill="#63b8ff" stroke="#63b8ff" points="550.58,-86.84 558.24,-79.52 547.68,-80.46 550.58,-86.84"/>
</a>
</g>
</g>
</g>
</svg>
