<?xml version="1.0" encoding="UTF-8" standalone="no"?>
<!DOCTYPE svg PUBLIC "-//W3C//DTD SVG 1.1//EN"
 "http://www.w3.org/Graphics/SVG/1.1/DTD/svg11.dtd">
<!-- Generated by graphviz version 2.43.0 (0)
 -->
<!-- Title: Graphical Class Hierarchy Pages: 1 -->
<svg width="398pt" height="38pt"
 viewBox="0.00 0.00 398.00 38.00" xmlns="http://www.w3.org/2000/svg" xmlns:xlink="http://www.w3.org/1999/xlink">
<g id="graph0" class="graph" transform="scale(1 1) rotate(0) translate(4 34)">
<title>Graphical Class Hierarchy</title>
<!-- Node0 -->
<g id="Node000000" class="node">
<title>Node0</title>
<g id="a_Node000000"><a xlink:title=" ">
<polygon fill="#e0e0e0" stroke="#999999" points="80,-24.5 0,-24.5 0,-5.5 80,-5.5 80,-24.5"/>
<text text-anchor="middle" x="40" y="-12.5" font-family="Helvetica,sans-Serif" font-size="10.00">gr::hier_block2</text>
</a>
</g>
</g>
<!-- Node1 -->
<g id="Node000001" class="node">
<title>Node1</title>
<g id="a_Node000001"><a xlink:href="classgr_1_1packet__protocols_1_1adaptive__modulator.html" target="_top" xlink:title="Adaptive Modulator.">
<polygon fill="white" stroke="#666666" points="223,-30 116,-30 116,0 223,0 223,-30"/>
<text text-anchor="start" x="124" y="-18" font-family="Helvetica,sans-Serif" font-size="10.00">gr::packet_protocols</text>
<text text-anchor="middle" x="169.5" y="-7" font-family="Helvetica,sans-Serif" font-size="10.00">::adaptive_modulator</text>
</a>
</g>
</g>
<!-- Node0&#45;&gt;Node1 -->
<g id="edge1_Node000000_Node000001" class="edge">
<title>Node0&#45;&gt;Node1</title>
<g id="a_edge1_Node000000_Node000001"><a xlink:title=" ">
<path fill="none" stroke="#63b8ff" d="M90.33,-15C98.73,-15 107.48,-15 115.96,-15"/>
<polygon fill="#63b8ff" stroke="#63b8ff" points="90.29,-11.5 80.29,-15 90.29,-18.5 90.29,-11.5"/>
</a>
</g>
</g>
<!-- Node2 -->
<g id="Node000002" class="node">
<title>Node2</title>
<g id="a_Node000002"><a xlink:href="classgr_1_1packet__protocols_1_1adaptive__modulator__impl.html" target="_top" xlink:title=" ">
<polygon fill="white" stroke="#666666" points="390,-30 259,-30 259,0 390,0 390,-30"/>
<text text-anchor="start" x="267" y="-18" font-family="Helvetica,sans-Serif" font-size="10.00">gr::packet_protocols</text>
<text text-anchor="middle" x="324.5" y="-7" font-family="Helvetica,sans-Serif" font-size="10.00">::adaptive_modulator_impl</text>
</a>
</g>
</g>
<!-- Node1&#45;&gt;Node2 -->
<g id="edge2_Node000001_Node000002" class="edge">
<title>Node1&#45;&gt;Node2</title>
<g id="a_edge2_Node000001_Node000002"><a xlink:title=" ">
<path fill="none" stroke="#63b8ff" d="M233.29,-15C241.73,-15 250.39,-15 258.85,-15"/>
<polygon fill="#63b8ff" stroke="#63b8ff" points="233.15,-11.5 223.15,-15 233.15,-18.5 233.15,-11.5"/>
</a>
</g>
</g>
</g>
</svg>
