<?xml version="1.0" encoding="UTF-8" standalone="no"?>
<!DOCTYPE svg PUBLIC "-//W3C//DTD SVG 1.1//EN"
 "http://www.w3.org/Graphics/SVG/1.1/DTD/svg11.dtd">
<!-- Generated by graphviz version 2.43.0 (0)
 -->
<!-- Title: Graphical Class Hierarchy Pages: 1 -->
<svg width="428pt" height="566pt"
 viewBox="0.00 0.00 428.00 566.00" xmlns="http://www.w3.org/2000/svg" xmlns:xlink="http://www.w3.org/1999/xlink">
<g id="graph0" class="graph" transform="scale(1 1) rotate(0) translate(4 562)">
<title>Graphical Class Hierarchy</title>
<!-- Node0 -->
<g id="Node000000" class="node">
<title>Node0</title>
<g id="a_Node000000"><a xlink:title=" ">
<polygon fill="#e0e0e0" stroke="#999999" points="80,-288.5 0,-288.5 0,-269.5 80,-269.5 80,-288.5"/>
<text text-anchor="middle" x="40" y="-276.5" font-family="Helvetica,sans-Serif" font-size="10.00">gr::sync_block</text>
</a>
</g>
</g>
<!-- Node1 -->
<g id="Node000001" class="node">
<title>Node1</title>
<g id="a_Node000001"><a xlink:href="classgr_1_1packet__protocols_1_1adaptive__rate__control.html" target="_top" xlink:title="Adaptive Rate Control.">
<polygon fill="white" stroke="#666666" points="235,-558 119,-558 119,-528 235,-528 235,-558"/>
<text text-anchor="start" x="127" y="-546" font-family="Helvetica,sans-Serif" font-size="10.00">gr::packet_protocols</text>
<text text-anchor="middle" x="177" y="-535" font-family="Helvetica,sans-Serif" font-size="10.00">::adaptive_rate_control</text>
</a>
</g>
</g>
<!-- Node0&#45;&gt;Node1 -->
<g id="edge3_Node000000_Node000001" class="edge">
<title>Node0&#45;&gt;Node1</title>
<g id="a_edge3_Node000000_Node000001"><a xlink:title=" ">
<path fill="none" stroke="#63b8ff" d="M41.66,-298.86C44.22,-343.88 56.55,-454.74 116,-519 119.2,-522.46 122.97,-525.43 127.02,-527.98"/>
<polygon fill="#63b8ff" stroke="#63b8ff" points="45.15,-298.51 41.19,-288.68 38.16,-298.83 45.15,-298.51"/>
</a>
</g>
</g>
<!-- Node3 -->
<g id="Node000003" class="node">
<title>Node3</title>
<g id="a_Node000003"><a xlink:href="classgr_1_1packet__protocols_1_1ax25__decoder.html" target="_top" xlink:title="AX.25 Decoder.">
<polygon fill="white" stroke="#666666" points="229.5,-510 124.5,-510 124.5,-480 229.5,-480 229.5,-510"/>
<text text-anchor="start" x="132.5" y="-498" font-family="Helvetica,sans-Serif" font-size="10.00">gr::packet_protocols</text>
<text text-anchor="middle" x="177" y="-487" font-family="Helvetica,sans-Serif" font-size="10.00">::ax25_decoder</text>
</a>
</g>
</g>
<!-- Node0&#45;&gt;Node3 -->
<g id="edge5_Node000000_Node000003" class="edge">
<title>Node0&#45;&gt;Node3</title>
<g id="a_edge5_Node000000_Node000003"><a xlink:title=" ">
<path fill="none" stroke="#63b8ff" d="M43.55,-299.23C49.43,-337.71 67.35,-421.96 116,-471 119.4,-474.43 123.35,-477.38 127.57,-479.92"/>
<polygon fill="#63b8ff" stroke="#63b8ff" points="46.95,-298.27 42.09,-288.85 40.02,-299.24 46.95,-298.27"/>
</a>
</g>
</g>
<!-- Node5 -->
<g id="Node000005" class="node">
<title>Node5</title>
<g id="a_Node000005"><a xlink:href="classgr_1_1packet__protocols_1_1ax25__encoder.html" target="_top" xlink:title="AX.25 Encoder.">
<polygon fill="white" stroke="#666666" points="229.5,-462 124.5,-462 124.5,-432 229.5,-432 229.5,-462"/>
<text text-anchor="start" x="132.5" y="-450" font-family="Helvetica,sans-Serif" font-size="10.00">gr::packet_protocols</text>
<text text-anchor="middle" x="177" y="-439" font-family="Helvetica,sans-Serif" font-size="10.00">::ax25_encoder</text>
</a>
</g>
</g>
<!-- Node0&#45;&gt;Node5 -->
<g id="edge7_Node000000_Node000005" class="edge">
<title>Node0&#45;&gt;Node5</title>
<g id="a_edge7_Node000000_Node000005"><a xlink:title=" ">
<path fill="none" stroke="#63b8ff" d="M46.28,-298.33C55.54,-328.8 77.47,-388.13 116,-423 119.74,-426.39 124.02,-429.33 128.54,-431.87"/>
<polygon fill="#63b8ff" stroke="#63b8ff" points="49.58,-297.14 43.44,-288.5 42.86,-299.08 49.58,-297.14"/>
</a>
</g>
</g>
<!-- Node7 -->
<g id="Node000007" class="node">
<title>Node7</title>
<g id="a_Node000007"><a xlink:href="classgr_1_1packet__protocols_1_1fx25__decoder.html" target="_top" xlink:title="FX.25 Decoder with Forward Error Correction.">
<polygon fill="white" stroke="#666666" points="229.5,-414 124.5,-414 124.5,-384 229.5,-384 229.5,-414"/>
<text text-anchor="start" x="132.5" y="-402" font-family="Helvetica,sans-Serif" font-size="10.00">gr::packet_protocols</text>
<text text-anchor="middle" x="177" y="-391" font-family="Helvetica,sans-Serif" font-size="10.00">::fx25_decoder</text>
</a>
</g>
</g>
<!-- Node0&#45;&gt;Node7 -->
<g id="edge9_Node000000_Node000007" class="edge">
<title>Node0&#45;&gt;Node7</title>
<g id="a_edge9_Node000000_Node000007"><a xlink:title=" ">
<path fill="none" stroke="#63b8ff" d="M51.17,-297.25C63.86,-318.53 87.4,-353.53 116,-375 120.49,-378.37 125.51,-381.34 130.69,-383.93"/>
<polygon fill="#63b8ff" stroke="#63b8ff" points="54.17,-295.44 46.13,-288.54 48.11,-298.94 54.17,-295.44"/>
</a>
</g>
</g>
<!-- Node9 -->
<g id="Node000009" class="node">
<title>Node9</title>
<g id="a_Node000009"><a xlink:href="classgr_1_1packet__protocols_1_1fx25__encoder.html" target="_top" xlink:title="FX.25 Encoder with Forward Error Correction.">
<polygon fill="white" stroke="#666666" points="229.5,-366 124.5,-366 124.5,-336 229.5,-336 229.5,-366"/>
<text text-anchor="start" x="132.5" y="-354" font-family="Helvetica,sans-Serif" font-size="10.00">gr::packet_protocols</text>
<text text-anchor="middle" x="177" y="-343" font-family="Helvetica,sans-Serif" font-size="10.00">::fx25_encoder</text>
</a>
</g>
</g>
<!-- Node0&#45;&gt;Node9 -->
<g id="edge11_Node000000_Node000009" class="edge">
<title>Node0&#45;&gt;Node9</title>
<g id="a_edge11_Node000000_Node000009"><a xlink:title=" ">
<path fill="none" stroke="#63b8ff" d="M62.72,-294.46C77.36,-304.48 97.33,-317.4 116,-327 122.09,-330.13 128.68,-333.13 135.19,-335.89"/>
<polygon fill="#63b8ff" stroke="#63b8ff" points="64.57,-291.48 54.36,-288.65 60.58,-297.23 64.57,-291.48"/>
</a>
</g>
</g>
<!-- Node11 -->
<g id="Node000011" class="node">
<title>Node11</title>
<g id="a_Node000011"><a xlink:href="classgr_1_1packet__protocols_1_1fx25__fec.html" target="_top" xlink:title="FX.25 Forward Error Correction.">
<polygon fill="white" stroke="#666666" points="229.5,-318 124.5,-318 124.5,-288 229.5,-288 229.5,-318"/>
<text text-anchor="start" x="132.5" y="-306" font-family="Helvetica,sans-Serif" font-size="10.00">gr::packet_protocols</text>
<text text-anchor="middle" x="177" y="-295" font-family="Helvetica,sans-Serif" font-size="10.00">::fx25_fec</text>
</a>
</g>
</g>
<!-- Node0&#45;&gt;Node11 -->
<g id="edge13_Node000000_Node000011" class="edge">
<title>Node0&#45;&gt;Node11</title>
<g id="a_edge13_Node000000_Node000011"><a xlink:title=" ">
<path fill="none" stroke="#63b8ff" d="M90.08,-287.72C101.27,-289.71 113.18,-291.83 124.47,-293.84"/>
<polygon fill="#63b8ff" stroke="#63b8ff" points="90.51,-284.25 80.05,-285.94 89.28,-291.14 90.51,-284.25"/>
</a>
</g>
</g>
<!-- Node12 -->
<g id="Node000012" class="node">
<title>Node12</title>
<g id="a_Node000012"><a xlink:href="classgr_1_1packet__protocols_1_1il2p__decoder.html" target="_top" xlink:title="IL2P (Improved Layer 2 Protocol) Decoder.">
<polygon fill="white" stroke="#666666" points="229.5,-270 124.5,-270 124.5,-240 229.5,-240 229.5,-270"/>
<text text-anchor="start" x="132.5" y="-258" font-family="Helvetica,sans-Serif" font-size="10.00">gr::packet_protocols</text>
<text text-anchor="middle" x="177" y="-247" font-family="Helvetica,sans-Serif" font-size="10.00">::il2p_decoder</text>
</a>
</g>
</g>
<!-- Node0&#45;&gt;Node12 -->
<g id="edge14_Node000000_Node000012" class="edge">
<title>Node0&#45;&gt;Node12</title>
<g id="a_edge14_Node000000_Node000012"><a xlink:title=" ">
<path fill="none" stroke="#63b8ff" d="M90.08,-270.28C101.27,-268.29 113.18,-266.17 124.47,-264.16"/>
<polygon fill="#63b8ff" stroke="#63b8ff" points="89.28,-266.86 80.05,-272.06 90.51,-273.75 89.28,-266.86"/>
</a>
</g>
</g>
<!-- Node14 -->
<g id="Node000014" class="node">
<title>Node14</title>
<g id="a_Node000014"><a xlink:href="classgr_1_1packet__protocols_1_1il2p__encoder.html" target="_top" xlink:title="IL2P (Improved Layer 2 Protocol) Encoder.">
<polygon fill="white" stroke="#666666" points="229.5,-222 124.5,-222 124.5,-192 229.5,-192 229.5,-222"/>
<text text-anchor="start" x="132.5" y="-210" font-family="Helvetica,sans-Serif" font-size="10.00">gr::packet_protocols</text>
<text text-anchor="middle" x="177" y="-199" font-family="Helvetica,sans-Serif" font-size="10.00">::il2p_encoder</text>
</a>
</g>
</g>
<!-- Node0&#45;&gt;Node14 -->
<g id="edge16_Node000000_Node000014" class="edge">
<title>Node0&#45;&gt;Node14</title>
<g id="a_edge16_Node000000_Node000014"><a xlink:title=" ">
<path fill="none" stroke="#63b8ff" d="M62.72,-263.54C77.36,-253.52 97.33,-240.6 116,-231 122.09,-227.87 128.68,-224.87 135.19,-222.11"/>
<polygon fill="#63b8ff" stroke="#63b8ff" points="60.58,-260.77 54.36,-269.35 64.57,-266.52 60.58,-260.77"/>
</a>
</g>
</g>
<!-- Node16 -->
<g id="Node000016" class="node">
<title>Node16</title>
<g id="a_Node000016"><a xlink:href="classgr_1_1packet__protocols_1_1il2p__reed__solomon.html" target="_top" xlink:title="IL2P Reed&#45;Solomon Forward Error Correction.">
<polygon fill="white" stroke="#666666" points="229.5,-174 124.5,-174 124.5,-144 229.5,-144 229.5,-174"/>
<text text-anchor="start" x="132.5" y="-162" font-family="Helvetica,sans-Serif" font-size="10.00">gr::packet_protocols</text>
<text text-anchor="middle" x="177" y="-151" font-family="Helvetica,sans-Serif" font-size="10.00">::il2p_reed_solomon</text>
</a>
</g>
</g>
<!-- Node0&#45;&gt;Node16 -->
<g id="edge18_Node000000_Node000016" class="edge">
<title>Node0&#45;&gt;Node16</title>
<g id="a_edge18_Node000000_Node000016"><a xlink:title=" ">
<path fill="none" stroke="#63b8ff" d="M51.17,-260.75C63.86,-239.47 87.4,-204.47 116,-183 120.49,-179.63 125.51,-176.66 130.69,-174.07"/>
<polygon fill="#63b8ff" stroke="#63b8ff" points="48.11,-259.06 46.13,-269.46 54.17,-262.56 48.11,-259.06"/>
</a>
</g>
</g>
<!-- Node17 -->
<g id="Node000017" class="node">
<title>Node17</title>
<g id="a_Node000017"><a xlink:href="classgr_1_1packet__protocols_1_1kiss__tnc.html" target="_top" xlink:title="KISS TNC Interface.">
<polygon fill="white" stroke="#666666" points="229.5,-126 124.5,-126 124.5,-96 229.5,-96 229.5,-126"/>
<text text-anchor="start" x="132.5" y="-114" font-family="Helvetica,sans-Serif" font-size="10.00">gr::packet_protocols</text>
<text text-anchor="middle" x="177" y="-103" font-family="Helvetica,sans-Serif" font-size="10.00">::kiss_tnc</text>
</a>
</g>
</g>
<!-- Node0&#45;&gt;Node17 -->
<g id="edge19_Node000000_Node000017" class="edge">
<title>Node0&#45;&gt;Node17</title>
<g id="a_edge19_Node000000_Node000017"><a xlink:title=" ">
<path fill="none" stroke="#63b8ff" d="M46.28,-259.67C55.54,-229.2 77.47,-169.87 116,-135 119.74,-131.61 124.02,-128.67 128.54,-126.13"/>
<polygon fill="#63b8ff" stroke="#63b8ff" points="42.86,-258.92 43.44,-269.5 49.58,-260.86 42.86,-258.92"/>
</a>
</g>
</g>
<!-- Node19 -->
<g id="Node000019" class="node">
<title>Node19</title>
<g id="a_Node000019"><a xlink:href="classgr_1_1packet__protocols_1_1link__quality__monitor.html" target="_top" xlink:title="Link Quality Monitor.">
<polygon fill="white" stroke="#666666" points="231.5,-78 122.5,-78 122.5,-48 231.5,-48 231.5,-78"/>
<text text-anchor="start" x="130.5" y="-66" font-family="Helvetica,sans-Serif" font-size="10.00">gr::packet_protocols</text>
<text text-anchor="middle" x="177" y="-55" font-family="Helvetica,sans-Serif" font-size="10.00">::link_quality_monitor</text>
</a>
</g>
</g>
<!-- Node0&#45;&gt;Node19 -->
<g id="edge21_Node000000_Node000019" class="edge">
<title>Node0&#45;&gt;Node19</title>
<g id="a_edge21_Node000000_Node000019"><a xlink:title=" ">
<path fill="none" stroke="#63b8ff" d="M43.55,-258.77C49.43,-220.29 67.35,-136.04 116,-87 119.4,-83.57 123.35,-80.62 127.57,-78.08"/>
<polygon fill="#63b8ff" stroke="#63b8ff" points="40.02,-258.76 42.09,-269.15 46.95,-259.73 40.02,-258.76"/>
</a>
</g>
</g>
<!-- Node21 -->
<g id="Node000021" class="node">
<title>Node21</title>
<g id="a_Node000021"><a xlink:href="classgr_1_1packet__protocols_1_1modulation__negotiation.html" target="_top" xlink:title="Modulation Negotiation Handler.">
<polygon fill="white" stroke="#666666" points="238,-30 116,-30 116,0 238,0 238,-30"/>
<text text-anchor="start" x="124" y="-18" font-family="Helvetica,sans-Serif" font-size="10.00">gr::packet_protocols</text>
<text text-anchor="middle" x="177" y="-7" font-family="Helvetica,sans-Serif" font-size="10.00">::modulation_negotiation</text>
</a>
</g>
</g>
<!-- Node0&#45;&gt;Node21 -->
<g id="edge23_Node000000_Node000021" class="edge">
<title>Node0&#45;&gt;Node21</title>
<g id="a_edge23_Node000000_Node000021"><a xlink:title=" ">
<path fill="none" stroke="#63b8ff" d="M41.66,-259.14C44.22,-214.12 56.55,-103.26 116,-39 119.2,-35.54 122.97,-32.57 127.02,-30.02"/>
<polygon fill="#63b8ff" stroke="#63b8ff" points="38.16,-259.17 41.19,-269.32 45.15,-259.49 38.16,-259.17"/>
</a>
</g>
</g>
<!-- Node2 -->
<g id="Node000002" class="node">
<title>Node2</title>
<g id="a_Node000002"><a xlink:href="classgr_1_1packet__protocols_1_1adaptive__rate__control__impl.html" target="_top" xlink:title=" ">
<polygon fill="white" stroke="#666666" points="416.5,-558 277.5,-558 277.5,-528 416.5,-528 416.5,-558"/>
<text text-anchor="start" x="285.5" y="-546" font-family="Helvetica,sans-Serif" font-size="10.00">gr::packet_protocols</text>
<text text-anchor="middle" x="347" y="-535" font-family="Helvetica,sans-Serif" font-size="10.00">::adaptive_rate_control_impl</text>
</a>
</g>
</g>
<!-- Node1&#45;&gt;Node2 -->
<g id="edge4_Node000001_Node000002" class="edge">
<title>Node1&#45;&gt;Node2</title>
<g id="a_edge4_Node000001_Node000002"><a xlink:title=" ">
<path fill="none" stroke="#63b8ff" d="M245.64,-543C256.07,-543 266.85,-543 277.31,-543"/>
<polygon fill="#63b8ff" stroke="#63b8ff" points="245.35,-539.5 235.35,-543 245.35,-546.5 245.35,-539.5"/>
</a>
</g>
</g>
<!-- Node4 -->
<g id="Node000004" class="node">
<title>Node4</title>
<g id="a_Node000004"><a xlink:href="classgr_1_1packet__protocols_1_1ax25__decoder__impl.html" target="_top" xlink:title="AX.25 Decoder Implementation.">
<polygon fill="white" stroke="#666666" points="400.5,-510 293.5,-510 293.5,-480 400.5,-480 400.5,-510"/>
<text text-anchor="start" x="301.5" y="-498" font-family="Helvetica,sans-Serif" font-size="10.00">gr::packet_protocols</text>
<text text-anchor="middle" x="347" y="-487" font-family="Helvetica,sans-Serif" font-size="10.00">::ax25_decoder_impl</text>
</a>
</g>
</g>
<!-- Node3&#45;&gt;Node4 -->
<g id="edge6_Node000003_Node000004" class="edge">
<title>Node3&#45;&gt;Node4</title>
<g id="a_edge6_Node000003_Node000004"><a xlink:title=" ">
<path fill="none" stroke="#63b8ff" d="M239.9,-495C257.42,-495 276.31,-495 293.24,-495"/>
<polygon fill="#63b8ff" stroke="#63b8ff" points="239.78,-491.5 229.78,-495 239.78,-498.5 239.78,-491.5"/>
</a>
</g>
</g>
<!-- Node6 -->
<g id="Node000006" class="node">
<title>Node6</title>
<g id="a_Node000006"><a xlink:href="classgr_1_1packet__protocols_1_1ax25__encoder__impl.html" target="_top" xlink:title="AX.25 Encoder Implementation.">
<polygon fill="white" stroke="#666666" points="400.5,-462 293.5,-462 293.5,-432 400.5,-432 400.5,-462"/>
<text text-anchor="start" x="301.5" y="-450" font-family="Helvetica,sans-Serif" font-size="10.00">gr::packet_protocols</text>
<text text-anchor="middle" x="347" y="-439" font-family="Helvetica,sans-Serif" font-size="10.00">::ax25_encoder_impl</text>
</a>
</g>
</g>
<!-- Node5&#45;&gt;Node6 -->
<g id="edge8_Node000005_Node000006" class="edge">
<title>Node5&#45;&gt;Node6</title>
<g id="a_edge8_Node000005_Node000006"><a xlink:title=" ">
<path fill="none" stroke="#63b8ff" d="M239.9,-447C257.42,-447 276.31,-447 293.24,-447"/>
<polygon fill="#63b8ff" stroke="#63b8ff" points="239.78,-443.5 229.78,-447 239.78,-450.5 239.78,-443.5"/>
</a>
</g>
</g>
<!-- Node8 -->
<g id="Node000008" class="node">
<title>Node8</title>
<g id="a_Node000008"><a xlink:href="classgr_1_1packet__protocols_1_1fx25__decoder__impl.html" target="_top" xlink:title="FX.25 Decoder Implementation.">
<polygon fill="white" stroke="#666666" points="399.5,-414 294.5,-414 294.5,-384 399.5,-384 399.5,-414"/>
<text text-anchor="start" x="302.5" y="-402" font-family="Helvetica,sans-Serif" font-size="10.00">gr::packet_protocols</text>
<text text-anchor="middle" x="347" y="-391" font-family="Helvetica,sans-Serif" font-size="10.00">::fx25_decoder_impl</text>
</a>
</g>
</g>
<!-- Node7&#45;&gt;Node8 -->
<g id="edge10_Node000007_Node000008" class="edge">
<title>Node7&#45;&gt;Node8</title>
<g id="a_edge10_Node000007_Node000008"><a xlink:title=" ">
<path fill="none" stroke="#63b8ff" d="M239.85,-399C257.78,-399 277.16,-399 294.39,-399"/>
<polygon fill="#63b8ff" stroke="#63b8ff" points="239.78,-395.5 229.78,-399 239.78,-402.5 239.78,-395.5"/>
</a>
</g>
</g>
<!-- Node10 -->
<g id="Node000010" class="node">
<title>Node10</title>
<g id="a_Node000010"><a xlink:href="classgr_1_1packet__protocols_1_1fx25__encoder__impl.html" target="_top" xlink:title="FX.25 Encoder Implementation.">
<polygon fill="white" stroke="#666666" points="399.5,-366 294.5,-366 294.5,-336 399.5,-336 399.5,-366"/>
<text text-anchor="start" x="302.5" y="-354" font-family="Helvetica,sans-Serif" font-size="10.00">gr::packet_protocols</text>
<text text-anchor="middle" x="347" y="-343" font-family="Helvetica,sans-Serif" font-size="10.00">::fx25_encoder_impl</text>
</a>
</g>
</g>
<!-- Node9&#45;&gt;Node10 -->
<g id="edge12_Node000009_Node000010" class="edge">
<title>Node9&#45;&gt;Node10</title>
<g id="a_edge12_Node000009_Node000010"><a xlink:title=" ">
<path fill="none" stroke="#63b8ff" d="M239.85,-351C257.78,-351 277.16,-351 294.39,-351"/>
<polygon fill="#63b8ff" stroke="#63b8ff" points="239.78,-347.5 229.78,-351 239.78,-354.5 239.78,-347.5"/>
</a>
</g>
</g>
<!-- Node13 -->
<g id="Node000013" class="node">
<title>Node13</title>
<g id="a_Node000013"><a xlink:href="classgr_1_1packet__protocols_1_1il2p__decoder__impl.html" target="_top" xlink:title=" ">
<polygon fill="white" stroke="#666666" points="399.5,-270 294.5,-270 294.5,-240 399.5,-240 399.5,-270"/>
<text text-anchor="start" x="302.5" y="-258" font-family="Helvetica,sans-Serif" font-size="10.00">gr::packet_protocols</text>
<text text-anchor="middle" x="347" y="-247" font-family="Helvetica,sans-Serif" font-size="10.00">::il2p_decoder_impl</text>
</a>
</g>
</g>
<!-- Node12&#45;&gt;Node13 -->
<g id="edge15_Node000012_Node000013" class="edge">
<title>Node12&#45;&gt;Node13</title>
<g id="a_edge15_Node000012_Node000013"><a xlink:title=" ">
<path fill="none" stroke="#63b8ff" d="M239.85,-255C257.78,-255 277.16,-255 294.39,-255"/>
<polygon fill="#63b8ff" stroke="#63b8ff" points="239.78,-251.5 229.78,-255 239.78,-258.5 239.78,-251.5"/>
</a>
</g>
</g>
<!-- Node15 -->
<g id="Node000015" class="node">
<title>Node15</title>
<g id="a_Node000015"><a xlink:href="classgr_1_1packet__protocols_1_1il2p__encoder__impl.html" target="_top" xlink:title="IL2P Encoder Implementation.">
<polygon fill="white" stroke="#666666" points="399.5,-222 294.5,-222 294.5,-192 399.5,-192 399.5,-222"/>
<text text-anchor="start" x="302.5" y="-210" font-family="Helvetica,sans-Serif" font-size="10.00">gr::packet_protocols</text>
<text text-anchor="middle" x="347" y="-199" font-family="Helvetica,sans-Serif" font-size="10.00">::il2p_encoder_impl</text>
</a>
</g>
</g>
<!-- Node14&#45;&gt;Node15 -->
<g id="edge17_Node000014_Node000015" class="edge">
<title>Node14&#45;&gt;Node15</title>
<g id="a_edge17_Node000014_Node000015"><a xlink:title=" ">
<path fill="none" stroke="#63b8ff" d="M239.85,-207C257.78,-207 277.16,-207 294.39,-207"/>
<polygon fill="#63b8ff" stroke="#63b8ff" points="239.78,-203.5 229.78,-207 239.78,-210.5 239.78,-203.5"/>
</a>
</g>
</g>
<!-- Node18 -->
<g id="Node000018" class="node">
<title>Node18</title>
<g id="a_Node000018"><a xlink:href="classgr_1_1packet__protocols_1_1kiss__tnc__impl.html" target="_top" xlink:title="KISS TNC Implementation.">
<polygon fill="white" stroke="#666666" points="399.5,-126 294.5,-126 294.5,-96 399.5,-96 399.5,-126"/>
<text text-anchor="start" x="302.5" y="-114" font-family="Helvetica,sans-Serif" font-size="10.00">gr::packet_protocols</text>
<text text-anchor="middle" x="347" y="-103" font-family="Helvetica,sans-Serif" font-size="10.00">::kiss_tnc_impl</text>
</a>
</g>
</g>
<!-- Node17&#45;&gt;Node18 -->
<g id="edge20_Node000017_Node000018" class="edge">
<title>Node17&#45;&gt;Node18</title>
<g id="a_edge20_Node000017_Node000018"><a xlink:title=" ">
<path fill="none" stroke="#63b8ff" d="M239.85,-111C257.78,-111 277.16,-111 294.39,-111"/>
<polygon fill="#63b8ff" stroke="#63b8ff" points="239.78,-107.5 229.78,-111 239.78,-114.5 239.78,-107.5"/>
</a>
</g>
</g>
<!-- Node20 -->
<g id="Node000020" class="node">
<title>Node20</title>
<g id="a_Node000020"><a xlink:href="classgr_1_1packet__protocols_1_1link__quality__monitor__impl.html" target="_top" xlink:title=" ">
<polygon fill="white" stroke="#666666" points="413,-78 281,-78 281,-48 413,-48 413,-78"/>
<text text-anchor="start" x="289" y="-66" font-family="Helvetica,sans-Serif" font-size="10.00">gr::packet_protocols</text>
<text text-anchor="middle" x="347" y="-55" font-family="Helvetica,sans-Serif" font-size="10.00">::link_quality_monitor_impl</text>
</a>
</g>
</g>
<!-- Node19&#45;&gt;Node20 -->
<g id="edge22_Node000019_Node000020" class="edge">
<title>Node19&#45;&gt;Node20</title>
<g id="a_edge22_Node000019_Node000020"><a xlink:title=" ">
<path fill="none" stroke="#63b8ff" d="M241.72,-63C254.52,-63 267.98,-63 280.83,-63"/>
<polygon fill="#63b8ff" stroke="#63b8ff" points="241.62,-59.5 231.62,-63 241.62,-66.5 241.62,-59.5"/>
</a>
</g>
</g>
<!-- Node22 -->
<g id="Node000022" class="node">
<title>Node22</title>
<g id="a_Node000022"><a xlink:href="classgr_1_1packet__protocols_1_1modulation__negotiation__impl.html" target="_top" xlink:title=" ">
<polygon fill="white" stroke="#666666" points="420,-30 274,-30 274,0 420,0 420,-30"/>
<text text-anchor="start" x="282" y="-18" font-family="Helvetica,sans-Serif" font-size="10.00">gr::packet_protocols</text>
<text text-anchor="middle" x="347" y="-7" font-family="Helvetica,sans-Serif" font-size="10.00">::modulation_negotiation_impl</text>
</a>
</g>
</g>
<!-- Node21&#45;&gt;Node22 -->
<g id="edge24_Node000021_Node000022" class="edge">
<title>Node21&#45;&gt;Node22</title>
<g id="a_edge24_Node000021_Node000022"><a xlink:title=" ">
<path fill="none" stroke="#63b8ff" d="M248.36,-15C256.81,-15 265.44,-15 273.91,-15"/>
<polygon fill="#63b8ff" stroke="#63b8ff" points="248.18,-11.5 238.18,-15 248.18,-18.5 248.18,-11.5"/>
</a>
</g>
</g>
</g>
</svg>
