<?xml version="1.0" encoding="UTF-8" standalone="no"?>
<!DOCTYPE svg PUBLIC "-//W3C//DTD SVG 1.1//EN"
 "http://www.w3.org/Graphics/SVG/1.1/DTD/svg11.dtd">
<!-- Generated by graphviz version 2.43.0 (0)
 -->
<!-- Title: Graphical Class Hierarchy Pages: 1 -->
<svg width="372pt" height="422pt"
 viewBox="0.00 0.00 372.00 422.00" xmlns="http://www.w3.org/2000/svg" xmlns:xlink="http://www.w3.org/1999/xlink">
<g id="graph0" class="graph" transform="scale(1 1) rotate(0) translate(4 418)">
<title>Graphical Class Hierarchy</title>
<!-- Node0 -->
<g id="Node000000" class="node">
<title>Node0</title>
<g id="a_Node000000"><a xlink:title=" ">
<polygon fill="#e0e0e0" stroke="#999999" points="80,-216.5 0,-216.5 0,-197.5 80,-197.5 80,-216.5"/>
<text text-anchor="middle" x="40" y="-204.5" font-family="Helvetica,sans-Serif" font-size="10.00">gr::sync_block</text>
</a>
</g>
</g>
<!-- Node1 -->
<g id="Node000001" class="node">
<title>Node1</title>
<g id="a_Node000001"><a xlink:href="classgr_1_1packet__protocols_1_1ax25__decoder.html" target="_top" xlink:title="AX.25 Decoder.">
<polygon fill="white" stroke="#666666" points="221,-414 116,-414 116,-384 221,-384 221,-414"/>
<text text-anchor="start" x="124" y="-402" font-family="Helvetica,sans-Serif" font-size="10.00">gr::packet_protocols</text>
<text text-anchor="middle" x="168.5" y="-391" font-family="Helvetica,sans-Serif" font-size="10.00">::ax25_decoder</text>
</a>
</g>
</g>
<!-- Node0&#45;&gt;Node1 -->
<g id="edge1_Node000000_Node000001" class="edge">
<title>Node0&#45;&gt;Node1</title>
<g id="a_edge1_Node000000_Node000001"><a xlink:title=" ">
<path fill="none" stroke="#63b8ff" d="M45.06,-226.84C53.03,-261.15 73.73,-332.04 116,-375 119.32,-378.38 123.21,-381.33 127.33,-383.9"/>
<polygon fill="#63b8ff" stroke="#63b8ff" points="48.4,-225.71 42.84,-216.69 41.56,-227.21 48.4,-225.71"/>
</a>
</g>
</g>
<!-- Node3 -->
<g id="Node000003" class="node">
<title>Node3</title>
<g id="a_Node000003"><a xlink:href="classgr_1_1packet__protocols_1_1ax25__encoder.html" target="_top" xlink:title="AX.25 Encoder.">
<polygon fill="white" stroke="#666666" points="221,-366 116,-366 116,-336 221,-336 221,-366"/>
<text text-anchor="start" x="124" y="-354" font-family="Helvetica,sans-Serif" font-size="10.00">gr::packet_protocols</text>
<text text-anchor="middle" x="168.5" y="-343" font-family="Helvetica,sans-Serif" font-size="10.00">::ax25_encoder</text>
</a>
</g>
</g>
<!-- Node0&#45;&gt;Node3 -->
<g id="edge3_Node000000_Node000003" class="edge">
<title>Node0&#45;&gt;Node3</title>
<g id="a_edge3_Node000000_Node000003"><a xlink:title=" ">
<path fill="none" stroke="#63b8ff" d="M48.78,-226.15C60.13,-252.03 83.49,-298.25 116,-327 119.77,-330.33 124.08,-333.29 128.57,-335.89"/>
<polygon fill="#63b8ff" stroke="#63b8ff" points="51.9,-224.55 44.78,-216.71 45.46,-227.28 51.9,-224.55"/>
</a>
</g>
</g>
<!-- Node5 -->
<g id="Node000005" class="node">
<title>Node5</title>
<g id="a_Node000005"><a xlink:href="classgr_1_1packet__protocols_1_1fx25__decoder.html" target="_top" xlink:title="FX.25 Decoder with Forward Error Correction.">
<polygon fill="white" stroke="#666666" points="221,-318 116,-318 116,-288 221,-288 221,-318"/>
<text text-anchor="start" x="124" y="-306" font-family="Helvetica,sans-Serif" font-size="10.00">gr::packet_protocols</text>
<text text-anchor="middle" x="168.5" y="-295" font-family="Helvetica,sans-Serif" font-size="10.00">::fx25_decoder</text>
</a>
</g>
</g>
<!-- Node0&#45;&gt;Node5 -->
<g id="edge5_Node000000_Node000005" class="edge">
<title>Node0&#45;&gt;Node5</title>
<g id="a_edge5_Node000000_Node000005"><a xlink:title=" ">
<path fill="none" stroke="#63b8ff" d="M56.04,-224.4C70.3,-240.14 92.92,-263.19 116,-279 120.72,-282.23 125.95,-285.23 131.2,-287.94"/>
<polygon fill="#63b8ff" stroke="#63b8ff" points="58.64,-222.07 49.38,-216.92 53.41,-226.72 58.64,-222.07"/>
</a>
</g>
</g>
<!-- Node7 -->
<g id="Node000007" class="node">
<title>Node7</title>
<g id="a_Node000007"><a xlink:href="classgr_1_1packet__protocols_1_1fx25__encoder.html" target="_top" xlink:title="FX.25 Encoder with Forward Error Correction.">
<polygon fill="white" stroke="#666666" points="221,-270 116,-270 116,-240 221,-240 221,-270"/>
<text text-anchor="start" x="124" y="-258" font-family="Helvetica,sans-Serif" font-size="10.00">gr::packet_protocols</text>
<text text-anchor="middle" x="168.5" y="-247" font-family="Helvetica,sans-Serif" font-size="10.00">::fx25_encoder</text>
</a>
</g>
</g>
<!-- Node0&#45;&gt;Node7 -->
<g id="edge7_Node000000_Node000007" class="edge">
<title>Node0&#45;&gt;Node7</title>
<g id="a_edge7_Node000000_Node000007"><a xlink:title=" ">
<path fill="none" stroke="#63b8ff" d="M75.87,-220.23C91.96,-226.34 111.15,-233.62 127.8,-239.94"/>
<polygon fill="#63b8ff" stroke="#63b8ff" points="76.89,-216.87 66.3,-216.6 74.4,-223.42 76.89,-216.87"/>
</a>
</g>
</g>
<!-- Node9 -->
<g id="Node000009" class="node">
<title>Node9</title>
<g id="a_Node000009"><a xlink:href="classgr_1_1packet__protocols_1_1fx25__fec.html" target="_top" xlink:title="FX.25 Forward Error Correction.">
<polygon fill="white" stroke="#666666" points="221,-222 116,-222 116,-192 221,-192 221,-222"/>
<text text-anchor="start" x="124" y="-210" font-family="Helvetica,sans-Serif" font-size="10.00">gr::packet_protocols</text>
<text text-anchor="middle" x="168.5" y="-199" font-family="Helvetica,sans-Serif" font-size="10.00">::fx25_fec</text>
</a>
</g>
</g>
<!-- Node0&#45;&gt;Node9 -->
<g id="edge9_Node000000_Node000009" class="edge">
<title>Node0&#45;&gt;Node9</title>
<g id="a_edge9_Node000000_Node000009"><a xlink:title=" ">
<path fill="none" stroke="#63b8ff" d="M90.54,-207C98.78,-207 107.34,-207 115.63,-207"/>
<polygon fill="#63b8ff" stroke="#63b8ff" points="90.33,-203.5 80.33,-207 90.33,-210.5 90.33,-203.5"/>
</a>
</g>
</g>
<!-- Node10 -->
<g id="Node000010" class="node">
<title>Node10</title>
<g id="a_Node000010"><a xlink:href="classgr_1_1packet__protocols_1_1il2p__decoder.html" target="_top" xlink:title="IL2P (Improved Layer 2 Protocol) Decoder.">
<polygon fill="white" stroke="#666666" points="221,-174 116,-174 116,-144 221,-144 221,-174"/>
<text text-anchor="start" x="124" y="-162" font-family="Helvetica,sans-Serif" font-size="10.00">gr::packet_protocols</text>
<text text-anchor="middle" x="168.5" y="-151" font-family="Helvetica,sans-Serif" font-size="10.00">::il2p_decoder</text>
</a>
</g>
</g>
<!-- Node0&#45;&gt;Node10 -->
<g id="edge10_Node000000_Node000010" class="edge">
<title>Node0&#45;&gt;Node10</title>
<g id="a_edge10_Node000000_Node000010"><a xlink:title=" ">
<path fill="none" stroke="#63b8ff" d="M75.87,-193.77C91.96,-187.66 111.15,-180.38 127.8,-174.06"/>
<polygon fill="#63b8ff" stroke="#63b8ff" points="74.4,-190.58 66.3,-197.4 76.89,-197.13 74.4,-190.58"/>
</a>
</g>
</g>
<!-- Node12 -->
<g id="Node000012" class="node">
<title>Node12</title>
<g id="a_Node000012"><a xlink:href="classgr_1_1packet__protocols_1_1il2p__encoder.html" target="_top" xlink:title="IL2P (Improved Layer 2 Protocol) Encoder.">
<polygon fill="white" stroke="#666666" points="221,-126 116,-126 116,-96 221,-96 221,-126"/>
<text text-anchor="start" x="124" y="-114" font-family="Helvetica,sans-Serif" font-size="10.00">gr::packet_protocols</text>
<text text-anchor="middle" x="168.5" y="-103" font-family="Helvetica,sans-Serif" font-size="10.00">::il2p_encoder</text>
</a>
</g>
</g>
<!-- Node0&#45;&gt;Node12 -->
<g id="edge12_Node000000_Node000012" class="edge">
<title>Node0&#45;&gt;Node12</title>
<g id="a_edge12_Node000000_Node000012"><a xlink:title=" ">
<path fill="none" stroke="#63b8ff" d="M56.04,-189.6C70.3,-173.86 92.92,-150.81 116,-135 120.72,-131.77 125.95,-128.77 131.2,-126.06"/>
<polygon fill="#63b8ff" stroke="#63b8ff" points="53.41,-187.28 49.38,-197.08 58.64,-191.93 53.41,-187.28"/>
</a>
</g>
</g>
<!-- Node14 -->
<g id="Node000014" class="node">
<title>Node14</title>
<g id="a_Node000014"><a xlink:href="classgr_1_1packet__protocols_1_1il2p__reed__solomon.html" target="_top" xlink:title="IL2P Reed&#45;Solomon Forward Error Correction.">
<polygon fill="white" stroke="#666666" points="221,-78 116,-78 116,-48 221,-48 221,-78"/>
<text text-anchor="start" x="124" y="-66" font-family="Helvetica,sans-Serif" font-size="10.00">gr::packet_protocols</text>
<text text-anchor="middle" x="168.5" y="-55" font-family="Helvetica,sans-Serif" font-size="10.00">::il2p_reed_solomon</text>
</a>
</g>
</g>
<!-- Node0&#45;&gt;Node14 -->
<g id="edge14_Node000000_Node000014" class="edge">
<title>Node0&#45;&gt;Node14</title>
<g id="a_edge14_Node000000_Node000014"><a xlink:title=" ">
<path fill="none" stroke="#63b8ff" d="M48.78,-187.85C60.13,-161.97 83.49,-115.75 116,-87 119.77,-83.67 124.08,-80.71 128.57,-78.11"/>
<polygon fill="#63b8ff" stroke="#63b8ff" points="45.46,-186.72 44.78,-197.29 51.9,-189.45 45.46,-186.72"/>
</a>
</g>
</g>
<!-- Node15 -->
<g id="Node000015" class="node">
<title>Node15</title>
<g id="a_Node000015"><a xlink:href="classgr_1_1packet__protocols_1_1kiss__tnc.html" target="_top" xlink:title="KISS TNC Interface.">
<polygon fill="white" stroke="#666666" points="221,-30 116,-30 116,0 221,0 221,-30"/>
<text text-anchor="start" x="124" y="-18" font-family="Helvetica,sans-Serif" font-size="10.00">gr::packet_protocols</text>
<text text-anchor="middle" x="168.5" y="-7" font-family="Helvetica,sans-Serif" font-size="10.00">::kiss_tnc</text>
</a>
</g>
</g>
<!-- Node0&#45;&gt;Node15 -->
<g id="edge15_Node000000_Node000015" class="edge">
<title>Node0&#45;&gt;Node15</title>
<g id="a_edge15_Node000000_Node000015"><a xlink:title=" ">
<path fill="none" stroke="#63b8ff" d="M45.06,-187.16C53.03,-152.85 73.73,-81.96 116,-39 119.32,-35.62 123.21,-32.67 127.33,-30.1"/>
<polygon fill="#63b8ff" stroke="#63b8ff" points="41.56,-186.79 42.84,-197.31 48.4,-188.29 41.56,-186.79"/>
</a>
</g>
</g>
<!-- Node2 -->
<g id="Node000002" class="node">
<title>Node2</title>
<g id="a_Node000002"><a xlink:href="classgr_1_1packet__protocols_1_1ax25__decoder__impl.html" target="_top" xlink:title="AX.25 Decoder Implementation.">
<polygon fill="white" stroke="#666666" points="364,-414 257,-414 257,-384 364,-384 364,-414"/>
<text text-anchor="start" x="265" y="-402" font-family="Helvetica,sans-Serif" font-size="10.00">gr::packet_protocols</text>
<text text-anchor="middle" x="310.5" y="-391" font-family="Helvetica,sans-Serif" font-size="10.00">::ax25_decoder_impl</text>
</a>
</g>
</g>
<!-- Node1&#45;&gt;Node2 -->
<g id="edge2_Node000001_Node000002" class="edge">
<title>Node1&#45;&gt;Node2</title>
<g id="a_edge2_Node000001_Node000002"><a xlink:title=" ">
<path fill="none" stroke="#63b8ff" d="M231.37,-399C239.78,-399 248.35,-399 256.58,-399"/>
<polygon fill="#63b8ff" stroke="#63b8ff" points="231.23,-395.5 221.23,-399 231.23,-402.5 231.23,-395.5"/>
</a>
</g>
</g>
<!-- Node4 -->
<g id="Node000004" class="node">
<title>Node4</title>
<g id="a_Node000004"><a xlink:href="classgr_1_1packet__protocols_1_1ax25__encoder__impl.html" target="_top" xlink:title="AX.25 Encoder Implementation.">
<polygon fill="white" stroke="#666666" points="364,-366 257,-366 257,-336 364,-336 364,-366"/>
<text text-anchor="start" x="265" y="-354" font-family="Helvetica,sans-Serif" font-size="10.00">gr::packet_protocols</text>
<text text-anchor="middle" x="310.5" y="-343" font-family="Helvetica,sans-Serif" font-size="10.00">::ax25_encoder_impl</text>
</a>
</g>
</g>
<!-- Node3&#45;&gt;Node4 -->
<g id="edge4_Node000003_Node000004" class="edge">
<title>Node3&#45;&gt;Node4</title>
<g id="a_edge4_Node000003_Node000004"><a xlink:title=" ">
<path fill="none" stroke="#63b8ff" d="M231.37,-351C239.78,-351 248.35,-351 256.58,-351"/>
<polygon fill="#63b8ff" stroke="#63b8ff" points="231.23,-347.5 221.23,-351 231.23,-354.5 231.23,-347.5"/>
</a>
</g>
</g>
<!-- Node6 -->
<g id="Node000006" class="node">
<title>Node6</title>
<g id="a_Node000006"><a xlink:href="classgr_1_1packet__protocols_1_1fx25__decoder__impl.html" target="_top" xlink:title="FX.25 Decoder Implementation.">
<polygon fill="white" stroke="#666666" points="363,-318 258,-318 258,-288 363,-288 363,-318"/>
<text text-anchor="start" x="266" y="-306" font-family="Helvetica,sans-Serif" font-size="10.00">gr::packet_protocols</text>
<text text-anchor="middle" x="310.5" y="-295" font-family="Helvetica,sans-Serif" font-size="10.00">::fx25_decoder_impl</text>
</a>
</g>
</g>
<!-- Node5&#45;&gt;Node6 -->
<g id="edge6_Node000005_Node000006" class="edge">
<title>Node5&#45;&gt;Node6</title>
<g id="a_edge6_Node000005_Node000006"><a xlink:title=" ">
<path fill="none" stroke="#63b8ff" d="M231.5,-303C240.35,-303 249.36,-303 257.98,-303"/>
<polygon fill="#63b8ff" stroke="#63b8ff" points="231.23,-299.5 221.23,-303 231.23,-306.5 231.23,-299.5"/>
</a>
</g>
</g>
<!-- Node8 -->
<g id="Node000008" class="node">
<title>Node8</title>
<g id="a_Node000008"><a xlink:href="classgr_1_1packet__protocols_1_1fx25__encoder__impl.html" target="_top" xlink:title="FX.25 Encoder Implementation.">
<polygon fill="white" stroke="#666666" points="363,-270 258,-270 258,-240 363,-240 363,-270"/>
<text text-anchor="start" x="266" y="-258" font-family="Helvetica,sans-Serif" font-size="10.00">gr::packet_protocols</text>
<text text-anchor="middle" x="310.5" y="-247" font-family="Helvetica,sans-Serif" font-size="10.00">::fx25_encoder_impl</text>
</a>
</g>
</g>
<!-- Node7&#45;&gt;Node8 -->
<g id="edge8_Node000007_Node000008" class="edge">
<title>Node7&#45;&gt;Node8</title>
<g id="a_edge8_Node000007_Node000008"><a xlink:title=" ">
<path fill="none" stroke="#63b8ff" d="M231.5,-255C240.35,-255 249.36,-255 257.98,-255"/>
<polygon fill="#63b8ff" stroke="#63b8ff" points="231.23,-251.5 221.23,-255 231.23,-258.5 231.23,-251.5"/>
</a>
</g>
</g>
<!-- Node11 -->
<g id="Node000011" class="node">
<title>Node11</title>
<g id="a_Node000011"><a xlink:href="classgr_1_1packet__protocols_1_1il2p__decoder__impl.html" target="_top" xlink:title=" ">
<polygon fill="white" stroke="#666666" points="363,-174 258,-174 258,-144 363,-144 363,-174"/>
<text text-anchor="start" x="266" y="-162" font-family="Helvetica,sans-Serif" font-size="10.00">gr::packet_protocols</text>
<text text-anchor="middle" x="310.5" y="-151" font-family="Helvetica,sans-Serif" font-size="10.00">::il2p_decoder_impl</text>
</a>
</g>
</g>
<!-- Node10&#45;&gt;Node11 -->
<g id="edge11_Node000010_Node000011" class="edge">
<title>Node10&#45;&gt;Node11</title>
<g id="a_edge11_Node000010_Node000011"><a xlink:title=" ">
<path fill="none" stroke="#63b8ff" d="M231.5,-159C240.35,-159 249.36,-159 257.98,-159"/>
<polygon fill="#63b8ff" stroke="#63b8ff" points="231.23,-155.5 221.23,-159 231.23,-162.5 231.23,-155.5"/>
</a>
</g>
</g>
<!-- Node13 -->
<g id="Node000013" class="node">
<title>Node13</title>
<g id="a_Node000013"><a xlink:href="classgr_1_1packet__protocols_1_1il2p__encoder__impl.html" target="_top" xlink:title="IL2P Encoder Implementation.">
<polygon fill="white" stroke="#666666" points="363,-126 258,-126 258,-96 363,-96 363,-126"/>
<text text-anchor="start" x="266" y="-114" font-family="Helvetica,sans-Serif" font-size="10.00">gr::packet_protocols</text>
<text text-anchor="middle" x="310.5" y="-103" font-family="Helvetica,sans-Serif" font-size="10.00">::il2p_encoder_impl</text>
</a>
</g>
</g>
<!-- Node12&#45;&gt;Node13 -->
<g id="edge13_Node000012_Node000013" class="edge">
<title>Node12&#45;&gt;Node13</title>
<g id="a_edge13_Node000012_Node000013"><a xlink:title=" ">
<path fill="none" stroke="#63b8ff" d="M231.5,-111C240.35,-111 249.36,-111 257.98,-111"/>
<polygon fill="#63b8ff" stroke="#63b8ff" points="231.23,-107.5 221.23,-111 231.23,-114.5 231.23,-107.5"/>
</a>
</g>
</g>
<!-- Node16 -->
<g id="Node000016" class="node">
<title>Node16</title>
<g id="a_Node000016"><a xlink:href="classgr_1_1packet__protocols_1_1kiss__tnc__impl.html" target="_top" xlink:title="KISS TNC Implementation.">
<polygon fill="white" stroke="#666666" points="363,-30 258,-30 258,0 363,0 363,-30"/>
<text text-anchor="start" x="266" y="-18" font-family="Helvetica,sans-Serif" font-size="10.00">gr::packet_protocols</text>
<text text-anchor="middle" x="310.5" y="-7" font-family="Helvetica,sans-Serif" font-size="10.00">::kiss_tnc_impl</text>
</a>
</g>
</g>
<!-- Node15&#45;&gt;Node16 -->
<g id="edge16_Node000015_Node000016" class="edge">
<title>Node15&#45;&gt;Node16</title>
<g id="a_edge16_Node000015_Node000016"><a xlink:title=" ">
<path fill="none" stroke="#63b8ff" d="M231.5,-15C240.35,-15 249.36,-15 257.98,-15"/>
<polygon fill="#63b8ff" stroke="#63b8ff" points="231.23,-11.5 221.23,-15 231.23,-18.5 231.23,-11.5"/>
</a>
</g>
</g>
</g>
</svg>
