<?xml version="1.0" encoding="UTF-8" standalone="no"?>
<!DOCTYPE svg PUBLIC "-//W3C//DTD SVG 1.1//EN"
 "http://www.w3.org/Graphics/SVG/1.1/DTD/svg11.dtd">
<!-- Generated by graphviz version 2.43.0 (0)
 -->
<!-- Title: kiss_tnc_impl.h Pages: 1 -->
<svg width="483pt" height="214pt"
 viewBox="0.00 0.00 483.00 214.00" xmlns="http://www.w3.org/2000/svg" xmlns:xlink="http://www.w3.org/1999/xlink">
<g id="graph0" class="graph" transform="scale(1 1) rotate(0) translate(4 210)">
<title>kiss_tnc_impl.h</title>
<!-- Node1 -->
<g id="Node000001" class="node">
<title>Node1</title>
<g id="a_Node000001"><a xlink:title=" ">
<polygon fill="#999999" stroke="#666666" points="371.5,-206 286.5,-206 286.5,-187 371.5,-187 371.5,-206"/>
<text text-anchor="middle" x="329" y="-194" font-family="Helvetica,sans-Serif" font-size="10.00">kiss_tnc_impl.h</text>
</a>
</g>
</g>
<!-- Node2 -->
<g id="Node000002" class="node">
<title>Node2</title>
<g id="a_Node000002"><a xlink:href="ax25__protocol_8h.html" target="_top" xlink:title=" ">
<polygon fill="white" stroke="#666666" points="179.5,-151 48.5,-151 48.5,-121 179.5,-121 179.5,-151"/>
<text text-anchor="start" x="56.5" y="-139" font-family="Helvetica,sans-Serif" font-size="10.00">gnuradio/packet_protocols</text>
<text text-anchor="middle" x="114" y="-128" font-family="Helvetica,sans-Serif" font-size="10.00">/ax25_protocol.h</text>
</a>
</g>
</g>
<!-- Node1&#45;&gt;Node2 -->
<g id="edge1_Node000001_Node000002" class="edge">
<title>Node1&#45;&gt;Node2</title>
<g id="a_edge1_Node000001_Node000002"><a xlink:title=" ">
<path fill="none" stroke="#63b8ff" d="M297.74,-186.99C265.78,-178.3 215.31,-164.57 175.34,-153.69"/>
<polygon fill="#63b8ff" stroke="#63b8ff" points="176.26,-150.31 165.69,-151.06 174.42,-157.07 176.26,-150.31"/>
</a>
</g>
</g>
<!-- Node6 -->
<g id="Node000006" class="node">
<title>Node6</title>
<g id="a_Node000006"><a xlink:href="kiss__tnc_8h.html" target="_top" xlink:title=" ">
<polygon fill="white" stroke="#666666" points="342.5,-151 211.5,-151 211.5,-121 342.5,-121 342.5,-151"/>
<text text-anchor="start" x="219.5" y="-139" font-family="Helvetica,sans-Serif" font-size="10.00">gnuradio/packet_protocols</text>
<text text-anchor="middle" x="277" y="-128" font-family="Helvetica,sans-Serif" font-size="10.00">/kiss_tnc.h</text>
</a>
</g>
</g>
<!-- Node1&#45;&gt;Node6 -->
<g id="edge5_Node000001_Node000006" class="edge">
<title>Node1&#45;&gt;Node6</title>
<g id="a_edge5_Node000001_Node000006"><a xlink:title=" ">
<path fill="none" stroke="#63b8ff" d="M321.33,-186.87C314.73,-179.44 304.93,-168.42 296.22,-158.62"/>
<polygon fill="#63b8ff" stroke="#63b8ff" points="298.81,-156.26 289.55,-151.11 293.57,-160.91 298.81,-156.26"/>
</a>
</g>
</g>
<!-- Node10 -->
<g id="Node000010" class="node">
<title>Node10</title>
<g id="a_Node000010"><a xlink:title=" ">
<polygon fill="#e0e0e0" stroke="#999999" points="401.5,-145.5 360.5,-145.5 360.5,-126.5 401.5,-126.5 401.5,-145.5"/>
<text text-anchor="middle" x="381" y="-133.5" font-family="Helvetica,sans-Serif" font-size="10.00">string</text>
</a>
</g>
</g>
<!-- Node1&#45;&gt;Node10 -->
<g id="edge9_Node000001_Node000010" class="edge">
<title>Node1&#45;&gt;Node10</title>
<g id="a_edge9_Node000001_Node000010"><a xlink:title=" ">
<path fill="none" stroke="#63b8ff" d="M336.67,-186.87C344.51,-178.05 356.86,-164.16 366.54,-153.27"/>
<polygon fill="#63b8ff" stroke="#63b8ff" points="369.27,-155.47 373.3,-145.67 364.04,-150.82 369.27,-155.47"/>
</a>
</g>
</g>
<!-- Node11 -->
<g id="Node000011" class="node">
<title>Node11</title>
<g id="a_Node000011"><a xlink:title=" ">
<polygon fill="#e0e0e0" stroke="#999999" points="464,-145.5 420,-145.5 420,-126.5 464,-126.5 464,-145.5"/>
<text text-anchor="middle" x="442" y="-133.5" font-family="Helvetica,sans-Serif" font-size="10.00">vector</text>
</a>
</g>
</g>
<!-- Node1&#45;&gt;Node11 -->
<g id="edge10_Node000001_Node000011" class="edge">
<title>Node1&#45;&gt;Node11</title>
<g id="a_edge10_Node000001_Node000011"><a xlink:title=" ">
<path fill="none" stroke="#63b8ff" d="M345.67,-186.87C364.28,-177.23 394.62,-161.53 416.28,-150.31"/>
<polygon fill="#63b8ff" stroke="#63b8ff" points="417.99,-153.37 425.26,-145.67 414.77,-147.16 417.99,-153.37"/>
</a>
</g>
</g>
<!-- Node3 -->
<g id="Node000003" class="node">
<title>Node3</title>
<g id="a_Node000003"><a xlink:title=" ">
<polygon fill="#e0e0e0" stroke="#999999" points="56,-79.5 0,-79.5 0,-60.5 56,-60.5 56,-79.5"/>
<text text-anchor="middle" x="28" y="-67.5" font-family="Helvetica,sans-Serif" font-size="10.00">stdbool.h</text>
</a>
</g>
</g>
<!-- Node2&#45;&gt;Node3 -->
<g id="edge2_Node000002_Node000003" class="edge">
<title>Node2&#45;&gt;Node3</title>
<g id="a_edge2_Node000002_Node000003"><a xlink:title=" ">
<path fill="none" stroke="#63b8ff" d="M94.91,-120.8C80.98,-110.43 62.14,-96.4 48,-85.88"/>
<polygon fill="#63b8ff" stroke="#63b8ff" points="50,-83.01 39.88,-79.84 45.82,-88.62 50,-83.01"/>
</a>
</g>
</g>
<!-- Node4 -->
<g id="Node000004" class="node">
<title>Node4</title>
<g id="a_Node000004"><a xlink:title=" ">
<polygon fill="#e0e0e0" stroke="#999999" points="126,-79.5 74,-79.5 74,-60.5 126,-60.5 126,-79.5"/>
<text text-anchor="middle" x="100" y="-67.5" font-family="Helvetica,sans-Serif" font-size="10.00">stddef.h</text>
</a>
</g>
</g>
<!-- Node2&#45;&gt;Node4 -->
<g id="edge3_Node000002_Node000004" class="edge">
<title>Node2&#45;&gt;Node4</title>
<g id="a_edge3_Node000002_Node000004"><a xlink:title=" ">
<path fill="none" stroke="#63b8ff" d="M110.89,-120.8C108.9,-111.7 106.3,-99.79 104.13,-89.9"/>
<polygon fill="#63b8ff" stroke="#63b8ff" points="107.49,-88.87 101.93,-79.84 100.65,-90.36 107.49,-88.87"/>
</a>
</g>
</g>
<!-- Node5 -->
<g id="Node000005" class="node">
<title>Node5</title>
<g id="a_Node000005"><a xlink:title=" ">
<polygon fill="#e0e0e0" stroke="#999999" points="193.5,-79.5 144.5,-79.5 144.5,-60.5 193.5,-60.5 193.5,-79.5"/>
<text text-anchor="middle" x="169" y="-67.5" font-family="Helvetica,sans-Serif" font-size="10.00">stdint.h</text>
</a>
</g>
</g>
<!-- Node2&#45;&gt;Node5 -->
<g id="edge4_Node000002_Node000005" class="edge">
<title>Node2&#45;&gt;Node5</title>
<g id="a_edge4_Node000002_Node000005"><a xlink:title=" ">
<path fill="none" stroke="#63b8ff" d="M126.21,-120.8C134.61,-111.01 145.81,-97.98 154.65,-87.7"/>
<polygon fill="#63b8ff" stroke="#63b8ff" points="157.54,-89.71 161.4,-79.84 152.23,-85.15 157.54,-89.71"/>
</a>
</g>
</g>
<!-- Node7 -->
<g id="Node000007" class="node">
<title>Node7</title>
<g id="a_Node000007"><a xlink:href="api_8h.html" target="_top" xlink:title=" ">
<polygon fill="white" stroke="#666666" points="342.5,-85 211.5,-85 211.5,-55 342.5,-55 342.5,-85"/>
<text text-anchor="start" x="219.5" y="-73" font-family="Helvetica,sans-Serif" font-size="10.00">gnuradio/packet_protocols</text>
<text text-anchor="middle" x="277" y="-62" font-family="Helvetica,sans-Serif" font-size="10.00">/api.h</text>
</a>
</g>
</g>
<!-- Node6&#45;&gt;Node7 -->
<g id="edge6_Node000006_Node000007" class="edge">
<title>Node6&#45;&gt;Node7</title>
<g id="a_edge6_Node000006_Node000007"><a xlink:title=" ">
<path fill="none" stroke="#63b8ff" d="M277,-120.8C277,-113.34 277,-103.99 277,-95.41"/>
<polygon fill="#63b8ff" stroke="#63b8ff" points="280.5,-95.16 277,-85.16 273.5,-95.16 280.5,-95.16"/>
</a>
</g>
</g>
<!-- Node9 -->
<g id="Node000009" class="node">
<title>Node9</title>
<g id="a_Node000009"><a xlink:title=" ">
<polygon fill="#e0e0e0" stroke="#999999" points="475,-79.5 361,-79.5 361,-60.5 475,-60.5 475,-79.5"/>
<text text-anchor="middle" x="418" y="-67.5" font-family="Helvetica,sans-Serif" font-size="10.00">gnuradio/sync_block.h</text>
</a>
</g>
</g>
<!-- Node6&#45;&gt;Node9 -->
<g id="edge8_Node000006_Node000009" class="edge">
<title>Node6&#45;&gt;Node9</title>
<g id="a_edge8_Node000006_Node000009"><a xlink:title=" ">
<path fill="none" stroke="#63b8ff" d="M307.94,-120.95C332.45,-109.83 366.39,-94.42 390.08,-83.67"/>
<polygon fill="#63b8ff" stroke="#63b8ff" points="391.58,-86.84 399.24,-79.52 388.68,-80.46 391.58,-86.84"/>
</a>
</g>
</g>
<!-- Node8 -->
<g id="Node000008" class="node">
<title>Node8</title>
<g id="a_Node000008"><a xlink:title=" ">
<polygon fill="#e0e0e0" stroke="#999999" points="329.5,-19 224.5,-19 224.5,0 329.5,0 329.5,-19"/>
<text text-anchor="middle" x="277" y="-7" font-family="Helvetica,sans-Serif" font-size="10.00">gnuradio/attributes.h</text>
</a>
</g>
</g>
<!-- Node7&#45;&gt;Node8 -->
<g id="edge7_Node000007_Node000008" class="edge">
<title>Node7&#45;&gt;Node8</title>
<g id="a_edge7_Node000007_Node000008"><a xlink:title=" ">
<path fill="none" stroke="#63b8ff" d="M277,-54.84C277,-47.21 277,-37.7 277,-29.45"/>
<polygon fill="#63b8ff" stroke="#63b8ff" points="280.5,-29.27 277,-19.27 273.5,-29.27 280.5,-29.27"/>
</a>
</g>
</g>
</g>
</svg>
