<?xml version="1.0" encoding="UTF-8" standalone="no"?>
<!DOCTYPE svg PUBLIC "-//W3C//DTD SVG 1.1//EN"
 "http://www.w3.org/Graphics/SVG/1.1/DTD/svg11.dtd">
<!-- Generated by graphviz version 2.43.0 (0)
 -->
<!-- Title: packet_protocols.h Pages: 1 -->
<svg width="1943pt" height="214pt"
 viewBox="0.00 0.00 1943.32 214.00" xmlns="http://www.w3.org/2000/svg" xmlns:xlink="http://www.w3.org/1999/xlink">
<g id="graph0" class="graph" transform="scale(1 1) rotate(0) translate(4 210)">
<title>packet_protocols.h</title>
<!-- Node1 -->
<g id="Node000001" class="node">
<title>Node1</title>
<g id="a_Node000001"><a xlink:title=" ">
<polygon fill="#999999" stroke="#666666" points="950.32,-206 851.32,-206 851.32,-187 950.32,-187 950.32,-206"/>
<text text-anchor="middle" x="900.82" y="-194" font-family="Helvetica,sans-Serif" font-size="10.00">packet_protocols.h</text>
</a>
</g>
</g>
<!-- Node2 -->
<g id="Node000002" class="node">
<title>Node2</title>
<g id="a_Node000002"><a xlink:href="api_8h.html" target="_top" xlink:title=" ">
<polygon fill="white" stroke="#666666" points="598.32,-85 467.32,-85 467.32,-55 598.32,-55 598.32,-85"/>
<text text-anchor="start" x="475.32" y="-73" font-family="Helvetica,sans-Serif" font-size="10.00">gnuradio/packet_protocols</text>
<text text-anchor="middle" x="532.82" y="-62" font-family="Helvetica,sans-Serif" font-size="10.00">/api.h</text>
</a>
</g>
</g>
<!-- Node1&#45;&gt;Node2 -->
<g id="edge1_Node000001_Node000002" class="edge">
<title>Node1&#45;&gt;Node2</title>
<g id="a_edge1_Node000001_Node000002"><a xlink:title=" ">
<path fill="none" stroke="#63b8ff" d="M851.09,-194.9C667.39,-192.44 36.1,-181.77 6.82,-151 -2.37,-141.34 -2.15,-130.86 6.82,-121 36.52,-88.35 318.78,-76.53 457.13,-72.68"/>
<polygon fill="#63b8ff" stroke="#63b8ff" points="457.34,-76.17 467.24,-72.4 457.15,-69.18 457.34,-76.17"/>
</a>
</g>
</g>
<!-- Node4 -->
<g id="Node000004" class="node">
<title>Node4</title>
<g id="a_Node000004"><a xlink:href="ax25__decoder_8h.html" target="_top" xlink:title=" ">
<polygon fill="white" stroke="#666666" points="445.32,-151 314.32,-151 314.32,-121 445.32,-121 445.32,-151"/>
<text text-anchor="start" x="322.32" y="-139" font-family="Helvetica,sans-Serif" font-size="10.00">gnuradio/packet_protocols</text>
<text text-anchor="middle" x="379.82" y="-128" font-family="Helvetica,sans-Serif" font-size="10.00">/ax25_decoder.h</text>
</a>
</g>
</g>
<!-- Node1&#45;&gt;Node4 -->
<g id="edge3_Node000001_Node000004" class="edge">
<title>Node1&#45;&gt;Node4</title>
<g id="a_edge3_Node000001_Node000004"><a xlink:title=" ">
<path fill="none" stroke="#63b8ff" d="M851.04,-191.98C770.17,-185.94 605.03,-172.32 455.8,-151.21"/>
<polygon fill="#63b8ff" stroke="#63b8ff" points="455.94,-147.69 445.54,-149.74 454.95,-154.62 455.94,-147.69"/>
</a>
</g>
</g>
<!-- Node6 -->
<g id="Node000006" class="node">
<title>Node6</title>
<g id="a_Node000006"><a xlink:href="ax25__encoder_8h.html" target="_top" xlink:title=" ">
<polygon fill="white" stroke="#666666" points="594.32,-151 463.32,-151 463.32,-121 594.32,-121 594.32,-151"/>
<text text-anchor="start" x="471.32" y="-139" font-family="Helvetica,sans-Serif" font-size="10.00">gnuradio/packet_protocols</text>
<text text-anchor="middle" x="528.82" y="-128" font-family="Helvetica,sans-Serif" font-size="10.00">/ax25_encoder.h</text>
</a>
</g>
</g>
<!-- Node1&#45;&gt;Node6 -->
<g id="edge6_Node000001_Node000006" class="edge">
<title>Node1&#45;&gt;Node6</title>
<g id="a_edge6_Node000001_Node000006"><a xlink:title=" ">
<path fill="none" stroke="#63b8ff" d="M851.17,-188.68C794.02,-180.71 697.1,-166.77 604.65,-151.27"/>
<polygon fill="#63b8ff" stroke="#63b8ff" points="605.01,-147.79 594.57,-149.57 603.85,-154.69 605.01,-147.79"/>
</a>
</g>
</g>
<!-- Node7 -->
<g id="Node000007" class="node">
<title>Node7</title>
<g id="a_Node000007"><a xlink:href="ax25__protocol_8h.html" target="_top" xlink:title=" ">
<polygon fill="white" stroke="#666666" points="1488.32,-151 1357.32,-151 1357.32,-121 1488.32,-121 1488.32,-151"/>
<text text-anchor="start" x="1365.32" y="-139" font-family="Helvetica,sans-Serif" font-size="10.00">gnuradio/packet_protocols</text>
<text text-anchor="middle" x="1422.82" y="-128" font-family="Helvetica,sans-Serif" font-size="10.00">/ax25_protocol.h</text>
</a>
</g>
</g>
<!-- Node1&#45;&gt;Node7 -->
<g id="edge9_Node000001_Node000007" class="edge">
<title>Node1&#45;&gt;Node7</title>
<g id="a_edge9_Node000001_Node000007"><a xlink:title=" ">
<path fill="none" stroke="#63b8ff" d="M950.6,-191.94C1031.47,-185.85 1196.59,-172.15 1346.7,-151.07"/>
<polygon fill="#63b8ff" stroke="#63b8ff" points="1347.62,-154.48 1357.03,-149.61 1346.63,-147.55 1347.62,-154.48"/>
</a>
</g>
</g>
<!-- Node11 -->
<g id="Node000011" class="node">
<title>Node11</title>
<g id="a_Node000011"><a xlink:href="fx25__decoder_8h.html" target="_top" xlink:title=" ">
<polygon fill="white" stroke="#666666" points="743.32,-151 612.32,-151 612.32,-121 743.32,-121 743.32,-151"/>
<text text-anchor="start" x="620.32" y="-139" font-family="Helvetica,sans-Serif" font-size="10.00">gnuradio/packet_protocols</text>
<text text-anchor="middle" x="677.82" y="-128" font-family="Helvetica,sans-Serif" font-size="10.00">/fx25_decoder.h</text>
</a>
</g>
</g>
<!-- Node1&#45;&gt;Node11 -->
<g id="edge13_Node000001_Node000011" class="edge">
<title>Node1&#45;&gt;Node11</title>
<g id="a_edge13_Node000001_Node000011"><a xlink:title=" ">
<path fill="none" stroke="#63b8ff" d="M868.4,-186.99C835.18,-178.28 782.68,-164.51 741.19,-153.62"/>
<polygon fill="#63b8ff" stroke="#63b8ff" points="742,-150.22 731.44,-151.06 740.22,-156.99 742,-150.22"/>
</a>
</g>
</g>
<!-- Node12 -->
<g id="Node000012" class="node">
<title>Node12</title>
<g id="a_Node000012"><a xlink:href="fx25__encoder_8h.html" target="_top" xlink:title=" ">
<polygon fill="white" stroke="#666666" points="892.32,-151 761.32,-151 761.32,-121 892.32,-121 892.32,-151"/>
<text text-anchor="start" x="769.32" y="-139" font-family="Helvetica,sans-Serif" font-size="10.00">gnuradio/packet_protocols</text>
<text text-anchor="middle" x="826.82" y="-128" font-family="Helvetica,sans-Serif" font-size="10.00">/fx25_encoder.h</text>
</a>
</g>
</g>
<!-- Node1&#45;&gt;Node12 -->
<g id="edge16_Node000001_Node000012" class="edge">
<title>Node1&#45;&gt;Node12</title>
<g id="a_edge16_Node000001_Node000012"><a xlink:title=" ">
<path fill="none" stroke="#63b8ff" d="M889.91,-186.87C880.14,-179.15 865.45,-167.54 852.7,-157.46"/>
<polygon fill="#63b8ff" stroke="#63b8ff" points="854.69,-154.57 844.68,-151.11 850.35,-160.06 854.69,-154.57"/>
</a>
</g>
</g>
<!-- Node16 -->
<g id="Node000016" class="node">
<title>Node16</title>
<g id="a_Node000016"><a xlink:href="fx25__fec_8h.html" target="_top" xlink:title=" ">
<polygon fill="white" stroke="#666666" points="1041.32,-151 910.32,-151 910.32,-121 1041.32,-121 1041.32,-151"/>
<text text-anchor="start" x="918.32" y="-139" font-family="Helvetica,sans-Serif" font-size="10.00">gnuradio/packet_protocols</text>
<text text-anchor="middle" x="975.82" y="-128" font-family="Helvetica,sans-Serif" font-size="10.00">/fx25_fec.h</text>
</a>
</g>
</g>
<!-- Node1&#45;&gt;Node16 -->
<g id="edge22_Node000001_Node000016" class="edge">
<title>Node1&#45;&gt;Node16</title>
<g id="a_edge22_Node000001_Node000016"><a xlink:title=" ">
<path fill="none" stroke="#63b8ff" d="M911.89,-186.87C921.78,-179.15 936.67,-167.54 949.59,-157.46"/>
<polygon fill="#63b8ff" stroke="#63b8ff" points="952,-160.02 957.73,-151.11 947.69,-154.51 952,-160.02"/>
</a>
</g>
</g>
<!-- Node17 -->
<g id="Node000017" class="node">
<title>Node17</title>
<g id="a_Node000017"><a xlink:href="fx25__protocol_8h.html" target="_top" xlink:title=" ">
<polygon fill="white" stroke="#666666" points="1637.32,-151 1506.32,-151 1506.32,-121 1637.32,-121 1637.32,-151"/>
<text text-anchor="start" x="1514.32" y="-139" font-family="Helvetica,sans-Serif" font-size="10.00">gnuradio/packet_protocols</text>
<text text-anchor="middle" x="1571.82" y="-128" font-family="Helvetica,sans-Serif" font-size="10.00">/fx25_protocol.h</text>
</a>
</g>
</g>
<!-- Node1&#45;&gt;Node17 -->
<g id="edge26_Node000001_Node000017" class="edge">
<title>Node1&#45;&gt;Node17</title>
<g id="a_edge26_Node000001_Node000017"><a xlink:title=" ">
<path fill="none" stroke="#63b8ff" d="M950.46,-193.64C1051.28,-189.47 1287.39,-177.66 1495.82,-151.02"/>
<polygon fill="#63b8ff" stroke="#63b8ff" points="1496.57,-154.46 1506.04,-149.7 1495.67,-147.51 1496.57,-154.46"/>
</a>
</g>
</g>
<!-- Node18 -->
<g id="Node000018" class="node">
<title>Node18</title>
<g id="a_Node000018"><a xlink:href="il2p__decoder_8h.html" target="_top" xlink:title=" ">
<polygon fill="white" stroke="#666666" points="147.32,-151 16.32,-151 16.32,-121 147.32,-121 147.32,-151"/>
<text text-anchor="start" x="24.32" y="-139" font-family="Helvetica,sans-Serif" font-size="10.00">gnuradio/packet_protocols</text>
<text text-anchor="middle" x="81.82" y="-128" font-family="Helvetica,sans-Serif" font-size="10.00">/il2p_decoder.h</text>
</a>
</g>
</g>
<!-- Node1&#45;&gt;Node18 -->
<g id="edge30_Node000001_Node000018" class="edge">
<title>Node1&#45;&gt;Node18</title>
<g id="a_edge30_Node000001_Node000018"><a xlink:title=" ">
<path fill="none" stroke="#63b8ff" d="M850.93,-194.71C732.33,-192.36 424.17,-183.5 157.78,-151.14"/>
<polygon fill="#63b8ff" stroke="#63b8ff" points="157.88,-147.62 147.52,-149.88 157.02,-154.57 157.88,-147.62"/>
</a>
</g>
</g>
<!-- Node19 -->
<g id="Node000019" class="node">
<title>Node19</title>
<g id="a_Node000019"><a xlink:href="il2p__encoder_8h.html" target="_top" xlink:title=" ">
<polygon fill="white" stroke="#666666" points="1190.32,-151 1059.32,-151 1059.32,-121 1190.32,-121 1190.32,-151"/>
<text text-anchor="start" x="1067.32" y="-139" font-family="Helvetica,sans-Serif" font-size="10.00">gnuradio/packet_protocols</text>
<text text-anchor="middle" x="1124.82" y="-128" font-family="Helvetica,sans-Serif" font-size="10.00">/il2p_encoder.h</text>
</a>
</g>
</g>
<!-- Node1&#45;&gt;Node19 -->
<g id="edge33_Node000001_Node000019" class="edge">
<title>Node1&#45;&gt;Node19</title>
<g id="a_edge33_Node000001_Node000019"><a xlink:title=" ">
<path fill="none" stroke="#63b8ff" d="M933.4,-186.99C966.76,-178.28 1019.5,-164.51 1061.18,-153.62"/>
<polygon fill="#63b8ff" stroke="#63b8ff" points="1062.18,-156.98 1070.97,-151.06 1060.41,-150.2 1062.18,-156.98"/>
</a>
</g>
</g>
<!-- Node20 -->
<g id="Node000020" class="node">
<title>Node20</title>
<g id="a_Node000020"><a xlink:href="il2p__protocol_8h.html" target="_top" xlink:title=" ">
<polygon fill="white" stroke="#666666" points="1786.32,-151 1655.32,-151 1655.32,-121 1786.32,-121 1786.32,-151"/>
<text text-anchor="start" x="1663.32" y="-139" font-family="Helvetica,sans-Serif" font-size="10.00">gnuradio/packet_protocols</text>
<text text-anchor="middle" x="1720.82" y="-128" font-family="Helvetica,sans-Serif" font-size="10.00">/il2p_protocol.h</text>
</a>
</g>
</g>
<!-- Node1&#45;&gt;Node20 -->
<g id="edge37_Node000001_Node000020" class="edge">
<title>Node1&#45;&gt;Node20</title>
<g id="a_edge37_Node000001_Node000020"><a xlink:title=" ">
<path fill="none" stroke="#63b8ff" d="M950.72,-194.67C1069.3,-192.23 1377.44,-183.19 1644.76,-151.01"/>
<polygon fill="#63b8ff" stroke="#63b8ff" points="1645.54,-154.44 1655.05,-149.76 1644.7,-147.49 1645.54,-154.44"/>
</a>
</g>
</g>
<!-- Node21 -->
<g id="Node000021" class="node">
<title>Node21</title>
<g id="a_Node000021"><a xlink:href="il2p__reed__solomon_8h.html" target="_top" xlink:title=" ">
<polygon fill="white" stroke="#666666" points="1339.32,-151 1208.32,-151 1208.32,-121 1339.32,-121 1339.32,-151"/>
<text text-anchor="start" x="1216.32" y="-139" font-family="Helvetica,sans-Serif" font-size="10.00">gnuradio/packet_protocols</text>
<text text-anchor="middle" x="1273.82" y="-128" font-family="Helvetica,sans-Serif" font-size="10.00">/il2p_reed_solomon.h</text>
</a>
</g>
</g>
<!-- Node1&#45;&gt;Node21 -->
<g id="edge41_Node000001_Node000021" class="edge">
<title>Node1&#45;&gt;Node21</title>
<g id="a_edge41_Node000001_Node000021"><a xlink:title=" ">
<path fill="none" stroke="#63b8ff" d="M950.48,-188.65C1007.67,-180.63 1104.72,-166.64 1198.1,-151.08"/>
<polygon fill="#63b8ff" stroke="#63b8ff" points="1198.71,-154.53 1208,-149.43 1197.56,-147.63 1198.71,-154.53"/>
</a>
</g>
</g>
<!-- Node22 -->
<g id="Node000022" class="node">
<title>Node22</title>
<g id="a_Node000022"><a xlink:href="kiss__protocol_8h.html" target="_top" xlink:title=" ">
<polygon fill="white" stroke="#666666" points="1935.32,-151 1804.32,-151 1804.32,-121 1935.32,-121 1935.32,-151"/>
<text text-anchor="start" x="1812.32" y="-139" font-family="Helvetica,sans-Serif" font-size="10.00">gnuradio/packet_protocols</text>
<text text-anchor="middle" x="1869.82" y="-128" font-family="Helvetica,sans-Serif" font-size="10.00">/kiss_protocol.h</text>
</a>
</g>
</g>
<!-- Node1&#45;&gt;Node22 -->
<g id="edge45_Node000001_Node000022" class="edge">
<title>Node1&#45;&gt;Node22</title>
<g id="a_edge45_Node000001_Node000022"><a xlink:title=" ">
<path fill="none" stroke="#63b8ff" d="M950.51,-195.42C1084.97,-194.68 1467.32,-189.22 1793.99,-151.11"/>
<polygon fill="#63b8ff" stroke="#63b8ff" points="1794.61,-154.56 1804.13,-149.91 1793.79,-147.61 1794.61,-154.56"/>
</a>
</g>
</g>
<!-- Node23 -->
<g id="Node000023" class="node">
<title>Node23</title>
<g id="a_Node000023"><a xlink:href="kiss__tnc_8h.html" target="_top" xlink:title=" ">
<polygon fill="white" stroke="#666666" points="296.32,-151 165.32,-151 165.32,-121 296.32,-121 296.32,-151"/>
<text text-anchor="start" x="173.32" y="-139" font-family="Helvetica,sans-Serif" font-size="10.00">gnuradio/packet_protocols</text>
<text text-anchor="middle" x="230.82" y="-128" font-family="Helvetica,sans-Serif" font-size="10.00">/kiss_tnc.h</text>
</a>
</g>
</g>
<!-- Node1&#45;&gt;Node23 -->
<g id="edge49_Node000001_Node000023" class="edge">
<title>Node1&#45;&gt;Node23</title>
<g id="a_edge49_Node000001_Node000023"><a xlink:title=" ">
<path fill="none" stroke="#63b8ff" d="M851.18,-193.68C750.36,-189.58 514.23,-177.9 306.7,-151.15"/>
<polygon fill="#63b8ff" stroke="#63b8ff" points="306.9,-147.65 296.53,-149.83 305.99,-154.59 306.9,-147.65"/>
</a>
</g>
</g>
<!-- Node3 -->
<g id="Node000003" class="node">
<title>Node3</title>
<g id="a_Node000003"><a xlink:title=" ">
<polygon fill="#e0e0e0" stroke="#999999" points="585.32,-19 480.32,-19 480.32,0 585.32,0 585.32,-19"/>
<text text-anchor="middle" x="532.82" y="-7" font-family="Helvetica,sans-Serif" font-size="10.00">gnuradio/attributes.h</text>
</a>
</g>
</g>
<!-- Node2&#45;&gt;Node3 -->
<g id="edge2_Node000002_Node000003" class="edge">
<title>Node2&#45;&gt;Node3</title>
<g id="a_edge2_Node000002_Node000003"><a xlink:title=" ">
<path fill="none" stroke="#63b8ff" d="M532.82,-54.84C532.82,-47.21 532.82,-37.7 532.82,-29.45"/>
<polygon fill="#63b8ff" stroke="#63b8ff" points="536.32,-29.27 532.82,-19.27 529.32,-29.27 536.32,-29.27"/>
</a>
</g>
</g>
<!-- Node4&#45;&gt;Node2 -->
<g id="edge4_Node000004_Node000002" class="edge">
<title>Node4&#45;&gt;Node2</title>
<g id="a_edge4_Node000004_Node000002"><a xlink:title=" ">
<path fill="none" stroke="#63b8ff" d="M413.4,-120.95C435.92,-111.53 465.78,-99.04 490.01,-88.91"/>
<polygon fill="#63b8ff" stroke="#63b8ff" points="491.45,-92.1 499.33,-85.01 488.75,-85.64 491.45,-92.1"/>
</a>
</g>
</g>
<!-- Node5 -->
<g id="Node000005" class="node">
<title>Node5</title>
<g id="a_Node000005"><a xlink:title=" ">
<polygon fill="#e0e0e0" stroke="#999999" points="734.82,-79.5 620.82,-79.5 620.82,-60.5 734.82,-60.5 734.82,-79.5"/>
<text text-anchor="middle" x="677.82" y="-67.5" font-family="Helvetica,sans-Serif" font-size="10.00">gnuradio/sync_block.h</text>
</a>
</g>
</g>
<!-- Node4&#45;&gt;Node5 -->
<g id="edge5_Node000004_Node000005" class="edge">
<title>Node4&#45;&gt;Node5</title>
<g id="a_edge5_Node000004_Node000005"><a xlink:title=" ">
<path fill="none" stroke="#63b8ff" d="M445.22,-120.95C500.36,-109.11 578.08,-92.42 628.21,-81.65"/>
<polygon fill="#63b8ff" stroke="#63b8ff" points="629.12,-85.04 638.17,-79.52 627.65,-78.2 629.12,-85.04"/>
</a>
</g>
</g>
<!-- Node6&#45;&gt;Node2 -->
<g id="edge7_Node000006_Node000002" class="edge">
<title>Node6&#45;&gt;Node2</title>
<g id="a_edge7_Node000006_Node000002"><a xlink:title=" ">
<path fill="none" stroke="#63b8ff" d="M529.71,-120.8C530.18,-113.34 530.76,-103.99 531.3,-95.41"/>
<polygon fill="#63b8ff" stroke="#63b8ff" points="534.81,-95.36 531.94,-85.16 527.82,-94.93 534.81,-95.36"/>
</a>
</g>
</g>
<!-- Node6&#45;&gt;Node5 -->
<g id="edge8_Node000006_Node000005" class="edge">
<title>Node6&#45;&gt;Node5</title>
<g id="a_edge8_Node000006_Node000005"><a xlink:title=" ">
<path fill="none" stroke="#63b8ff" d="M561.52,-120.95C587.54,-109.78 623.61,-94.29 648.65,-83.53"/>
<polygon fill="#63b8ff" stroke="#63b8ff" points="650.19,-86.68 658,-79.52 647.43,-80.25 650.19,-86.68"/>
</a>
</g>
</g>
<!-- Node8 -->
<g id="Node000008" class="node">
<title>Node8</title>
<g id="a_Node000008"><a xlink:title=" ">
<polygon fill="#e0e0e0" stroke="#999999" points="1600.82,-79.5 1544.82,-79.5 1544.82,-60.5 1600.82,-60.5 1600.82,-79.5"/>
<text text-anchor="middle" x="1572.82" y="-67.5" font-family="Helvetica,sans-Serif" font-size="10.00">stdbool.h</text>
</a>
</g>
</g>
<!-- Node7&#45;&gt;Node8 -->
<g id="edge10_Node000007_Node000008" class="edge">
<title>Node7&#45;&gt;Node8</title>
<g id="a_edge10_Node000007_Node000008"><a xlink:title=" ">
<path fill="none" stroke="#63b8ff" d="M1455.74,-120.95C1481.93,-109.78 1518.25,-94.29 1543.46,-83.53"/>
<polygon fill="#63b8ff" stroke="#63b8ff" points="1545.04,-86.66 1552.86,-79.52 1542.29,-80.22 1545.04,-86.66"/>
</a>
</g>
</g>
<!-- Node9 -->
<g id="Node000009" class="node">
<title>Node9</title>
<g id="a_Node000009"><a xlink:title=" ">
<polygon fill="#e0e0e0" stroke="#999999" points="1674.82,-79.5 1622.82,-79.5 1622.82,-60.5 1674.82,-60.5 1674.82,-79.5"/>
<text text-anchor="middle" x="1648.82" y="-67.5" font-family="Helvetica,sans-Serif" font-size="10.00">stddef.h</text>
</a>
</g>
</g>
<!-- Node7&#45;&gt;Node9 -->
<g id="edge11_Node000007_Node000009" class="edge">
<title>Node7&#45;&gt;Node9</title>
<g id="a_edge11_Node000007_Node000009"><a xlink:title=" ">
<path fill="none" stroke="#63b8ff" d="M1480.47,-120.91C1517.62,-111.5 1566.84,-98.43 1609.82,-85 1611.94,-84.34 1614.12,-83.63 1616.31,-82.9"/>
<polygon fill="#63b8ff" stroke="#63b8ff" points="1617.52,-86.18 1625.83,-79.61 1615.24,-79.57 1617.52,-86.18"/>
</a>
</g>
</g>
<!-- Node10 -->
<g id="Node000010" class="node">
<title>Node10</title>
<g id="a_Node000010"><a xlink:title=" ">
<polygon fill="#e0e0e0" stroke="#999999" points="1744.32,-79.5 1695.32,-79.5 1695.32,-60.5 1744.32,-60.5 1744.32,-79.5"/>
<text text-anchor="middle" x="1719.82" y="-67.5" font-family="Helvetica,sans-Serif" font-size="10.00">stdint.h</text>
</a>
</g>
</g>
<!-- Node7&#45;&gt;Node10 -->
<g id="edge12_Node000007_Node000010" class="edge">
<title>Node7&#45;&gt;Node10</title>
<g id="a_edge12_Node000007_Node000010"><a xlink:title=" ">
<path fill="none" stroke="#63b8ff" d="M1488.47,-122.57C1564.22,-108.21 1679.09,-86.36 1683.82,-85 1685.97,-84.38 1688.17,-83.69 1690.37,-82.95"/>
<polygon fill="#63b8ff" stroke="#63b8ff" points="1691.66,-86.2 1699.86,-79.5 1689.27,-79.62 1691.66,-86.2"/>
</a>
</g>
</g>
<!-- Node11&#45;&gt;Node2 -->
<g id="edge14_Node000011_Node000002" class="edge">
<title>Node11&#45;&gt;Node2</title>
<g id="a_edge14_Node000011_Node000002"><a xlink:title=" ">
<path fill="none" stroke="#63b8ff" d="M646,-120.95C624.85,-111.62 596.86,-99.27 574.01,-89.18"/>
<polygon fill="#63b8ff" stroke="#63b8ff" points="575.13,-85.85 564.57,-85.01 572.31,-92.25 575.13,-85.85"/>
</a>
</g>
</g>
<!-- Node11&#45;&gt;Node5 -->
<g id="edge15_Node000011_Node000005" class="edge">
<title>Node11&#45;&gt;Node5</title>
<g id="a_edge15_Node000011_Node000005"><a xlink:title=" ">
<path fill="none" stroke="#63b8ff" d="M677.82,-120.8C677.82,-111.7 677.82,-99.79 677.82,-89.9"/>
<polygon fill="#63b8ff" stroke="#63b8ff" points="681.32,-89.84 677.82,-79.84 674.32,-89.84 681.32,-89.84"/>
</a>
</g>
</g>
<!-- Node12&#45;&gt;Node2 -->
<g id="edge17_Node000012_Node000002" class="edge">
<title>Node12&#45;&gt;Node2</title>
<g id="a_edge17_Node000012_Node000002"><a xlink:title=" ">
<path fill="none" stroke="#63b8ff" d="M762.3,-120.95C716.54,-110.99 655.01,-97.6 607.18,-87.19"/>
<polygon fill="#63b8ff" stroke="#63b8ff" points="607.71,-83.72 597.19,-85.01 606.22,-90.56 607.71,-83.72"/>
</a>
</g>
</g>
<!-- Node12&#45;&gt;Node5 -->
<g id="edge21_Node000012_Node000005" class="edge">
<title>Node12&#45;&gt;Node5</title>
<g id="a_edge21_Node000012_Node000005"><a xlink:title=" ">
<path fill="none" stroke="#63b8ff" d="M794.13,-120.95C768.11,-109.78 732.04,-94.29 707,-83.53"/>
<polygon fill="#63b8ff" stroke="#63b8ff" points="708.22,-80.25 697.65,-79.52 705.46,-86.68 708.22,-80.25"/>
</a>
</g>
</g>
<!-- Node13 -->
<g id="Node000013" class="node">
<title>Node13</title>
<g id="a_Node000013"><a xlink:href="common_8h.html" target="_top" xlink:title=" ">
<polygon fill="white" stroke="#666666" points="1115.32,-85 984.32,-85 984.32,-55 1115.32,-55 1115.32,-85"/>
<text text-anchor="start" x="992.32" y="-73" font-family="Helvetica,sans-Serif" font-size="10.00">gnuradio/packet_protocols</text>
<text text-anchor="middle" x="1049.82" y="-62" font-family="Helvetica,sans-Serif" font-size="10.00">/common.h</text>
</a>
</g>
</g>
<!-- Node12&#45;&gt;Node13 -->
<g id="edge18_Node000012_Node000013" class="edge">
<title>Node12&#45;&gt;Node13</title>
<g id="a_edge18_Node000012_Node000013"><a xlink:title=" ">
<path fill="none" stroke="#63b8ff" d="M875.76,-120.95C909.75,-111.2 955.2,-98.16 991.13,-87.84"/>
<polygon fill="#63b8ff" stroke="#63b8ff" points="992.35,-91.14 1001,-85.01 990.42,-84.41 992.35,-91.14"/>
</a>
</g>
</g>
<!-- Node14 -->
<g id="Node000014" class="node">
<title>Node14</title>
<g id="a_Node000014"><a xlink:title=" ">
<polygon fill="#e0e0e0" stroke="#999999" points="1102.82,-19 1058.82,-19 1058.82,0 1102.82,0 1102.82,-19"/>
<text text-anchor="middle" x="1080.82" y="-7" font-family="Helvetica,sans-Serif" font-size="10.00">vector</text>
</a>
</g>
</g>
<!-- Node13&#45;&gt;Node14 -->
<g id="edge19_Node000013_Node000014" class="edge">
<title>Node13&#45;&gt;Node14</title>
<g id="a_edge19_Node000013_Node000014"><a xlink:title=" ">
<path fill="none" stroke="#63b8ff" d="M1057.33,-54.84C1061.55,-46.87 1066.87,-36.84 1071.37,-28.33"/>
<polygon fill="#63b8ff" stroke="#63b8ff" points="1074.59,-29.74 1076.18,-19.27 1068.4,-26.46 1074.59,-29.74"/>
</a>
</g>
</g>
<!-- Node15 -->
<g id="Node000015" class="node">
<title>Node15</title>
<g id="a_Node000015"><a xlink:title=" ">
<polygon fill="#e0e0e0" stroke="#999999" points="1040.82,-19 994.82,-19 994.82,0 1040.82,0 1040.82,-19"/>
<text text-anchor="middle" x="1017.82" y="-7" font-family="Helvetica,sans-Serif" font-size="10.00">cstdint</text>
</a>
</g>
</g>
<!-- Node13&#45;&gt;Node15 -->
<g id="edge20_Node000013_Node000015" class="edge">
<title>Node13&#45;&gt;Node15</title>
<g id="a_edge20_Node000013_Node000015"><a xlink:title=" ">
<path fill="none" stroke="#63b8ff" d="M1042.08,-54.84C1037.67,-46.78 1032.11,-36.62 1027.43,-28.06"/>
<polygon fill="#63b8ff" stroke="#63b8ff" points="1030.49,-26.36 1022.62,-19.27 1024.35,-29.72 1030.49,-26.36"/>
</a>
</g>
</g>
<!-- Node16&#45;&gt;Node2 -->
<g id="edge23_Node000016_Node000002" class="edge">
<title>Node16&#45;&gt;Node2</title>
<g id="a_edge23_Node000016_Node000002"><a xlink:title=" ">
<path fill="none" stroke="#63b8ff" d="M910.01,-122.48C906.91,-121.96 903.83,-121.47 900.82,-121 772.92,-101.12 739.81,-104.3 611.82,-85 610.89,-84.86 609.95,-84.72 609.01,-84.57"/>
<polygon fill="#63b8ff" stroke="#63b8ff" points="609.16,-81.05 598.73,-82.94 608.06,-87.97 609.16,-81.05"/>
</a>
</g>
</g>
<!-- Node16&#45;&gt;Node5 -->
<g id="edge25_Node000016_Node000005" class="edge">
<title>Node16&#45;&gt;Node5</title>
<g id="a_edge25_Node000016_Node000005"><a xlink:title=" ">
<path fill="none" stroke="#63b8ff" d="M910.43,-120.95C855.29,-109.11 777.57,-92.42 727.43,-81.65"/>
<polygon fill="#63b8ff" stroke="#63b8ff" points="728,-78.2 717.48,-79.52 726.53,-85.04 728,-78.2"/>
</a>
</g>
</g>
<!-- Node16&#45;&gt;Node13 -->
<g id="edge24_Node000016_Node000013" class="edge">
<title>Node16&#45;&gt;Node13</title>
<g id="a_edge24_Node000016_Node000013"><a xlink:title=" ">
<path fill="none" stroke="#63b8ff" d="M992.25,-120.8C1002.12,-112.26 1014.85,-101.25 1025.83,-91.75"/>
<polygon fill="#63b8ff" stroke="#63b8ff" points="1028.17,-94.35 1033.45,-85.16 1023.59,-89.06 1028.17,-94.35"/>
</a>
</g>
</g>
<!-- Node17&#45;&gt;Node8 -->
<g id="edge27_Node000017_Node000008" class="edge">
<title>Node17&#45;&gt;Node8</title>
<g id="a_edge27_Node000017_Node000008"><a xlink:title=" ">
<path fill="none" stroke="#63b8ff" d="M1572.05,-120.8C1572.19,-111.7 1572.37,-99.79 1572.53,-89.9"/>
<polygon fill="#63b8ff" stroke="#63b8ff" points="1576.03,-89.9 1572.69,-79.84 1569.03,-89.79 1576.03,-89.9"/>
</a>
</g>
</g>
<!-- Node17&#45;&gt;Node9 -->
<g id="edge28_Node000017_Node000009" class="edge">
<title>Node17&#45;&gt;Node9</title>
<g id="a_edge28_Node000017_Node000009"><a xlink:title=" ">
<path fill="none" stroke="#63b8ff" d="M1588.91,-120.8C1601.15,-110.62 1617.63,-96.93 1630.2,-86.48"/>
<polygon fill="#63b8ff" stroke="#63b8ff" points="1632.73,-88.93 1638.18,-79.84 1628.26,-83.54 1632.73,-88.93"/>
</a>
</g>
</g>
<!-- Node17&#45;&gt;Node10 -->
<g id="edge29_Node000017_Node000010" class="edge">
<title>Node17&#45;&gt;Node10</title>
<g id="a_edge29_Node000017_Node000010"><a xlink:title=" ">
<path fill="none" stroke="#63b8ff" d="M1604.3,-120.95C1630.14,-109.78 1665.97,-94.29 1690.85,-83.53"/>
<polygon fill="#63b8ff" stroke="#63b8ff" points="1692.34,-86.7 1700.13,-79.52 1689.56,-80.27 1692.34,-86.7"/>
</a>
</g>
</g>
<!-- Node18&#45;&gt;Node2 -->
<g id="edge31_Node000018_Node000002" class="edge">
<title>Node18&#45;&gt;Node2</title>
<g id="a_edge31_Node000018_Node000002"><a xlink:title=" ">
<path fill="none" stroke="#63b8ff" d="M147.56,-122.37C150.35,-121.89 153.11,-121.44 155.82,-121 260.01,-104.25 381.05,-88.93 457.29,-79.78"/>
<polygon fill="#63b8ff" stroke="#63b8ff" points="457.77,-83.24 467.28,-78.58 456.94,-76.29 457.77,-83.24"/>
</a>
</g>
</g>
<!-- Node18&#45;&gt;Node5 -->
<g id="edge32_Node000018_Node000005" class="edge">
<title>Node18&#45;&gt;Node5</title>
<g id="a_edge32_Node000018_Node000005"><a xlink:title=" ">
<path fill="none" stroke="#63b8ff" d="M147.53,-122.19C150.33,-121.76 153.1,-121.36 155.82,-121 355.12,-94.27 407.63,-112.5 606.82,-85 614.01,-84.01 621.57,-82.75 628.96,-81.4"/>
<polygon fill="#63b8ff" stroke="#63b8ff" points="629.73,-84.82 638.9,-79.51 628.42,-77.94 629.73,-84.82"/>
</a>
</g>
</g>
<!-- Node19&#45;&gt;Node2 -->
<g id="edge34_Node000019_Node000002" class="edge">
<title>Node19&#45;&gt;Node2</title>
<g id="a_edge34_Node000019_Node000002"><a xlink:title=" ">
<path fill="none" stroke="#63b8ff" d="M1059.04,-122.32C1055.93,-121.85 1052.84,-121.4 1049.82,-121 856.23,-95.05 805.53,-110.07 611.82,-85 610.89,-84.88 609.95,-84.75 609,-84.63"/>
<polygon fill="#63b8ff" stroke="#63b8ff" points="609.1,-81.11 598.71,-83.15 608.11,-88.03 609.1,-81.11"/>
</a>
</g>
</g>
<!-- Node19&#45;&gt;Node5 -->
<g id="edge36_Node000019_Node000005" class="edge">
<title>Node19&#45;&gt;Node5</title>
<g id="a_edge36_Node000019_Node000005"><a xlink:title=" ">
<path fill="none" stroke="#63b8ff" d="M1059.01,-122.52C1055.91,-121.99 1052.83,-121.48 1049.82,-121 943.67,-103.97 819.83,-88.12 745.19,-79.01"/>
<polygon fill="#63b8ff" stroke="#63b8ff" points="745.34,-75.5 734.99,-77.77 744.5,-82.45 745.34,-75.5"/>
</a>
</g>
</g>
<!-- Node19&#45;&gt;Node13 -->
<g id="edge35_Node000019_Node000013" class="edge">
<title>Node19&#45;&gt;Node13</title>
<g id="a_edge35_Node000019_Node000013"><a xlink:title=" ">
<path fill="none" stroke="#63b8ff" d="M1108.18,-120.8C1098.18,-112.26 1085.27,-101.25 1074.15,-91.75"/>
<polygon fill="#63b8ff" stroke="#63b8ff" points="1076.3,-88.99 1066.42,-85.16 1071.76,-94.32 1076.3,-88.99"/>
</a>
</g>
</g>
<!-- Node20&#45;&gt;Node8 -->
<g id="edge38_Node000020_Node000008" class="edge">
<title>Node20&#45;&gt;Node8</title>
<g id="a_edge38_Node000020_Node000008"><a xlink:title=" ">
<path fill="none" stroke="#63b8ff" d="M1688.35,-120.95C1662.5,-109.78 1626.68,-94.29 1601.8,-83.53"/>
<polygon fill="#63b8ff" stroke="#63b8ff" points="1603.09,-80.27 1592.52,-79.52 1600.31,-86.7 1603.09,-80.27"/>
</a>
</g>
</g>
<!-- Node20&#45;&gt;Node9 -->
<g id="edge39_Node000020_Node000009" class="edge">
<title>Node20&#45;&gt;Node9</title>
<g id="a_edge39_Node000020_Node000009"><a xlink:title=" ">
<path fill="none" stroke="#63b8ff" d="M1704.85,-120.8C1693.51,-110.72 1678.29,-97.19 1666.58,-86.78"/>
<polygon fill="#63b8ff" stroke="#63b8ff" points="1668.57,-83.87 1658.77,-79.84 1663.92,-89.1 1668.57,-83.87"/>
</a>
</g>
</g>
<!-- Node20&#45;&gt;Node10 -->
<g id="edge40_Node000020_Node000010" class="edge">
<title>Node20&#45;&gt;Node10</title>
<g id="a_edge40_Node000020_Node000010"><a xlink:title=" ">
<path fill="none" stroke="#63b8ff" d="M1720.6,-120.8C1720.46,-111.7 1720.27,-99.79 1720.12,-89.9"/>
<polygon fill="#63b8ff" stroke="#63b8ff" points="1723.62,-89.79 1719.96,-79.84 1716.62,-89.9 1723.62,-89.79"/>
</a>
</g>
</g>
<!-- Node21&#45;&gt;Node2 -->
<g id="edge42_Node000021_Node000002" class="edge">
<title>Node21&#45;&gt;Node2</title>
<g id="a_edge42_Node000021_Node000002"><a xlink:title=" ">
<path fill="none" stroke="#63b8ff" d="M1208.05,-122.25C1204.93,-121.79 1201.85,-121.37 1198.82,-121 939.42,-88.96 871.38,-115.86 611.82,-85 610.89,-84.89 609.94,-84.77 608.99,-84.65"/>
<polygon fill="#63b8ff" stroke="#63b8ff" points="609.07,-81.13 598.69,-83.25 608.13,-88.07 609.07,-81.13"/>
</a>
</g>
</g>
<!-- Node21&#45;&gt;Node5 -->
<g id="edge44_Node000021_Node000005" class="edge">
<title>Node21&#45;&gt;Node5</title>
<g id="a_edge44_Node000021_Node000005"><a xlink:title=" ">
<path fill="none" stroke="#63b8ff" d="M1208.03,-122.38C1204.92,-121.89 1201.84,-121.43 1198.82,-121 1036.75,-98.14 844.82,-82.7 745.28,-75.55"/>
<polygon fill="#63b8ff" stroke="#63b8ff" points="745.29,-72.04 735.07,-74.82 744.8,-79.02 745.29,-72.04"/>
</a>
</g>
</g>
<!-- Node21&#45;&gt;Node13 -->
<g id="edge43_Node000021_Node000013" class="edge">
<title>Node21&#45;&gt;Node13</title>
<g id="a_edge43_Node000021_Node000013"><a xlink:title=" ">
<path fill="none" stroke="#63b8ff" d="M1224.67,-120.95C1190.53,-111.2 1144.87,-98.16 1108.78,-87.84"/>
<polygon fill="#63b8ff" stroke="#63b8ff" points="1109.44,-84.39 1098.87,-85.01 1107.52,-91.12 1109.44,-84.39"/>
</a>
</g>
</g>
<!-- Node22&#45;&gt;Node8 -->
<g id="edge46_Node000022_Node000008" class="edge">
<title>Node22&#45;&gt;Node8</title>
<g id="a_edge46_Node000022_Node000008"><a xlink:title=" ">
<path fill="none" stroke="#63b8ff" d="M1804.1,-122.39C1731.35,-108.41 1623.05,-87.46 1613.82,-85 1611.19,-84.3 1608.48,-83.51 1605.77,-82.68"/>
<polygon fill="#63b8ff" stroke="#63b8ff" points="1606.66,-79.29 1596.07,-79.55 1604.51,-85.95 1606.66,-79.29"/>
</a>
</g>
</g>
<!-- Node22&#45;&gt;Node9 -->
<g id="edge47_Node000022_Node000009" class="edge">
<title>Node22&#45;&gt;Node9</title>
<g id="a_edge47_Node000022_Node000009"><a xlink:title=" ">
<path fill="none" stroke="#63b8ff" d="M1813.39,-120.93C1777.03,-111.53 1728.86,-98.46 1686.82,-85 1684.92,-84.39 1682.96,-83.74 1681,-83.07"/>
<polygon fill="#63b8ff" stroke="#63b8ff" points="1681.81,-79.65 1671.22,-79.61 1679.48,-86.25 1681.81,-79.65"/>
</a>
</g>
</g>
<!-- Node22&#45;&gt;Node10 -->
<g id="edge48_Node000022_Node000010" class="edge">
<title>Node22&#45;&gt;Node10</title>
<g id="a_edge48_Node000022_Node000010"><a xlink:title=" ">
<path fill="none" stroke="#63b8ff" d="M1836.91,-120.95C1810.72,-109.78 1774.4,-94.29 1749.19,-83.53"/>
<polygon fill="#63b8ff" stroke="#63b8ff" points="1750.36,-80.22 1739.79,-79.52 1747.61,-86.66 1750.36,-80.22"/>
</a>
</g>
</g>
<!-- Node23&#45;&gt;Node2 -->
<g id="edge50_Node000023_Node000002" class="edge">
<title>Node23&#45;&gt;Node2</title>
<g id="a_edge50_Node000023_Node000002"><a xlink:title=" ">
<path fill="none" stroke="#63b8ff" d="M296.35,-121.11C343.66,-111.09 407.66,-97.52 457.15,-87.04"/>
<polygon fill="#63b8ff" stroke="#63b8ff" points="458.11,-90.41 467.16,-84.92 456.65,-83.56 458.11,-90.41"/>
</a>
</g>
</g>
<!-- Node23&#45;&gt;Node5 -->
<g id="edge51_Node000023_Node000005" class="edge">
<title>Node23&#45;&gt;Node5</title>
<g id="a_edge51_Node000023_Node000005"><a xlink:title=" ">
<path fill="none" stroke="#63b8ff" d="M296.55,-122.32C299.34,-121.86 302.11,-121.42 304.82,-121 438.42,-100.42 473.31,-106.09 606.82,-85 613.49,-83.95 620.49,-82.72 627.39,-81.43"/>
<polygon fill="#63b8ff" stroke="#63b8ff" points="628.2,-84.84 637.37,-79.53 626.89,-77.97 628.2,-84.84"/>
</a>
</g>
</g>
</g>
</svg>
